<svg xmlns="http://www.w3.org/2000/svg" xmlns:xlink="http://www.w3.org/1999/xlink" viewBox="0 0 180.11 52.04"><defs><style>.cls-1{fill:none;}.cls-2{fill:#091011;opacity:0.1;}.cls-3{fill:#fff;}.cls-4{clip-path:url(#clip-path);}.cls-5{fill:#83e498;}.cls-6{fill:#83e399;}.cls-7{fill:#82e29a;}.cls-8{fill:#82e19b;}.cls-9{fill:#81e19c;}.cls-10{fill:#81e09d;}.cls-11{fill:#80df9e;}.cls-12{fill:#80de9f;}.cls-13{fill:#80dda0;}.cls-14{fill:#7fdda1;}.cls-15{fill:#7fdca2;}.cls-16{fill:#7edba3;}.cls-17{fill:#7edaa4;}.cls-18{fill:#7dd9a5;}.cls-19{fill:#7dd9a6;}.cls-20{fill:#7dd8a7;}.cls-21{fill:#7cd7a8;}.cls-22{fill:#7cd6a9;}.cls-23{fill:#7bd5aa;}.cls-24{fill:#7bd5ab;}.cls-25{fill:#7ad4ac;}.cls-26{fill:#7ad3ad;}.cls-27{fill:#79d2ae;}.cls-28{fill:#79d1af;}.cls-29{fill:#79d1b0;}.cls-30{fill:#78d0b1;}.cls-31{fill:#78cfb2;}.cls-32{fill:#77ceb3;}.cls-33{fill:#77cdb4;}.cls-34{fill:#76cdb5;}.cls-35{fill:#76ccb6;}.cls-36{fill:#76cbb7;}.cls-37{fill:#75cab8;}.cls-38{fill:#75c9b9;}.cls-39{fill:#74c9ba;}.cls-40{fill:#74c8bb;}.cls-41{fill:#73c7bc;}.cls-42{fill:#73c6bd;}.cls-43{fill:#72c5be;}.cls-44{fill:#72c5c0;}.cls-45{fill:#72c4c1;}.cls-46{fill:#71c3c2;}.cls-47{fill:#71c2c3;}.cls-48{fill:#70c1c4;}.cls-49{fill:#70c0c5;}.cls-50{fill:#6fc0c6;}.cls-51{fill:#6fbfc7;}.cls-52{fill:#6fbec8;}.cls-53{fill:#6ebdc9;}.cls-54{fill:#6ebcca;}.cls-55{fill:#6dbccb;}.cls-56{fill:#6dbbcc;}.cls-57{fill:#6cbacd;}.cls-58{fill:#6cb9ce;}.cls-59{fill:#6bb8cf;}.cls-60{fill:#6bb8d0;}.cls-61{fill:#6bb7d1;}.cls-62{fill:#6ab6d2;}.cls-63{fill:#6ab5d3;}.cls-64{fill:#69b4d4;}.cls-65{fill:#69b4d5;}.cls-66{fill:#68b3d6;}.cls-67{fill:#68b2d7;}.cls-68{fill:#68b1d8;}.cls-69{fill:#67b0d9;}.cls-70{fill:#67b0da;}.cls-71{fill:#66afdb;}.cls-72{fill:#66aedc;}.cls-73{fill:#65addd;}.cls-74{fill:#65acde;}.cls-75{fill:#64acdf;}.cls-76{fill:#64abe0;}.cls-77{fill:#64aae1;}.cls-78{fill:#63a9e2;}.cls-79{fill:#63a8e3;}.cls-80{fill:#87eb8f;}.cls-81{fill:#87ea90;}.cls-82{fill:#86e991;}.cls-83{fill:#86e992;}.cls-84{fill:#85e893;}.cls-85{fill:#85e794;}.cls-86{fill:#84e695;}.cls-87{fill:#84e596;}.cls-88{fill:#84e597;}.cls-89{fill:#62a8e4;}.cls-90{fill:#62a7e5;}.cls-91{fill:#61a6e6;}.cls-92{fill:#61a5e7;}.cls-93{fill:#61a4e8;}.cls-94{fill:#60a4e9;}.cls-95{fill:#60a3ea;}.cls-96{fill:#5fa2eb;}.cls-97{fill:#5fa1ec;}.cls-98{fill:#5ea0ed;}.cls-99{fill:#5ea0ee;}.cls-100{fill:#5d9fef;}.cls-101{fill:#5d9ef0;}</style><clipPath id="clip-path"><path class="cls-1" d="M58.44,37.7c-7,0-13.06-5.86-13.06-12.53,0-6.43,6.38-10.41,6.65-10.58a1.16,1.16,0,0,1,1.73,1.19c0,.07-1.34,7.64,2.09,11.07,2.71,2.71,10,1.77,12.64,1.19a1.14,1.14,0,0,1,1.28,1.63C69.61,30,65.67,37.7,58.44,37.7ZM51.22,18.15c-1.59,1.5-3.55,4-3.55,7,0,5.45,5,10.23,10.77,10.23,3.69,0,6.42-2.7,7.93-4.68-3.41.43-9.24.65-12.14-2.25S51.1,21.09,51.22,18.15Z"/></clipPath></defs><title>BT_DARK_EXPANDED</title><g id="Camada_2" data-name="Camada 2"><g id="Layer_10" data-name="Layer 10"><rect class="cls-2" width="180.11" height="52.04" rx="8.41"/><path class="cls-3" d="M83.26,33.86V19.23h4.32a6.83,6.83,0,0,1,3.44.86,6,6,0,0,1,2.33,2.45,7.81,7.81,0,0,1,.82,3.64v.73a7.78,7.78,0,0,1-.83,3.66A5.82,5.82,0,0,1,91,33a7.08,7.08,0,0,1-3.51.86ZM85.8,21.28V31.83h1.66a3.83,3.83,0,0,0,3.07-1.25A5.47,5.47,0,0,0,91.62,27v-.81a5.6,5.6,0,0,0-1-3.64,3.68,3.68,0,0,0-3-1.25Z"/><path class="cls-3" d="M103,33.86a3.72,3.72,0,0,1-.28-1,4.1,4.1,0,0,1-5.53.28,3,3,0,0,1-1-2.31,3.09,3.09,0,0,1,1.29-2.67,6.32,6.32,0,0,1,3.69-.92h1.5V26.5a1.93,1.93,0,0,0-.47-1.35,1.89,1.89,0,0,0-1.44-.51,2.15,2.15,0,0,0-1.37.42,1.3,1.3,0,0,0-.53,1.06H96.35a2.75,2.75,0,0,1,.59-1.67,4,4,0,0,1,1.62-1.22,5.51,5.51,0,0,1,2.27-.44,4.54,4.54,0,0,1,3,1A3.38,3.38,0,0,1,105,26.44v4.9a5.61,5.61,0,0,0,.41,2.34v.18Zm-2.68-1.76a2.84,2.84,0,0,0,1.36-.35,2.44,2.44,0,0,0,1-.95V28.75h-1.32a3.66,3.66,0,0,0-2,.47,1.56,1.56,0,0,0-.68,1.34A1.43,1.43,0,0,0,99,31.68,1.8,1.8,0,0,0,100.28,32.1Z"/><path class="cls-3" d="M113.29,25.22a5.55,5.55,0,0,0-1-.08A2.25,2.25,0,0,0,110,26.42v7.44h-2.44V23h2.33L110,24.2a2.76,2.76,0,0,1,2.45-1.41,2.2,2.2,0,0,1,.87.14Z"/><path class="cls-3" d="M118.36,29.19l-1.09,1.12v3.55h-2.44V18.43h2.44v8.9l.77-1L121,23H124l-4,4.53,4.47,6.34h-2.83Z"/><g class="cls-4"><rect class="cls-5" x="47.67" y="18.15" width="0.23" height="17.25"/><rect class="cls-6" x="47.9" y="18.15" width="0.25" height="17.25"/><rect class="cls-7" x="48.16" y="18.15" width="0.25" height="17.25"/><rect class="cls-8" x="48.41" y="18.15" width="0.25" height="17.25"/><rect class="cls-9" x="48.66" y="18.15" width="0.25" height="17.25"/><rect class="cls-10" x="48.91" y="18.15" width="0.25" height="17.25"/><rect class="cls-11" x="49.17" y="18.15" width="0.25" height="17.25"/><rect class="cls-12" x="49.42" y="18.15" width="0.25" height="17.25"/><rect class="cls-13" x="49.67" y="18.15" width="0.25" height="17.25"/><rect class="cls-14" x="49.92" y="18.15" width="0.25" height="17.25"/><rect class="cls-15" x="50.18" y="18.15" width="0.25" height="17.25"/><rect class="cls-16" x="50.43" y="18.15" width="0.25" height="17.25"/><rect class="cls-17" x="50.68" y="18.15" width="0.25" height="17.25"/><rect class="cls-18" x="50.94" y="18.15" width="0.25" height="17.25"/><rect class="cls-19" x="51.19" y="18.15" width="0.25" height="17.25"/><rect class="cls-20" x="51.44" y="18.15" width="0.25" height="17.25"/><rect class="cls-21" x="51.69" y="18.15" width="0.25" height="17.25"/><rect class="cls-22" x="51.95" y="18.15" width="0.25" height="17.25"/><rect class="cls-23" x="52.2" y="18.15" width="0.25" height="17.25"/><rect class="cls-24" x="52.45" y="18.15" width="0.25" height="17.25"/><rect class="cls-25" x="52.7" y="18.15" width="0.25" height="17.25"/><rect class="cls-26" x="52.96" y="18.15" width="0.25" height="17.25"/><rect class="cls-27" x="53.21" y="18.15" width="0.25" height="17.25"/><rect class="cls-28" x="53.46" y="18.15" width="0.25" height="17.25"/><rect class="cls-29" x="53.72" y="18.15" width="0.25" height="17.25"/><rect class="cls-30" x="53.97" y="18.15" width="0.25" height="17.25"/><rect class="cls-31" x="54.22" y="18.15" width="0.25" height="17.25"/><rect class="cls-32" x="54.47" y="18.15" width="0.25" height="17.25"/><rect class="cls-33" x="54.73" y="18.15" width="0.25" height="17.25"/><rect class="cls-34" x="54.98" y="18.15" width="0.25" height="17.25"/><rect class="cls-35" x="55.23" y="18.15" width="0.25" height="17.25"/><rect class="cls-36" x="55.48" y="18.15" width="0.25" height="17.25"/><rect class="cls-37" x="55.74" y="18.15" width="0.25" height="17.25"/><rect class="cls-38" x="55.99" y="18.15" width="0.25" height="17.25"/><rect class="cls-39" x="56.24" y="18.15" width="0.25" height="17.25"/><rect class="cls-40" x="56.5" y="18.15" width="0.25" height="17.25"/><rect class="cls-41" x="56.75" y="18.15" width="0.25" height="17.25"/><rect class="cls-42" x="57" y="18.15" width="0.25" height="17.25"/><rect class="cls-43" x="57.25" y="18.15" width="0.25" height="17.25"/><rect class="cls-44" x="57.51" y="18.15" width="0.25" height="17.25"/><rect class="cls-45" x="57.76" y="18.15" width="0.25" height="17.25"/><rect class="cls-46" x="58.01" y="18.15" width="0.25" height="17.25"/><rect class="cls-47" x="58.26" y="18.15" width="0.25" height="17.25"/><rect class="cls-48" x="58.52" y="18.15" width="0.25" height="17.25"/><rect class="cls-49" x="58.77" y="18.15" width="0.25" height="17.25"/><rect class="cls-50" x="59.02" y="18.15" width="0.25" height="17.25"/><rect class="cls-51" x="59.28" y="18.15" width="0.25" height="17.25"/><rect class="cls-52" x="59.53" y="18.15" width="0.25" height="17.25"/><rect class="cls-53" x="59.78" y="18.15" width="0.25" height="17.25"/><rect class="cls-54" x="60.03" y="18.15" width="0.25" height="17.25"/><rect class="cls-55" x="60.29" y="18.15" width="0.25" height="17.25"/><rect class="cls-56" x="60.54" y="18.15" width="0.25" height="17.25"/><rect class="cls-57" x="60.79" y="18.15" width="0.25" height="17.25"/><rect class="cls-58" x="61.04" y="18.15" width="0.25" height="17.25"/><rect class="cls-59" x="61.3" y="18.15" width="0.25" height="17.25"/><rect class="cls-60" x="61.55" y="18.15" width="0.25" height="17.25"/><rect class="cls-61" x="61.8" y="18.15" width="0.25" height="17.25"/><rect class="cls-62" x="62.06" y="18.15" width="0.25" height="17.25"/><rect class="cls-63" x="62.31" y="18.15" width="0.25" height="17.25"/><rect class="cls-64" x="62.56" y="18.15" width="0.25" height="17.25"/><rect class="cls-65" x="62.81" y="18.15" width="0.25" height="17.25"/><rect class="cls-66" x="63.07" y="18.15" width="0.25" height="17.25"/><rect class="cls-67" x="63.32" y="18.15" width="0.25" height="17.25"/><rect class="cls-68" x="63.57" y="18.15" width="0.25" height="17.25"/><rect class="cls-69" x="63.82" y="18.15" width="0.25" height="17.25"/><rect class="cls-70" x="64.08" y="18.15" width="0.25" height="17.25"/><rect class="cls-71" x="64.33" y="18.15" width="0.25" height="17.25"/><rect class="cls-72" x="64.58" y="18.15" width="0.25" height="17.25"/><rect class="cls-73" x="64.84" y="18.15" width="0.25" height="17.25"/><rect class="cls-74" x="65.09" y="18.15" width="0.25" height="17.25"/><rect class="cls-75" x="65.34" y="18.15" width="0.25" height="17.25"/><rect class="cls-76" x="65.59" y="18.15" width="0.25" height="17.25"/><rect class="cls-77" x="65.85" y="18.15" width="0.25" height="17.25"/><rect class="cls-78" x="66.1" y="18.15" width="0.25" height="17.25"/><rect class="cls-79" x="66.35" y="18.15" width="0.02" height="17.25"/><path class="cls-80" d="M45.38,14.36v0Z"/><rect class="cls-80" x="45.38" y="14.36" width="0.25" height="23.34"/><rect class="cls-81" x="45.63" y="14.36" width="0.25" height="23.34"/><rect class="cls-82" x="45.88" y="14.36" width="0.25" height="23.34"/><rect class="cls-83" x="46.13" y="14.36" width="0.25" height="23.34"/><rect class="cls-84" x="46.39" y="14.36" width="0.25" height="23.34"/><rect class="cls-85" x="46.64" y="14.36" width="0.25" height="23.34"/><rect class="cls-86" x="46.89" y="14.36" width="0.25" height="23.34"/><rect class="cls-87" x="47.14" y="14.36" width="0.25" height="23.34"/><rect class="cls-88" x="47.4" y="14.36" width="0.25" height="23.34"/><rect class="cls-5" x="47.65" y="14.36" width="0.25" height="23.34"/><rect class="cls-6" x="47.9" y="14.36" width="0.25" height="23.34"/><rect class="cls-7" x="48.16" y="14.36" width="0.25" height="23.34"/><rect class="cls-8" x="48.41" y="14.36" width="0.25" height="23.34"/><rect class="cls-9" x="48.66" y="14.36" width="0.25" height="23.34"/><rect class="cls-10" x="48.91" y="14.36" width="0.25" height="23.34"/><rect class="cls-11" x="49.17" y="14.36" width="0.25" height="23.34"/><rect class="cls-12" x="49.42" y="14.36" width="0.25" height="23.34"/><rect class="cls-13" x="49.67" y="14.36" width="0.25" height="23.34"/><rect class="cls-14" x="49.92" y="14.36" width="0.25" height="23.34"/><rect class="cls-15" x="50.18" y="14.36" width="0.25" height="23.34"/><rect class="cls-16" x="50.43" y="14.36" width="0.25" height="23.34"/><rect class="cls-17" x="50.68" y="14.36" width="0.25" height="23.34"/><rect class="cls-18" x="50.94" y="14.36" width="0.25" height="23.34"/><rect class="cls-19" x="51.19" y="14.36" width="0.25" height="23.34"/><rect class="cls-20" x="51.44" y="14.36" width="0.25" height="23.34"/><rect class="cls-21" x="51.69" y="14.36" width="0.25" height="23.34"/><rect class="cls-22" x="51.95" y="14.36" width="0.25" height="23.34"/><rect class="cls-23" x="52.2" y="14.36" width="0.25" height="23.34"/><rect class="cls-24" x="52.45" y="14.36" width="0.25" height="23.34"/><rect class="cls-25" x="52.7" y="14.36" width="0.25" height="23.34"/><rect class="cls-26" x="52.96" y="14.36" width="0.25" height="23.34"/><rect class="cls-27" x="53.21" y="14.36" width="0.25" height="23.34"/><rect class="cls-28" x="53.46" y="14.36" width="0.25" height="23.34"/><rect class="cls-29" x="53.72" y="14.36" width="0.25" height="23.34"/><rect class="cls-30" x="53.97" y="14.36" width="0.25" height="23.34"/><rect class="cls-31" x="54.22" y="14.36" width="0.25" height="23.34"/><rect class="cls-32" x="54.47" y="14.36" width="0.25" height="23.34"/><rect class="cls-33" x="54.73" y="14.36" width="0.25" height="23.34"/><rect class="cls-34" x="54.98" y="14.36" width="0.25" height="23.34"/><rect class="cls-35" x="55.23" y="14.36" width="0.25" height="23.34"/><rect class="cls-36" x="55.48" y="14.36" width="0.25" height="23.34"/><rect class="cls-37" x="55.74" y="14.36" width="0.25" height="23.34"/><rect class="cls-38" x="55.99" y="14.36" width="0.25" height="23.34"/><rect class="cls-39" x="56.24" y="14.36" width="0.25" height="23.34"/><rect class="cls-40" x="56.5" y="14.36" width="0.25" height="23.34"/><rect class="cls-41" x="56.75" y="14.36" width="0.25" height="23.34"/><rect class="cls-42" x="57" y="14.36" width="0.25" height="23.34"/><rect class="cls-43" x="57.25" y="14.36" width="0.25" height="23.34"/><rect class="cls-44" x="57.51" y="14.36" width="0.25" height="23.34"/><rect class="cls-45" x="57.76" y="14.36" width="0.25" height="23.34"/><rect class="cls-46" x="58.01" y="14.36" width="0.25" height="23.34"/><rect class="cls-47" x="58.26" y="14.36" width="0.25" height="23.34"/><rect class="cls-48" x="58.52" y="14.36" width="0.25" height="23.34"/><rect class="cls-49" x="58.77" y="14.36" width="0.25" height="23.34"/><rect class="cls-50" x="59.02" y="14.36" width="0.25" height="23.34"/><rect class="cls-51" x="59.28" y="14.36" width="0.25" height="23.34"/><rect class="cls-52" x="59.53" y="14.36" width="0.25" height="23.34"/><rect class="cls-53" x="59.78" y="14.36" width="0.25" height="23.34"/><rect class="cls-54" x="60.03" y="14.36" width="0.25" height="23.34"/><rect class="cls-55" x="60.29" y="14.36" width="0.25" height="23.34"/><rect class="cls-56" x="60.54" y="14.36" width="0.25" height="23.34"/><rect class="cls-57" x="60.79" y="14.36" width="0.25" height="23.34"/><rect class="cls-58" x="61.04" y="14.36" width="0.25" height="23.34"/><rect class="cls-59" x="61.3" y="14.36" width="0.25" height="23.34"/><rect class="cls-60" x="61.55" y="14.36" width="0.25" height="23.34"/><rect class="cls-61" x="61.8" y="14.36" width="0.25" height="23.34"/><rect class="cls-62" x="62.06" y="14.36" width="0.25" height="23.34"/><rect class="cls-63" x="62.31" y="14.36" width="0.25" height="23.34"/><rect class="cls-64" x="62.56" y="14.36" width="0.25" height="23.34"/><rect class="cls-65" x="62.81" y="14.36" width="0.25" height="23.34"/><rect class="cls-66" x="63.07" y="14.36" width="0.25" height="23.34"/><rect class="cls-67" x="63.32" y="14.36" width="0.25" height="23.34"/><rect class="cls-68" x="63.57" y="14.36" width="0.25" height="23.34"/><rect class="cls-69" x="63.82" y="14.36" width="0.25" height="23.34"/><rect class="cls-70" x="64.08" y="14.36" width="0.25" height="23.34"/><rect class="cls-71" x="64.33" y="14.36" width="0.25" height="23.34"/><rect class="cls-72" x="64.58" y="14.36" width="0.25" height="23.34"/><rect class="cls-73" x="64.84" y="14.36" width="0.25" height="23.34"/><rect class="cls-74" x="65.09" y="14.36" width="0.25" height="23.34"/><rect class="cls-75" x="65.34" y="14.36" width="0.25" height="23.34"/><rect class="cls-76" x="65.59" y="14.36" width="0.25" height="23.34"/><rect class="cls-77" x="65.85" y="14.36" width="0.25" height="23.34"/><rect class="cls-78" x="66.1" y="14.36" width="0.25" height="23.34"/><rect class="cls-79" x="66.35" y="14.36" width="0.25" height="23.34"/><rect class="cls-89" x="66.6" y="14.36" width="0.25" height="23.34"/><rect class="cls-90" x="66.86" y="14.36" width="0.25" height="23.34"/><rect class="cls-91" x="67.11" y="14.36" width="0.25" height="23.34"/><rect class="cls-92" x="67.36" y="14.36" width="0.25" height="23.34"/><rect class="cls-93" x="67.62" y="14.36" width="0.25" height="23.34"/><rect class="cls-94" x="67.87" y="14.36" width="0.25" height="23.34"/><rect class="cls-95" x="68.12" y="14.36" width="0.25" height="23.34"/><rect class="cls-96" x="68.37" y="14.36" width="0.25" height="23.34"/><rect class="cls-97" x="68.63" y="14.36" width="0.25" height="23.34"/><rect class="cls-98" x="68.88" y="14.36" width="0.25" height="23.34"/><rect class="cls-99" x="69.13" y="14.36" width="0.25" height="23.34"/><rect class="cls-100" x="69.38" y="14.36" width="0.25" height="23.34"/><rect class="cls-101" x="69.64" y="14.36" width="0.25" height="23.34"/><rect class="cls-101" x="69.89" y="14.36" width="0.08" height="23.34"/></g></g></g></svg>