<svg xmlns="http://www.w3.org/2000/svg" xmlns:xlink="http://www.w3.org/1999/xlink" viewBox="0 0 66.3 51.89"><defs><style>.cls-1{opacity:0.1;}.cls-2{fill:#091011;}.cls-3{fill:#fff;}.cls-4{fill:url(#Gradiente_sem_nome_45);}</style><linearGradient id="Gradiente_sem_nome_45" x1="23.72" y1="17.23" x2="42.58" y2="17.23" gradientUnits="userSpaceOnUse"><stop offset="0" stop-color="#87eb8f"/><stop offset="1" stop-color="#5d9ef0"/></linearGradient></defs><title>BT_DARK_COMPACT</title><g id="Camada_2" data-name="Camada 2"><g id="Layer_10" data-name="Layer 10"><g class="cls-1"><rect class="cls-2" width="66.3" height="51.89" rx="8.41"/></g><path class="cls-3" d="M19,41.58V31.52h3a4.67,4.67,0,0,1,2.36.59,4,4,0,0,1,1.6,1.69,5.3,5.3,0,0,1,.57,2.5v.5a5.32,5.32,0,0,1-.57,2.52A4,4,0,0,1,24.31,41a4.93,4.93,0,0,1-2.42.59Zm1.75-8.65v7.25h1.14A2.61,2.61,0,0,0,24,39.32a3.75,3.75,0,0,0,.75-2.47v-.56a3.82,3.82,0,0,0-.72-2.5A2.49,2.49,0,0,0,22,32.93Z"/><path class="cls-3" d="M32.55,41.58a2.51,2.51,0,0,1-.2-.7,2.6,2.6,0,0,1-2,.84,2.65,2.65,0,0,1-1.84-.65,2,2,0,0,1-.71-1.59,2.13,2.13,0,0,1,.89-1.83A4.27,4.27,0,0,1,31.27,37h1v-.49A1.18,1.18,0,0,0,31,35.24a1.46,1.46,0,0,0-.93.29.87.87,0,0,0-.37.73H28a1.86,1.86,0,0,1,.41-1.15,2.65,2.65,0,0,1,1.11-.84A3.75,3.75,0,0,1,31.08,34a3.16,3.16,0,0,1,2.1.66,2.38,2.38,0,0,1,.8,1.86v3.37a3.81,3.81,0,0,0,.28,1.61v.12ZM30.7,40.37a1.93,1.93,0,0,0,.94-.24,1.65,1.65,0,0,0,.66-.65V38.07h-.91a2.52,2.52,0,0,0-1.4.32,1.07,1.07,0,0,0-.47.92,1,1,0,0,0,.32.77A1.26,1.26,0,0,0,30.7,40.37Z"/><path class="cls-3" d="M39.65,35.64a3.82,3.82,0,0,0-.68-.06,1.56,1.56,0,0,0-1.56.88v5.12H35.73V34.1h1.61l0,.84a1.88,1.88,0,0,1,1.68-1,1.71,1.71,0,0,1,.6.1Z"/><path class="cls-3" d="M43.14,38.37l-.75.77v2.44H40.71V31h1.68v6.13l.53-.66L45,34.1h2l-2.78,3.12,3.08,4.36H45.36Z"/><path class="cls-4" d="M33.77,26.18c-5.36,0-10.05-4.5-10.05-9.64,0-4.94,4.91-8,5.12-8.13a.84.84,0,0,1,.95,0,.87.87,0,0,1,.37.89s-1,5.88,1.61,8.51c2.09,2.09,7.73,1.37,9.73.92a.88.88,0,0,1,.89.31.89.89,0,0,1,.1.94C42.36,20.26,39.33,26.18,33.77,26.18Zm-5.56-15a7.76,7.76,0,0,0-2.73,5.4c0,4.2,3.87,7.88,8.29,7.88,2.84,0,4.94-2.08,6.1-3.61-2.62.33-7.11.5-9.34-1.73S28.12,13.4,28.21,11.14Z"/></g></g></svg>