<svg xmlns="http://www.w3.org/2000/svg" xmlns:xlink="http://www.w3.org/1999/xlink" viewBox="0 0 66.3 51.89"><defs><style>.cls-1{fill:#091011;}.cls-2{fill:#fff;}.cls-3{fill:url(#Gradiente_sem_nome_45);}.cls-4{fill:url(#Gradiente_sem_nome_45-2);}.cls-5{fill:url(#Gradiente_sem_nome_45-3);}.cls-6{fill:url(#Gradiente_sem_nome_45-4);}.cls-7{fill:url(#Gradiente_sem_nome_45-5);}.cls-8{fill:url(#Gradiente_sem_nome_45-6);}.cls-9{fill:url(#Gradiente_sem_nome_45-7);}.cls-10{fill:url(#Gradiente_sem_nome_45-8);}</style><linearGradient id="Gradiente_sem_nome_45" x1="32.19" y1="9.34" x2="34.11" y2="9.34" gradientUnits="userSpaceOnUse"><stop offset="0" stop-color="#87eb8f"/><stop offset="1" stop-color="#5d9ef0"/></linearGradient><linearGradient id="Gradiente_sem_nome_45-2" x1="32.19" y1="25.05" x2="34.11" y2="25.05" xlink:href="#Gradiente_sem_nome_45"/><linearGradient id="Gradiente_sem_nome_45-3" x1="8512.98" y1="-6407.31" x2="8514.9" y2="-6407.31" gradientTransform="translate(6432.6 8531.14) rotate(-90)" xlink:href="#Gradiente_sem_nome_45"/><linearGradient id="Gradiente_sem_nome_45-4" x1="8512.98" y1="-6391.6" x2="8514.9" y2="-6391.6" gradientTransform="translate(6432.6 8531.14) rotate(-90)" xlink:href="#Gradiente_sem_nome_45"/><linearGradient id="Gradiente_sem_nome_45-5" x1="13477.74" y1="-3495.84" x2="13479.65" y2="-3495.84" gradientTransform="translate(3523.44 13501.45) rotate(-90)" xlink:href="#Gradiente_sem_nome_45"/><linearGradient id="Gradiente_sem_nome_45-6" x1="13477.74" y1="-3480.13" x2="13479.65" y2="-3480.13" gradientTransform="translate(3523.69 13489.08) rotate(-90.02)" xlink:href="#Gradiente_sem_nome_45"/><linearGradient id="Gradiente_sem_nome_45-7" x1="12018.17" y1="7038.24" x2="12020.08" y2="7038.24" gradientTransform="translate(12057.83 7060.99) rotate(180)" xlink:href="#Gradiente_sem_nome_45"/><linearGradient id="Gradiente_sem_nome_45-8" x1="12018.17" y1="7053.95" x2="12020.08" y2="7053.95" gradientTransform="translate(12046.02 7066.79) rotate(-179.99)" xlink:href="#Gradiente_sem_nome_45"/></defs><title>BT_LIGHT_COMPACT</title><g id="Camada_2" data-name="Camada 2"><g id="Layer_10" data-name="Layer 10"><rect class="cls-1" width="66.3" height="51.89" rx="8.41"/><path class="cls-2" d="M19.67,40.19h4.57v1.39H17.92V31.52h1.75Z"/><path class="cls-2" d="M25.42,32.16a.91.91,0,0,1,.24-.64,1.12,1.12,0,0,1,1.41,0,.87.87,0,0,1,.25.64.86.86,0,0,1-.25.64,1.12,1.12,0,0,1-1.41,0A.89.89,0,0,1,25.42,32.16Zm1.78,9.42H25.52V34.1H27.2Z"/><path class="cls-2" d="M28.74,37.79A4.4,4.4,0,0,1,29.55,35a2.63,2.63,0,0,1,2.18-1,2.45,2.45,0,0,1,2,.89l.07-.76h1.52v7.25a3,3,0,0,1-.92,2.33,3.51,3.51,0,0,1-2.47.84,3.9,3.9,0,0,1-1.6-.34,2.8,2.8,0,0,1-1.2-.89l.8-1a2.4,2.4,0,0,0,1.91.92,1.89,1.89,0,0,0,1.32-.45,1.76,1.76,0,0,0,.48-1.33v-.51a2.47,2.47,0,0,1-1.94.81,2.62,2.62,0,0,1-2.14-1A4.5,4.5,0,0,1,28.74,37.79Zm1.67.14a3,3,0,0,0,.46,1.78,1.46,1.46,0,0,0,1.27.64,1.62,1.62,0,0,0,1.51-.87V36.19a1.61,1.61,0,0,0-1.49-.85,1.47,1.47,0,0,0-1.29.66A3.33,3.33,0,0,0,30.41,37.93Z"/><path class="cls-2" d="M38.71,34.92a2.6,2.6,0,0,1,2.08-1c1.59,0,2.4.91,2.42,2.73v4.88H41.53V36.76a1.51,1.51,0,0,0-.33-1.1,1.4,1.4,0,0,0-1-.32,1.61,1.61,0,0,0-1.5.9v5.34H37V31h1.68Z"/><path class="cls-2" d="M47,32.29V34.1h1.32v1.25H47v4.17a.94.94,0,0,0,.17.62.78.78,0,0,0,.61.19,2.3,2.3,0,0,0,.58-.07v1.3a4,4,0,0,1-1.1.16c-1.29,0-1.94-.71-1.94-2.14V35.35H44.1V34.1h1.23V32.29Z"/><circle class="cls-2" cx="33.32" cy="17.28" r="5.13"/><rect class="cls-3" x="32.19" y="7.61" width="1.92" height="3.47"/><rect class="cls-4" x="32.19" y="23.32" width="1.92" height="3.47"/><rect class="cls-5" x="23.56" y="16.24" width="3.47" height="1.92"/><rect class="cls-6" x="39.27" y="16.24" width="3.47" height="1.92"/><rect class="cls-7" x="25.86" y="21.79" width="3.47" height="1.92" transform="translate(-8.01 26.17) rotate(-45)"/><rect class="cls-8" x="36.97" y="10.68" width="3.47" height="1.91" transform="translate(3.1 30.76) rotate(-44.98)"/><rect class="cls-9" x="37.75" y="21.02" width="1.92" height="3.47" transform="translate(-4.75 34.03) rotate(-45)"/><rect class="cls-10" x="26.64" y="9.91" width="1.91" height="3.47" transform="translate(-0.15 22.92) rotate(-45.01)"/></g></g></svg>