<svg xmlns="http://www.w3.org/2000/svg" xmlns:xlink="http://www.w3.org/1999/xlink" viewBox="0 0 180.11 52.04"><defs><style>.cls-1{fill:none;}.cls-2{fill:#091011;}.cls-3{fill:#fff;}.cls-4{clip-path:url(#clip-path);}.cls-5{fill:#87eb8f;}.cls-6{fill:#87ea90;}.cls-7{fill:#86e991;}.cls-8{fill:#86e992;}.cls-9{fill:#85e893;}.cls-10{fill:#85e794;}.cls-11{fill:#84e695;}.cls-12{fill:#84e596;}.cls-13{fill:#84e597;}.cls-14{fill:#83e498;}.cls-15{fill:#83e399;}.cls-16{fill:#82e29a;}.cls-17{fill:#82e19b;}.cls-18{fill:#81e19c;}.cls-19{fill:#81e09d;}.cls-20{fill:#80df9e;}.cls-21{fill:#80de9f;}.cls-22{fill:#80dda0;}.cls-23{fill:#7fdda1;}.cls-24{fill:#7fdca2;}.cls-25{fill:#7edba3;}.cls-26{fill:#7edaa4;}.cls-27{fill:#7dd9a5;}.cls-28{fill:#7dd9a6;}.cls-29{fill:#7dd8a7;}.cls-30{fill:#7cd7a8;}.cls-31{fill:#7cd6a9;}.cls-32{fill:#7bd5aa;}.cls-33{fill:#7bd5ab;}.cls-34{fill:#7ad4ac;}.cls-35{fill:#7ad3ad;}.cls-36{fill:#79d2ae;}.cls-37{fill:#79d1af;}.cls-38{fill:#79d1b0;}.cls-39{fill:#78d0b1;}.cls-40{fill:#78cfb2;}.cls-41{fill:#77ceb3;}.cls-42{fill:#77cdb4;}.cls-43{fill:#76cdb5;}.cls-44{fill:#76ccb6;}.cls-45{fill:#76cbb7;}.cls-46{fill:#75cab8;}.cls-47{fill:#75c9b9;}.cls-48{fill:#74c9ba;}.cls-49{fill:#74c8bb;}.cls-50{fill:#73c7bc;}.cls-51{fill:#73c6bd;}.cls-52{fill:#72c5be;}.cls-53{fill:#72c5c0;}.cls-54{fill:#72c4c1;}.cls-55{fill:#71c3c2;}.cls-56{fill:#71c2c3;}.cls-57{fill:#70c1c4;}.cls-58{fill:#70c0c5;}.cls-59{fill:#6fc0c6;}.cls-60{fill:#6fbfc7;}.cls-61{fill:#6fbec8;}.cls-62{fill:#6ebdc9;}.cls-63{fill:#6ebcca;}.cls-64{fill:#6dbccb;}.cls-65{fill:#6dbbcc;}.cls-66{fill:#6cbacd;}.cls-67{fill:#6cb9ce;}.cls-68{fill:#6bb8cf;}.cls-69{fill:#6bb8d0;}.cls-70{fill:#6bb7d1;}.cls-71{fill:#6ab6d2;}.cls-72{fill:#6ab5d3;}.cls-73{fill:#69b4d4;}.cls-74{fill:#69b4d5;}.cls-75{fill:#68b3d6;}.cls-76{fill:#68b2d7;}.cls-77{fill:#68b1d8;}.cls-78{fill:#67b0d9;}.cls-79{fill:#67b0da;}.cls-80{fill:#66afdb;}.cls-81{fill:#66aedc;}.cls-82{fill:#65addd;}.cls-83{fill:#65acde;}.cls-84{fill:#64acdf;}.cls-85{fill:#64abe0;}.cls-86{fill:#64aae1;}.cls-87{fill:#63a9e2;}.cls-88{fill:#63a8e3;}.cls-89{fill:#62a8e4;}.cls-90{fill:#62a7e5;}.cls-91{fill:#61a6e6;}.cls-92{fill:#61a5e7;}.cls-93{fill:#61a4e8;}.cls-94{fill:#60a4e9;}.cls-95{fill:#60a3ea;}.cls-96{fill:#5fa2eb;}.cls-97{fill:#5fa1ec;}.cls-98{fill:#5ea0ed;}.cls-99{fill:#5ea0ee;}.cls-100{fill:#5d9fef;}.cls-101{fill:#5d9ef0;}.cls-102{clip-path:url(#clip-path-2);}.cls-103{clip-path:url(#clip-path-3);}.cls-104{clip-path:url(#clip-path-4);}.cls-105{clip-path:url(#clip-path-5);}.cls-106{clip-path:url(#clip-path-6);}.cls-107{clip-path:url(#clip-path-7);}.cls-108{clip-path:url(#clip-path-8);}</style><clipPath id="clip-path"><rect class="cls-1" x="53.42" y="13.16" width="2.78" height="5.04"/></clipPath><clipPath id="clip-path-2"><rect class="cls-1" x="53.42" y="36" width="2.78" height="5.04"/></clipPath><clipPath id="clip-path-3"><rect class="cls-1" x="40.87" y="25.71" width="5.04" height="2.78"/></clipPath><clipPath id="clip-path-4"><rect class="cls-1" x="63.71" y="25.71" width="5.04" height="2.78"/></clipPath><clipPath id="clip-path-5"><rect class="cls-1" x="44.21" y="33.79" width="5.04" height="2.78" transform="translate(-11.19 43.35) rotate(-45)"/></clipPath><clipPath id="clip-path-6"><rect class="cls-1" x="60.36" y="17.63" width="5.04" height="2.78" transform="translate(4.96 50.04) rotate(-45)"/></clipPath><clipPath id="clip-path-7"><rect class="cls-1" x="61.49" y="32.66" width="2.78" height="5.04" transform="translate(-6.46 54.77) rotate(-45)"/></clipPath><clipPath id="clip-path-8"><rect class="cls-1" x="45.34" y="16.51" width="2.78" height="5.04" transform="translate(0.23 38.62) rotate(-45)"/></clipPath></defs><title>BT_LIGHT_EXPANDED</title><g id="Camada_2" data-name="Camada 2"><g id="Layer_10" data-name="Layer 10"><rect class="cls-2" width="180.11" height="52.04" rx="8.41"/><path class="cls-3" d="M85.21,31.83h6.64v2H82.67V19.23h2.54Z"/><path class="cls-3" d="M93.57,20.16a1.29,1.29,0,0,1,.36-.93,1.59,1.59,0,0,1,2,0,1.29,1.29,0,0,1,.36.93,1.25,1.25,0,0,1-.36.92,1.59,1.59,0,0,1-2,0A1.25,1.25,0,0,1,93.57,20.16Zm2.59,13.7H93.72V23h2.44Z"/><path class="cls-3" d="M98.39,28.34a6.37,6.37,0,0,1,1.19-4,3.83,3.83,0,0,1,3.16-1.51,3.6,3.6,0,0,1,2.93,1.29l.11-1.09H108V33.52a4.41,4.41,0,0,1-1.33,3.38,5.11,5.11,0,0,1-3.6,1.23,5.8,5.8,0,0,1-2.33-.49A4.14,4.14,0,0,1,99,36.34l1.15-1.47a3.5,3.5,0,0,0,2.77,1.34,2.7,2.7,0,0,0,1.92-.66,2.52,2.52,0,0,0,.7-1.94v-.73a3.6,3.6,0,0,1-2.81,1.18,3.83,3.83,0,0,1-3.12-1.52A6.6,6.6,0,0,1,98.39,28.34Zm2.43.21a4.44,4.44,0,0,0,.67,2.58,2.18,2.18,0,0,0,1.86.94,2.33,2.33,0,0,0,2.18-1.27V26a2.31,2.31,0,0,0-2.16-1.24,2.16,2.16,0,0,0-1.88,1A4.94,4.94,0,0,0,100.82,28.55Z"/><path class="cls-3" d="M112.89,24.17a3.82,3.82,0,0,1,3-1.38c2.32,0,3.49,1.32,3.53,4v7.11H117v-7a2.16,2.16,0,0,0-.49-1.59,2,2,0,0,0-1.43-.47,2.35,2.35,0,0,0-2.19,1.31v7.77h-2.44V18.43h2.44Z"/><path class="cls-3" d="M125,20.34V23h1.92V24.8H125v6.06a1.29,1.29,0,0,0,.25.9,1.12,1.12,0,0,0,.88.28,4.19,4.19,0,0,0,.85-.1v1.89a6.14,6.14,0,0,1-1.61.23c-1.87,0-2.81-1-2.81-3.11V24.8h-1.79V23h1.79V20.34Z"/><circle class="cls-3" cx="55.06" cy="27.23" r="7.46"/><g class="cls-4"><path class="cls-5" d="M53.42,13.16v0Z"/><rect class="cls-5" x="53.42" y="13.16" width="0.03" height="5.04"/><rect class="cls-6" x="53.45" y="13.16" width="0.03" height="5.04"/><rect class="cls-7" x="53.47" y="13.16" width="0.03" height="5.04"/><rect class="cls-8" x="53.5" y="13.16" width="0.03" height="5.04"/><rect class="cls-9" x="53.53" y="13.16" width="0.03" height="5.04"/><rect class="cls-10" x="53.56" y="13.16" width="0.03" height="5.04"/><rect class="cls-11" x="53.59" y="13.16" width="0.03" height="5.04"/><rect class="cls-12" x="53.62" y="13.16" width="0.03" height="5.04"/><rect class="cls-13" x="53.65" y="13.16" width="0.03" height="5.04"/><rect class="cls-14" x="53.68" y="13.16" width="0.03" height="5.04"/><rect class="cls-15" x="53.7" y="13.16" width="0.03" height="5.04"/><rect class="cls-16" x="53.73" y="13.16" width="0.03" height="5.04"/><rect class="cls-17" x="53.76" y="13.16" width="0.03" height="5.04"/><rect class="cls-18" x="53.79" y="13.16" width="0.03" height="5.04"/><rect class="cls-19" x="53.82" y="13.16" width="0.03" height="5.04"/><rect class="cls-20" x="53.85" y="13.16" width="0.03" height="5.04"/><rect class="cls-21" x="53.88" y="13.16" width="0.03" height="5.04"/><rect class="cls-22" x="53.91" y="13.16" width="0.03" height="5.04"/><rect class="cls-23" x="53.93" y="13.16" width="0.03" height="5.04"/><rect class="cls-24" x="53.96" y="13.16" width="0.03" height="5.04"/><rect class="cls-25" x="53.99" y="13.16" width="0.03" height="5.04"/><rect class="cls-26" x="54.02" y="13.16" width="0.03" height="5.04"/><rect class="cls-27" x="54.05" y="13.16" width="0.03" height="5.04"/><rect class="cls-28" x="54.08" y="13.16" width="0.03" height="5.04"/><rect class="cls-29" x="54.11" y="13.16" width="0.03" height="5.04"/><rect class="cls-30" x="54.13" y="13.16" width="0.03" height="5.04"/><rect class="cls-31" x="54.16" y="13.16" width="0.03" height="5.04"/><rect class="cls-32" x="54.19" y="13.16" width="0.03" height="5.04"/><rect class="cls-33" x="54.22" y="13.16" width="0.03" height="5.04"/><rect class="cls-34" x="54.25" y="13.16" width="0.03" height="5.04"/><rect class="cls-35" x="54.28" y="13.16" width="0.03" height="5.04"/><rect class="cls-36" x="54.31" y="13.16" width="0.03" height="5.04"/><rect class="cls-37" x="54.34" y="13.16" width="0.03" height="5.04"/><rect class="cls-38" x="54.36" y="13.16" width="0.03" height="5.04"/><rect class="cls-39" x="54.39" y="13.16" width="0.03" height="5.04"/><rect class="cls-40" x="54.42" y="13.16" width="0.03" height="5.04"/><rect class="cls-41" x="54.45" y="13.16" width="0.03" height="5.04"/><rect class="cls-42" x="54.48" y="13.16" width="0.03" height="5.04"/><rect class="cls-43" x="54.51" y="13.16" width="0.03" height="5.04"/><rect class="cls-44" x="54.54" y="13.16" width="0.03" height="5.04"/><rect class="cls-45" x="54.57" y="13.16" width="0.03" height="5.04"/><rect class="cls-46" x="54.59" y="13.16" width="0.03" height="5.04"/><rect class="cls-47" x="54.62" y="13.16" width="0.03" height="5.04"/><rect class="cls-48" x="54.65" y="13.16" width="0.03" height="5.04"/><rect class="cls-49" x="54.68" y="13.16" width="0.03" height="5.04"/><rect class="cls-50" x="54.71" y="13.16" width="0.03" height="5.04"/><rect class="cls-51" x="54.74" y="13.16" width="0.03" height="5.04"/><rect class="cls-52" x="54.77" y="13.16" width="0.03" height="5.04"/><rect class="cls-53" x="54.8" y="13.16" width="0.03" height="5.04"/><rect class="cls-54" x="54.82" y="13.16" width="0.03" height="5.04"/><rect class="cls-55" x="54.85" y="13.16" width="0.03" height="5.04"/><rect class="cls-56" x="54.88" y="13.16" width="0.03" height="5.04"/><rect class="cls-57" x="54.91" y="13.16" width="0.03" height="5.04"/><rect class="cls-58" x="54.94" y="13.16" width="0.03" height="5.04"/><rect class="cls-59" x="54.97" y="13.16" width="0.03" height="5.04"/><rect class="cls-60" x="55" y="13.16" width="0.03" height="5.04"/><rect class="cls-61" x="55.02" y="13.16" width="0.03" height="5.04"/><rect class="cls-62" x="55.05" y="13.16" width="0.03" height="5.04"/><rect class="cls-63" x="55.08" y="13.16" width="0.03" height="5.04"/><rect class="cls-64" x="55.11" y="13.16" width="0.03" height="5.04"/><rect class="cls-65" x="55.14" y="13.16" width="0.03" height="5.04"/><rect class="cls-66" x="55.17" y="13.16" width="0.03" height="5.04"/><rect class="cls-67" x="55.2" y="13.16" width="0.03" height="5.04"/><rect class="cls-68" x="55.23" y="13.16" width="0.03" height="5.04"/><rect class="cls-69" x="55.25" y="13.16" width="0.03" height="5.04"/><rect class="cls-70" x="55.28" y="13.16" width="0.03" height="5.04"/><rect class="cls-71" x="55.31" y="13.16" width="0.03" height="5.04"/><rect class="cls-72" x="55.34" y="13.16" width="0.03" height="5.04"/><rect class="cls-73" x="55.37" y="13.16" width="0.03" height="5.04"/><rect class="cls-74" x="55.4" y="13.16" width="0.03" height="5.04"/><rect class="cls-75" x="55.43" y="13.16" width="0.03" height="5.04"/><rect class="cls-76" x="55.46" y="13.16" width="0.03" height="5.04"/><rect class="cls-77" x="55.48" y="13.16" width="0.03" height="5.04"/><rect class="cls-78" x="55.51" y="13.16" width="0.03" height="5.04"/><rect class="cls-79" x="55.54" y="13.16" width="0.03" height="5.04"/><rect class="cls-80" x="55.57" y="13.16" width="0.03" height="5.04"/><rect class="cls-81" x="55.6" y="13.16" width="0.03" height="5.04"/><rect class="cls-82" x="55.63" y="13.16" width="0.03" height="5.04"/><rect class="cls-83" x="55.66" y="13.16" width="0.03" height="5.04"/><rect class="cls-84" x="55.68" y="13.16" width="0.03" height="5.04"/><rect class="cls-85" x="55.71" y="13.16" width="0.03" height="5.04"/><rect class="cls-86" x="55.74" y="13.16" width="0.03" height="5.04"/><rect class="cls-87" x="55.77" y="13.16" width="0.03" height="5.04"/><rect class="cls-88" x="55.8" y="13.16" width="0.03" height="5.04"/><rect class="cls-89" x="55.83" y="13.16" width="0.03" height="5.04"/><rect class="cls-90" x="55.86" y="13.16" width="0.03" height="5.04"/><rect class="cls-91" x="55.89" y="13.16" width="0.03" height="5.04"/><rect class="cls-92" x="55.91" y="13.16" width="0.03" height="5.04"/><rect class="cls-93" x="55.94" y="13.16" width="0.03" height="5.04"/><rect class="cls-94" x="55.97" y="13.16" width="0.03" height="5.04"/><rect class="cls-95" x="56" y="13.16" width="0.03" height="5.04"/><rect class="cls-96" x="56.03" y="13.16" width="0.03" height="5.04"/><rect class="cls-97" x="56.06" y="13.16" width="0.03" height="5.04"/><rect class="cls-98" x="56.09" y="13.16" width="0.03" height="5.04"/><rect class="cls-99" x="56.12" y="13.16" width="0.03" height="5.04"/><rect class="cls-100" x="56.14" y="13.16" width="0.03" height="5.04"/><rect class="cls-101" x="56.17" y="13.16" width="0.03" height="5.04"/><path class="cls-101" d="M56.2,18.2v0Z"/></g><g class="cls-102"><path class="cls-5" d="M53.42,36v0Z"/><rect class="cls-5" x="53.42" y="36" width="0.03" height="5.04"/><rect class="cls-6" x="53.45" y="36" width="0.03" height="5.04"/><rect class="cls-7" x="53.47" y="36" width="0.03" height="5.04"/><rect class="cls-8" x="53.5" y="36" width="0.03" height="5.04"/><rect class="cls-9" x="53.53" y="36" width="0.03" height="5.04"/><rect class="cls-10" x="53.56" y="36" width="0.03" height="5.04"/><rect class="cls-11" x="53.59" y="36" width="0.03" height="5.04"/><rect class="cls-12" x="53.62" y="36" width="0.03" height="5.04"/><rect class="cls-13" x="53.65" y="36" width="0.03" height="5.04"/><rect class="cls-14" x="53.68" y="36" width="0.03" height="5.04"/><rect class="cls-15" x="53.7" y="36" width="0.03" height="5.04"/><rect class="cls-16" x="53.73" y="36" width="0.03" height="5.04"/><rect class="cls-17" x="53.76" y="36" width="0.03" height="5.04"/><rect class="cls-18" x="53.79" y="36" width="0.03" height="5.04"/><rect class="cls-19" x="53.82" y="36" width="0.03" height="5.04"/><rect class="cls-20" x="53.85" y="36" width="0.03" height="5.04"/><rect class="cls-21" x="53.88" y="36" width="0.03" height="5.04"/><rect class="cls-22" x="53.91" y="36" width="0.03" height="5.04"/><rect class="cls-23" x="53.93" y="36" width="0.03" height="5.04"/><rect class="cls-24" x="53.96" y="36" width="0.03" height="5.04"/><rect class="cls-25" x="53.99" y="36" width="0.03" height="5.04"/><rect class="cls-26" x="54.02" y="36" width="0.03" height="5.04"/><rect class="cls-27" x="54.05" y="36" width="0.03" height="5.04"/><rect class="cls-28" x="54.08" y="36" width="0.03" height="5.04"/><rect class="cls-29" x="54.11" y="36" width="0.03" height="5.04"/><rect class="cls-30" x="54.13" y="36" width="0.03" height="5.04"/><rect class="cls-31" x="54.16" y="36" width="0.03" height="5.04"/><rect class="cls-32" x="54.19" y="36" width="0.03" height="5.04"/><rect class="cls-33" x="54.22" y="36" width="0.03" height="5.04"/><rect class="cls-34" x="54.25" y="36" width="0.03" height="5.04"/><rect class="cls-35" x="54.28" y="36" width="0.03" height="5.04"/><rect class="cls-36" x="54.31" y="36" width="0.03" height="5.04"/><rect class="cls-37" x="54.34" y="36" width="0.03" height="5.04"/><rect class="cls-38" x="54.36" y="36" width="0.03" height="5.04"/><rect class="cls-39" x="54.39" y="36" width="0.03" height="5.04"/><rect class="cls-40" x="54.42" y="36" width="0.03" height="5.04"/><rect class="cls-41" x="54.45" y="36" width="0.03" height="5.04"/><rect class="cls-42" x="54.48" y="36" width="0.03" height="5.04"/><rect class="cls-43" x="54.51" y="36" width="0.03" height="5.04"/><rect class="cls-44" x="54.54" y="36" width="0.03" height="5.04"/><rect class="cls-45" x="54.57" y="36" width="0.03" height="5.04"/><rect class="cls-46" x="54.59" y="36" width="0.03" height="5.04"/><rect class="cls-47" x="54.62" y="36" width="0.03" height="5.04"/><rect class="cls-48" x="54.65" y="36" width="0.03" height="5.04"/><rect class="cls-49" x="54.68" y="36" width="0.03" height="5.04"/><rect class="cls-50" x="54.71" y="36" width="0.03" height="5.04"/><rect class="cls-51" x="54.74" y="36" width="0.03" height="5.04"/><rect class="cls-52" x="54.77" y="36" width="0.03" height="5.04"/><rect class="cls-53" x="54.8" y="36" width="0.03" height="5.04"/><rect class="cls-54" x="54.82" y="36" width="0.03" height="5.04"/><rect class="cls-55" x="54.85" y="36" width="0.03" height="5.04"/><rect class="cls-56" x="54.88" y="36" width="0.03" height="5.04"/><rect class="cls-57" x="54.91" y="36" width="0.03" height="5.04"/><rect class="cls-58" x="54.94" y="36" width="0.03" height="5.04"/><rect class="cls-59" x="54.97" y="36" width="0.03" height="5.04"/><rect class="cls-60" x="55" y="36" width="0.03" height="5.04"/><rect class="cls-61" x="55.02" y="36" width="0.03" height="5.04"/><rect class="cls-62" x="55.05" y="36" width="0.03" height="5.04"/><rect class="cls-63" x="55.08" y="36" width="0.03" height="5.04"/><rect class="cls-64" x="55.11" y="36" width="0.03" height="5.04"/><rect class="cls-65" x="55.14" y="36" width="0.03" height="5.04"/><rect class="cls-66" x="55.17" y="36" width="0.03" height="5.04"/><rect class="cls-67" x="55.2" y="36" width="0.03" height="5.04"/><rect class="cls-68" x="55.23" y="36" width="0.03" height="5.04"/><rect class="cls-69" x="55.25" y="36" width="0.03" height="5.04"/><rect class="cls-70" x="55.28" y="36" width="0.03" height="5.04"/><rect class="cls-71" x="55.31" y="36" width="0.03" height="5.04"/><rect class="cls-72" x="55.34" y="36" width="0.03" height="5.04"/><rect class="cls-73" x="55.37" y="36" width="0.03" height="5.04"/><rect class="cls-74" x="55.4" y="36" width="0.03" height="5.04"/><rect class="cls-75" x="55.43" y="36" width="0.03" height="5.04"/><rect class="cls-76" x="55.46" y="36" width="0.03" height="5.04"/><rect class="cls-77" x="55.48" y="36" width="0.03" height="5.04"/><rect class="cls-78" x="55.51" y="36" width="0.03" height="5.04"/><rect class="cls-79" x="55.54" y="36" width="0.03" height="5.04"/><rect class="cls-80" x="55.57" y="36" width="0.03" height="5.04"/><rect class="cls-81" x="55.6" y="36" width="0.03" height="5.04"/><rect class="cls-82" x="55.63" y="36" width="0.03" height="5.04"/><rect class="cls-83" x="55.66" y="36" width="0.03" height="5.04"/><rect class="cls-84" x="55.68" y="36" width="0.03" height="5.04"/><rect class="cls-85" x="55.71" y="36" width="0.03" height="5.04"/><rect class="cls-86" x="55.74" y="36" width="0.03" height="5.04"/><rect class="cls-87" x="55.77" y="36" width="0.03" height="5.04"/><rect class="cls-88" x="55.8" y="36" width="0.03" height="5.04"/><rect class="cls-89" x="55.83" y="36" width="0.03" height="5.04"/><rect class="cls-90" x="55.86" y="36" width="0.03" height="5.04"/><rect class="cls-91" x="55.89" y="36" width="0.03" height="5.04"/><rect class="cls-92" x="55.91" y="36" width="0.03" height="5.04"/><rect class="cls-93" x="55.94" y="36" width="0.03" height="5.04"/><rect class="cls-94" x="55.97" y="36" width="0.03" height="5.04"/><rect class="cls-95" x="56" y="36" width="0.03" height="5.04"/><rect class="cls-96" x="56.03" y="36" width="0.03" height="5.04"/><rect class="cls-97" x="56.06" y="36" width="0.03" height="5.04"/><rect class="cls-98" x="56.09" y="36" width="0.03" height="5.04"/><rect class="cls-99" x="56.12" y="36" width="0.03" height="5.04"/><rect class="cls-100" x="56.14" y="36" width="0.03" height="5.04"/><rect class="cls-101" x="56.17" y="36" width="0.03" height="5.04"/><path class="cls-101" d="M56.2,41v0Z"/></g><g class="cls-103"><path class="cls-5" d="M40.87,28.49h0Z"/><rect class="cls-5" x="40.87" y="28.47" width="5.04" height="0.03"/><rect class="cls-6" x="40.87" y="28.44" width="5.04" height="0.03"/><rect class="cls-7" x="40.87" y="28.41" width="5.04" height="0.03"/><rect class="cls-8" x="40.87" y="28.38" width="5.04" height="0.03"/><rect class="cls-9" x="40.87" y="28.35" width="5.04" height="0.03"/><rect class="cls-10" x="40.87" y="28.32" width="5.04" height="0.03"/><rect class="cls-11" x="40.87" y="28.29" width="5.04" height="0.03"/><rect class="cls-12" x="40.87" y="28.26" width="5.04" height="0.03"/><rect class="cls-13" x="40.87" y="28.24" width="5.04" height="0.03"/><rect class="cls-14" x="40.87" y="28.21" width="5.04" height="0.03"/><rect class="cls-15" x="40.87" y="28.18" width="5.04" height="0.03"/><rect class="cls-16" x="40.87" y="28.15" width="5.04" height="0.03"/><rect class="cls-17" x="40.87" y="28.12" width="5.04" height="0.03"/><rect class="cls-18" x="40.87" y="28.09" width="5.04" height="0.03"/><rect class="cls-19" x="40.87" y="28.06" width="5.04" height="0.03"/><rect class="cls-20" x="40.87" y="28.04" width="5.04" height="0.03"/><rect class="cls-21" x="40.87" y="28.01" width="5.04" height="0.03"/><rect class="cls-22" x="40.87" y="27.98" width="5.04" height="0.03"/><rect class="cls-23" x="40.87" y="27.95" width="5.04" height="0.03"/><rect class="cls-24" x="40.87" y="27.92" width="5.04" height="0.03"/><rect class="cls-25" x="40.87" y="27.89" width="5.04" height="0.03"/><rect class="cls-26" x="40.87" y="27.86" width="5.04" height="0.03"/><rect class="cls-27" x="40.87" y="27.83" width="5.04" height="0.03"/><rect class="cls-28" x="40.87" y="27.81" width="5.04" height="0.03"/><rect class="cls-29" x="40.87" y="27.78" width="5.04" height="0.03"/><rect class="cls-30" x="40.87" y="27.75" width="5.04" height="0.03"/><rect class="cls-31" x="40.87" y="27.72" width="5.04" height="0.03"/><rect class="cls-32" x="40.87" y="27.69" width="5.04" height="0.03"/><rect class="cls-33" x="40.87" y="27.66" width="5.04" height="0.03"/><rect class="cls-34" x="40.87" y="27.63" width="5.04" height="0.03"/><rect class="cls-35" x="40.87" y="27.6" width="5.04" height="0.03"/><rect class="cls-36" x="40.87" y="27.58" width="5.04" height="0.03"/><rect class="cls-37" x="40.87" y="27.55" width="5.04" height="0.03"/><rect class="cls-38" x="40.87" y="27.52" width="5.04" height="0.03"/><rect class="cls-39" x="40.87" y="27.49" width="5.04" height="0.03"/><rect class="cls-40" x="40.87" y="27.46" width="5.04" height="0.03"/><rect class="cls-41" x="40.87" y="27.43" width="5.04" height="0.03"/><rect class="cls-42" x="40.87" y="27.4" width="5.04" height="0.03"/><rect class="cls-43" x="40.87" y="27.37" width="5.04" height="0.03"/><rect class="cls-44" x="40.87" y="27.35" width="5.04" height="0.03"/><rect class="cls-45" x="40.87" y="27.32" width="5.04" height="0.03"/><rect class="cls-46" x="40.87" y="27.29" width="5.04" height="0.03"/><rect class="cls-47" x="40.87" y="27.26" width="5.04" height="0.03"/><rect class="cls-48" x="40.87" y="27.23" width="5.04" height="0.03"/><rect class="cls-49" x="40.87" y="27.2" width="5.04" height="0.03"/><rect class="cls-50" x="40.87" y="27.17" width="5.04" height="0.03"/><rect class="cls-51" x="40.87" y="27.15" width="5.04" height="0.03"/><rect class="cls-52" x="40.87" y="27.12" width="5.04" height="0.03"/><rect class="cls-53" x="40.87" y="27.09" width="5.04" height="0.03"/><rect class="cls-54" x="40.87" y="27.06" width="5.04" height="0.03"/><rect class="cls-55" x="40.87" y="27.03" width="5.04" height="0.03"/><rect class="cls-56" x="40.87" y="27" width="5.04" height="0.03"/><rect class="cls-57" x="40.87" y="26.97" width="5.04" height="0.03"/><rect class="cls-58" x="40.87" y="26.94" width="5.04" height="0.03"/><rect class="cls-59" x="40.87" y="26.92" width="5.04" height="0.03"/><rect class="cls-60" x="40.87" y="26.89" width="5.04" height="0.03"/><rect class="cls-61" x="40.87" y="26.86" width="5.04" height="0.03"/><rect class="cls-62" x="40.87" y="26.83" width="5.04" height="0.03"/><rect class="cls-63" x="40.87" y="26.8" width="5.04" height="0.03"/><rect class="cls-64" x="40.87" y="26.77" width="5.04" height="0.03"/><rect class="cls-65" x="40.87" y="26.74" width="5.04" height="0.03"/><rect class="cls-66" x="40.87" y="26.71" width="5.04" height="0.03"/><rect class="cls-67" x="40.87" y="26.69" width="5.04" height="0.03"/><rect class="cls-68" x="40.87" y="26.66" width="5.04" height="0.03"/><rect class="cls-69" x="40.87" y="26.63" width="5.04" height="0.03"/><rect class="cls-70" x="40.87" y="26.6" width="5.04" height="0.03"/><rect class="cls-71" x="40.87" y="26.57" width="5.04" height="0.03"/><rect class="cls-72" x="40.87" y="26.54" width="5.04" height="0.03"/><rect class="cls-73" x="40.87" y="26.51" width="5.04" height="0.03"/><rect class="cls-74" x="40.87" y="26.49" width="5.04" height="0.03"/><rect class="cls-75" x="40.87" y="26.46" width="5.04" height="0.03"/><rect class="cls-76" x="40.87" y="26.43" width="5.04" height="0.03"/><rect class="cls-77" x="40.87" y="26.4" width="5.04" height="0.03"/><rect class="cls-78" x="40.87" y="26.37" width="5.04" height="0.03"/><rect class="cls-79" x="40.87" y="26.34" width="5.04" height="0.03"/><rect class="cls-80" x="40.87" y="26.31" width="5.04" height="0.03"/><rect class="cls-81" x="40.87" y="26.28" width="5.04" height="0.03"/><rect class="cls-82" x="40.87" y="26.26" width="5.04" height="0.03"/><rect class="cls-83" x="40.87" y="26.23" width="5.04" height="0.03"/><rect class="cls-84" x="40.87" y="26.2" width="5.04" height="0.03"/><rect class="cls-85" x="40.87" y="26.17" width="5.04" height="0.03"/><rect class="cls-86" x="40.87" y="26.14" width="5.04" height="0.03"/><rect class="cls-87" x="40.87" y="26.11" width="5.04" height="0.03"/><rect class="cls-88" x="40.87" y="26.08" width="5.04" height="0.03"/><rect class="cls-89" x="40.87" y="26.05" width="5.04" height="0.03"/><rect class="cls-90" x="40.87" y="26.03" width="5.04" height="0.03"/><rect class="cls-91" x="40.87" y="26" width="5.04" height="0.03"/><rect class="cls-92" x="40.87" y="25.97" width="5.04" height="0.03"/><rect class="cls-93" x="40.87" y="25.94" width="5.04" height="0.03"/><rect class="cls-94" x="40.87" y="25.91" width="5.04" height="0.03"/><rect class="cls-95" x="40.87" y="25.88" width="5.04" height="0.03"/><rect class="cls-96" x="40.87" y="25.85" width="5.04" height="0.03"/><rect class="cls-97" x="40.87" y="25.82" width="5.04" height="0.03"/><rect class="cls-98" x="40.87" y="25.8" width="5.04" height="0.03"/><rect class="cls-99" x="40.87" y="25.77" width="5.04" height="0.03"/><rect class="cls-100" x="40.87" y="25.74" width="5.04" height="0.03"/><rect class="cls-101" x="40.87" y="25.71" width="5.04" height="0.03"/></g><g class="cls-104"><path class="cls-5" d="M63.71,28.49h0Z"/><rect class="cls-5" x="63.71" y="28.47" width="5.04" height="0.03"/><rect class="cls-6" x="63.71" y="28.44" width="5.04" height="0.03"/><rect class="cls-7" x="63.71" y="28.41" width="5.04" height="0.03"/><rect class="cls-8" x="63.71" y="28.38" width="5.04" height="0.03"/><rect class="cls-9" x="63.71" y="28.35" width="5.04" height="0.03"/><rect class="cls-10" x="63.71" y="28.32" width="5.04" height="0.03"/><rect class="cls-11" x="63.71" y="28.29" width="5.04" height="0.03"/><rect class="cls-12" x="63.71" y="28.26" width="5.04" height="0.03"/><rect class="cls-13" x="63.71" y="28.24" width="5.04" height="0.03"/><rect class="cls-14" x="63.71" y="28.21" width="5.04" height="0.03"/><rect class="cls-15" x="63.71" y="28.18" width="5.04" height="0.03"/><rect class="cls-16" x="63.71" y="28.15" width="5.04" height="0.03"/><rect class="cls-17" x="63.71" y="28.12" width="5.04" height="0.03"/><rect class="cls-18" x="63.71" y="28.09" width="5.04" height="0.03"/><rect class="cls-19" x="63.71" y="28.06" width="5.04" height="0.03"/><rect class="cls-20" x="63.71" y="28.04" width="5.04" height="0.03"/><rect class="cls-21" x="63.71" y="28.01" width="5.04" height="0.03"/><rect class="cls-22" x="63.71" y="27.98" width="5.04" height="0.03"/><rect class="cls-23" x="63.71" y="27.95" width="5.04" height="0.03"/><rect class="cls-24" x="63.71" y="27.92" width="5.04" height="0.03"/><rect class="cls-25" x="63.71" y="27.89" width="5.04" height="0.03"/><rect class="cls-26" x="63.71" y="27.86" width="5.04" height="0.03"/><rect class="cls-27" x="63.71" y="27.83" width="5.04" height="0.03"/><rect class="cls-28" x="63.71" y="27.81" width="5.04" height="0.03"/><rect class="cls-29" x="63.71" y="27.78" width="5.04" height="0.03"/><rect class="cls-30" x="63.71" y="27.75" width="5.04" height="0.03"/><rect class="cls-31" x="63.71" y="27.72" width="5.04" height="0.03"/><rect class="cls-32" x="63.71" y="27.69" width="5.04" height="0.03"/><rect class="cls-33" x="63.71" y="27.66" width="5.04" height="0.03"/><rect class="cls-34" x="63.71" y="27.63" width="5.04" height="0.03"/><rect class="cls-35" x="63.71" y="27.6" width="5.04" height="0.03"/><rect class="cls-36" x="63.71" y="27.58" width="5.04" height="0.03"/><rect class="cls-37" x="63.71" y="27.55" width="5.04" height="0.03"/><rect class="cls-38" x="63.71" y="27.52" width="5.04" height="0.03"/><rect class="cls-39" x="63.71" y="27.49" width="5.04" height="0.03"/><rect class="cls-40" x="63.71" y="27.46" width="5.04" height="0.03"/><rect class="cls-41" x="63.71" y="27.43" width="5.04" height="0.03"/><rect class="cls-42" x="63.71" y="27.4" width="5.04" height="0.03"/><rect class="cls-43" x="63.71" y="27.37" width="5.04" height="0.03"/><rect class="cls-44" x="63.71" y="27.35" width="5.04" height="0.03"/><rect class="cls-45" x="63.71" y="27.32" width="5.04" height="0.03"/><rect class="cls-46" x="63.71" y="27.29" width="5.04" height="0.03"/><rect class="cls-47" x="63.71" y="27.26" width="5.04" height="0.03"/><rect class="cls-48" x="63.71" y="27.23" width="5.04" height="0.03"/><rect class="cls-49" x="63.71" y="27.2" width="5.04" height="0.03"/><rect class="cls-50" x="63.71" y="27.17" width="5.04" height="0.03"/><rect class="cls-51" x="63.71" y="27.15" width="5.04" height="0.03"/><rect class="cls-52" x="63.71" y="27.12" width="5.04" height="0.03"/><rect class="cls-53" x="63.71" y="27.09" width="5.04" height="0.03"/><rect class="cls-54" x="63.71" y="27.06" width="5.04" height="0.03"/><rect class="cls-55" x="63.71" y="27.03" width="5.04" height="0.03"/><rect class="cls-56" x="63.71" y="27" width="5.04" height="0.03"/><rect class="cls-57" x="63.71" y="26.97" width="5.04" height="0.03"/><rect class="cls-58" x="63.71" y="26.94" width="5.04" height="0.03"/><rect class="cls-59" x="63.71" y="26.92" width="5.04" height="0.03"/><rect class="cls-60" x="63.71" y="26.89" width="5.04" height="0.03"/><rect class="cls-61" x="63.71" y="26.86" width="5.04" height="0.03"/><rect class="cls-62" x="63.71" y="26.83" width="5.04" height="0.03"/><rect class="cls-63" x="63.71" y="26.8" width="5.04" height="0.03"/><rect class="cls-64" x="63.71" y="26.77" width="5.04" height="0.03"/><rect class="cls-65" x="63.71" y="26.74" width="5.04" height="0.03"/><rect class="cls-66" x="63.71" y="26.71" width="5.04" height="0.03"/><rect class="cls-67" x="63.71" y="26.69" width="5.04" height="0.03"/><rect class="cls-68" x="63.71" y="26.66" width="5.04" height="0.03"/><rect class="cls-69" x="63.71" y="26.63" width="5.04" height="0.03"/><rect class="cls-70" x="63.71" y="26.6" width="5.04" height="0.03"/><rect class="cls-71" x="63.71" y="26.57" width="5.04" height="0.03"/><rect class="cls-72" x="63.71" y="26.54" width="5.04" height="0.03"/><rect class="cls-73" x="63.71" y="26.51" width="5.04" height="0.03"/><rect class="cls-74" x="63.71" y="26.49" width="5.04" height="0.03"/><rect class="cls-75" x="63.71" y="26.46" width="5.04" height="0.03"/><rect class="cls-76" x="63.71" y="26.43" width="5.04" height="0.03"/><rect class="cls-77" x="63.71" y="26.4" width="5.04" height="0.03"/><rect class="cls-78" x="63.71" y="26.37" width="5.04" height="0.03"/><rect class="cls-79" x="63.71" y="26.34" width="5.04" height="0.03"/><rect class="cls-80" x="63.71" y="26.31" width="5.04" height="0.03"/><rect class="cls-81" x="63.71" y="26.28" width="5.04" height="0.03"/><rect class="cls-82" x="63.71" y="26.26" width="5.04" height="0.03"/><rect class="cls-83" x="63.71" y="26.23" width="5.04" height="0.03"/><rect class="cls-84" x="63.71" y="26.2" width="5.04" height="0.03"/><rect class="cls-85" x="63.71" y="26.17" width="5.04" height="0.03"/><rect class="cls-86" x="63.71" y="26.14" width="5.04" height="0.03"/><rect class="cls-87" x="63.71" y="26.11" width="5.04" height="0.03"/><rect class="cls-88" x="63.71" y="26.08" width="5.04" height="0.03"/><rect class="cls-89" x="63.71" y="26.05" width="5.04" height="0.03"/><rect class="cls-90" x="63.71" y="26.03" width="5.04" height="0.03"/><rect class="cls-91" x="63.71" y="26" width="5.04" height="0.03"/><rect class="cls-92" x="63.71" y="25.97" width="5.04" height="0.03"/><rect class="cls-93" x="63.71" y="25.94" width="5.04" height="0.03"/><rect class="cls-94" x="63.71" y="25.91" width="5.04" height="0.03"/><rect class="cls-95" x="63.71" y="25.88" width="5.04" height="0.03"/><rect class="cls-96" x="63.71" y="25.85" width="5.04" height="0.03"/><rect class="cls-97" x="63.71" y="25.82" width="5.04" height="0.03"/><rect class="cls-98" x="63.71" y="25.8" width="5.04" height="0.03"/><rect class="cls-99" x="63.71" y="25.77" width="5.04" height="0.03"/><rect class="cls-100" x="63.71" y="25.74" width="5.04" height="0.03"/><rect class="cls-101" x="63.71" y="25.71" width="5.04" height="0.03"/></g><g class="cls-105"><polygon class="cls-5" points="45.94 37.95 49.5 34.38 49.5 37.95 45.94 37.95"/><polygon class="cls-5" points="45.9 37.95 49.5 34.34 49.5 34.38 45.94 37.95 45.9 37.95"/><polygon class="cls-6" points="45.85 37.95 49.5 34.3 49.5 34.34 45.9 37.95 45.85 37.95"/><polygon class="cls-7" points="45.81 37.95 49.5 34.26 49.5 34.3 45.85 37.95 45.81 37.95"/><polygon class="cls-8" points="45.77 37.95 49.5 34.22 49.5 34.26 45.81 37.95 45.77 37.95"/><polygon class="cls-9" points="45.73 37.95 49.5 34.18 49.5 34.22 45.77 37.95 45.73 37.95"/><polygon class="cls-10" points="45.69 37.95 49.5 34.14 49.5 34.18 45.73 37.95 45.69 37.95"/><polygon class="cls-11" points="45.65 37.95 49.5 34.09 49.5 34.14 45.69 37.95 45.65 37.95"/><polygon class="cls-12" points="45.61 37.95 49.5 34.05 49.5 34.09 45.65 37.95 45.61 37.95"/><polygon class="cls-13" points="45.57 37.95 49.5 34.01 49.5 34.05 45.61 37.95 45.57 37.95"/><polygon class="cls-14" points="45.53 37.95 49.5 33.97 49.5 34.01 45.57 37.95 45.53 37.95"/><polygon class="cls-15" points="45.49 37.95 49.5 33.93 49.5 33.97 45.53 37.95 45.49 37.95"/><polygon class="cls-16" points="45.45 37.95 49.5 33.89 49.5 33.93 45.49 37.95 45.45 37.95"/><polygon class="cls-17" points="45.41 37.95 49.5 33.85 49.5 33.89 45.45 37.95 45.41 37.95"/><polygon class="cls-18" points="45.37 37.95 49.5 33.81 49.5 33.85 45.41 37.95 45.37 37.95"/><polygon class="cls-19" points="45.33 37.95 49.5 33.77 49.5 33.81 45.37 37.95 45.33 37.95"/><polygon class="cls-20" points="45.29 37.95 49.5 33.73 49.5 33.77 45.33 37.95 45.29 37.95"/><polygon class="cls-21" points="45.24 37.95 49.5 33.69 49.5 33.73 45.29 37.95 45.24 37.95"/><polygon class="cls-22" points="45.2 37.95 49.5 33.65 49.5 33.69 45.24 37.95 45.2 37.95"/><polygon class="cls-23" points="45.16 37.95 49.5 33.61 49.5 33.65 45.2 37.95 45.16 37.95"/><polygon class="cls-24" points="45.12 37.95 49.5 33.57 49.5 33.61 45.16 37.95 45.12 37.95"/><polygon class="cls-25" points="45.08 37.95 49.5 33.53 49.5 33.57 45.12 37.95 45.08 37.95"/><polygon class="cls-26" points="45.04 37.95 49.5 33.49 49.5 33.53 45.08 37.95 45.04 37.95"/><polygon class="cls-27" points="45 37.95 49.5 33.45 49.5 33.49 45.04 37.95 45 37.95"/><polygon class="cls-28" points="44.96 37.95 49.5 33.41 49.5 33.45 45 37.95 44.96 37.95"/><polygon class="cls-29" points="44.92 37.95 49.5 33.37 49.5 33.41 44.96 37.95 44.92 37.95"/><polygon class="cls-30" points="44.88 37.95 49.5 33.32 49.5 33.37 44.92 37.95 44.88 37.95"/><polygon class="cls-31" points="44.84 37.95 49.5 33.28 49.5 33.32 44.88 37.95 44.84 37.95"/><polygon class="cls-32" points="44.8 37.95 49.5 33.24 49.5 33.28 44.84 37.95 44.8 37.95"/><polygon class="cls-33" points="44.76 37.95 49.5 33.2 49.5 33.24 44.8 37.95 44.76 37.95"/><polygon class="cls-34" points="44.72 37.95 49.5 33.16 49.5 33.2 44.76 37.95 44.72 37.95"/><polygon class="cls-35" points="44.68 37.95 49.5 33.12 49.5 33.16 44.72 37.95 44.68 37.95"/><polygon class="cls-36" points="44.64 37.95 49.5 33.08 49.5 33.12 44.68 37.95 44.64 37.95"/><polygon class="cls-37" points="44.6 37.95 49.5 33.04 49.5 33.08 44.64 37.95 44.6 37.95"/><polygon class="cls-38" points="44.55 37.95 49.5 33 49.5 33.04 44.6 37.95 44.55 37.95"/><polygon class="cls-39" points="44.52 37.95 49.5 32.96 49.5 33 44.55 37.95 44.52 37.95"/><polygon class="cls-40" points="44.47 37.95 49.5 32.92 49.5 32.96 44.52 37.95 44.47 37.95"/><polygon class="cls-41" points="44.43 37.95 49.5 32.88 49.5 32.92 44.47 37.95 44.43 37.95"/><polygon class="cls-42" points="44.39 37.95 49.5 32.84 49.5 32.88 44.43 37.95 44.39 37.95"/><polygon class="cls-43" points="44.35 37.95 49.5 32.8 49.5 32.84 44.39 37.95 44.35 37.95"/><polygon class="cls-44" points="44.31 37.95 49.5 32.76 49.5 32.8 44.35 37.95 44.31 37.95"/><polygon class="cls-45" points="44.27 37.95 49.5 32.72 49.5 32.76 44.31 37.95 44.27 37.95"/><polygon class="cls-46" points="44.23 37.95 49.5 32.67 49.5 32.72 44.27 37.95 44.23 37.95"/><polygon class="cls-47" points="44.19 37.95 49.5 32.63 49.5 32.67 44.23 37.95 44.19 37.95"/><polygon class="cls-48" points="44.15 37.95 49.5 32.59 49.5 32.63 44.19 37.95 44.15 37.95"/><polygon class="cls-49" points="44.11 37.95 49.5 32.55 49.5 32.59 44.15 37.95 44.11 37.95"/><polygon class="cls-50" points="44.07 37.95 49.5 32.51 49.5 32.55 44.11 37.95 44.07 37.95"/><polygon class="cls-51" points="44.03 37.95 49.5 32.47 49.5 32.51 44.07 37.95 44.03 37.95"/><polygon class="cls-52" points="43.99 37.95 49.5 32.43 49.5 32.47 44.03 37.95 43.99 37.95"/><polygon class="cls-53" points="43.97 37.92 49.48 32.41 49.5 32.41 49.5 32.43 43.99 37.95 43.97 37.95 43.97 37.92"/><polygon class="cls-54" points="43.97 37.88 49.44 32.41 49.48 32.41 43.97 37.92 43.97 37.88"/><polygon class="cls-55" points="43.97 37.84 49.4 32.41 49.44 32.41 43.97 37.88 43.97 37.84"/><polygon class="cls-56" points="43.97 37.8 49.36 32.41 49.4 32.41 43.97 37.84 43.97 37.8"/><polygon class="cls-57" points="43.97 37.76 49.32 32.41 49.36 32.41 43.97 37.8 43.97 37.76"/><polygon class="cls-58" points="43.97 37.72 49.28 32.41 49.32 32.41 43.97 37.76 43.97 37.72"/><polygon class="cls-59" points="43.97 37.68 49.24 32.41 49.28 32.41 43.97 37.72 43.97 37.68"/><polygon class="cls-60" points="43.97 37.64 49.2 32.41 49.24 32.41 43.97 37.68 43.97 37.64"/><polygon class="cls-61" points="43.97 37.6 49.16 32.41 49.2 32.41 43.97 37.64 43.97 37.6"/><polygon class="cls-62" points="43.97 37.56 49.12 32.41 49.16 32.41 43.97 37.6 43.97 37.56"/><polygon class="cls-63" points="43.97 37.52 49.08 32.41 49.12 32.41 43.97 37.56 43.97 37.52"/><polygon class="cls-64" points="43.97 37.48 49.03 32.41 49.08 32.41 43.97 37.52 43.97 37.48"/><polygon class="cls-65" points="43.97 37.44 48.99 32.41 49.03 32.41 43.97 37.48 43.97 37.44"/><polygon class="cls-66" points="43.97 37.4 48.95 32.41 48.99 32.41 43.97 37.44 43.97 37.4"/><polygon class="cls-67" points="43.97 37.36 48.91 32.41 48.95 32.41 43.97 37.4 43.97 37.36"/><polygon class="cls-68" points="43.97 37.32 48.87 32.41 48.91 32.41 43.97 37.36 43.97 37.32"/><polygon class="cls-69" points="43.97 37.27 48.83 32.41 48.87 32.41 43.97 37.32 43.97 37.27"/><polygon class="cls-70" points="43.97 37.23 48.79 32.41 48.83 32.41 43.97 37.27 43.97 37.23"/><polygon class="cls-71" points="43.97 37.19 48.75 32.41 48.79 32.41 43.97 37.23 43.97 37.19"/><polygon class="cls-72" points="43.97 37.15 48.71 32.41 48.75 32.41 43.97 37.19 43.97 37.15"/><polygon class="cls-73" points="43.97 37.11 48.67 32.41 48.71 32.41 43.97 37.15 43.97 37.11"/><polygon class="cls-74" points="43.97 37.07 48.63 32.41 48.67 32.41 43.97 37.11 43.97 37.07"/><polygon class="cls-75" points="43.97 37.03 48.59 32.41 48.63 32.41 43.97 37.07 43.97 37.03"/><polygon class="cls-76" points="43.97 36.99 48.55 32.41 48.59 32.41 43.97 37.03 43.97 36.99"/><polygon class="cls-77" points="43.97 36.95 48.51 32.41 48.55 32.41 43.97 36.99 43.97 36.95"/><polygon class="cls-78" points="43.97 36.91 48.47 32.41 48.51 32.41 43.97 36.95 43.97 36.91"/><polygon class="cls-79" points="43.97 36.87 48.42 32.41 48.47 32.41 43.97 36.91 43.97 36.87"/><polygon class="cls-80" points="43.97 36.83 48.38 32.41 48.42 32.41 43.97 36.87 43.97 36.83"/><polygon class="cls-81" points="43.97 36.79 48.34 32.41 48.38 32.41 43.97 36.83 43.97 36.79"/><polygon class="cls-82" points="43.97 36.75 48.3 32.41 48.34 32.41 43.97 36.79 43.97 36.75"/><polygon class="cls-83" points="43.97 36.71 48.26 32.41 48.3 32.41 43.97 36.75 43.97 36.71"/><polygon class="cls-84" points="43.97 36.67 48.22 32.41 48.26 32.41 43.97 36.71 43.97 36.67"/><polygon class="cls-85" points="43.97 36.63 48.18 32.41 48.22 32.41 43.97 36.67 43.97 36.63"/><polygon class="cls-86" points="43.97 36.59 48.14 32.41 48.18 32.41 43.97 36.63 43.97 36.59"/><polygon class="cls-87" points="43.97 36.55 48.1 32.41 48.14 32.41 43.97 36.59 43.97 36.55"/><polygon class="cls-88" points="43.97 36.5 48.06 32.41 48.1 32.41 43.97 36.55 43.97 36.5"/><polygon class="cls-89" points="43.97 36.46 48.02 32.41 48.06 32.41 43.97 36.5 43.97 36.46"/><polygon class="cls-90" points="43.97 36.42 47.98 32.41 48.02 32.41 43.97 36.46 43.97 36.42"/><polygon class="cls-91" points="43.97 36.38 47.94 32.41 47.98 32.41 43.97 36.42 43.97 36.38"/><polygon class="cls-92" points="43.97 36.34 47.9 32.41 47.94 32.41 43.97 36.38 43.97 36.34"/><polygon class="cls-93" points="43.97 36.3 47.86 32.41 47.9 32.41 43.97 36.34 43.97 36.3"/><polygon class="cls-94" points="43.97 36.26 47.82 32.41 47.86 32.41 43.97 36.3 43.97 36.26"/><polygon class="cls-95" points="43.97 36.22 47.78 32.41 47.82 32.41 43.97 36.26 43.97 36.22"/><polygon class="cls-96" points="43.97 36.18 47.73 32.41 47.78 32.41 43.97 36.22 43.97 36.18"/><polygon class="cls-97" points="43.97 36.14 47.69 32.41 47.73 32.41 43.97 36.18 43.97 36.14"/><polygon class="cls-98" points="43.97 36.1 47.65 32.41 47.69 32.41 43.97 36.14 43.97 36.1"/><polygon class="cls-99" points="43.97 36.06 47.61 32.41 47.65 32.41 43.97 36.1 43.97 36.06"/><polygon class="cls-100" points="43.97 36.02 47.57 32.41 47.61 32.41 43.97 36.06 43.97 36.02"/><polygon class="cls-101" points="43.97 35.98 47.53 32.41 47.57 32.41 43.97 36.02 43.97 35.98"/><polygon class="cls-101" points="47.53 32.41 43.97 35.98 43.97 32.41 47.53 32.41"/></g><g class="cls-106"><polygon class="cls-5" points="62.09 21.79 65.65 18.23 65.65 21.79 62.09 21.79"/><polygon class="cls-5" points="62.05 21.79 65.65 18.19 65.65 18.23 62.09 21.79 62.05 21.79"/><polygon class="cls-6" points="62.01 21.79 65.65 18.15 65.65 18.19 62.05 21.79 62.01 21.79"/><polygon class="cls-7" points="61.97 21.79 65.65 18.11 65.65 18.15 62.01 21.79 61.97 21.79"/><polygon class="cls-8" points="61.92 21.79 65.65 18.07 65.65 18.11 61.97 21.79 61.92 21.79"/><polygon class="cls-9" points="61.88 21.79 65.65 18.02 65.65 18.07 61.92 21.79 61.88 21.79"/><polygon class="cls-10" points="61.84 21.79 65.65 17.98 65.65 18.02 61.88 21.79 61.84 21.79"/><polygon class="cls-11" points="61.8 21.79 65.65 17.94 65.65 17.98 61.84 21.79 61.8 21.79"/><polygon class="cls-12" points="61.76 21.79 65.65 17.9 65.65 17.94 61.8 21.79 61.76 21.79"/><polygon class="cls-13" points="61.72 21.79 65.65 17.86 65.65 17.9 61.76 21.79 61.72 21.79"/><polygon class="cls-14" points="61.68 21.79 65.65 17.82 65.65 17.86 61.72 21.79 61.68 21.79"/><polygon class="cls-15" points="61.64 21.79 65.65 17.78 65.65 17.82 61.68 21.79 61.64 21.79"/><polygon class="cls-16" points="61.6 21.79 65.65 17.74 65.65 17.78 61.64 21.79 61.6 21.79"/><polygon class="cls-17" points="61.56 21.79 65.65 17.7 65.65 17.74 61.6 21.79 61.56 21.79"/><polygon class="cls-18" points="61.52 21.79 65.65 17.66 65.65 17.7 61.56 21.79 61.52 21.79"/><polygon class="cls-19" points="61.48 21.79 65.65 17.62 65.65 17.66 61.52 21.79 61.48 21.79"/><polygon class="cls-20" points="61.44 21.79 65.65 17.58 65.65 17.62 61.48 21.79 61.44 21.79"/><polygon class="cls-21" points="61.4 21.79 65.65 17.54 65.65 17.58 61.44 21.79 61.4 21.79"/><polygon class="cls-22" points="61.36 21.79 65.65 17.5 65.65 17.54 61.4 21.79 61.36 21.79"/><polygon class="cls-23" points="61.31 21.79 65.65 17.46 65.65 17.5 61.36 21.79 61.31 21.79"/><polygon class="cls-24" points="61.27 21.79 65.65 17.42 65.65 17.46 61.31 21.79 61.27 21.79"/><polygon class="cls-25" points="61.23 21.79 65.65 17.38 65.65 17.42 61.27 21.79 61.23 21.79"/><polygon class="cls-26" points="61.19 21.79 65.65 17.34 65.65 17.38 61.23 21.79 61.19 21.79"/><polygon class="cls-27" points="61.15 21.79 65.65 17.3 65.65 17.34 61.19 21.79 61.15 21.79"/><polygon class="cls-28" points="61.11 21.79 65.65 17.25 65.65 17.3 61.15 21.79 61.11 21.79"/><polygon class="cls-29" points="61.07 21.79 65.65 17.21 65.65 17.25 61.11 21.79 61.07 21.79"/><polygon class="cls-30" points="61.03 21.79 65.65 17.17 65.65 17.21 61.07 21.79 61.03 21.79"/><polygon class="cls-31" points="60.99 21.79 65.65 17.13 65.65 17.17 61.03 21.79 60.99 21.79"/><polygon class="cls-32" points="60.95 21.79 65.65 17.09 65.65 17.13 60.99 21.79 60.95 21.79"/><polygon class="cls-33" points="60.91 21.79 65.65 17.05 65.65 17.09 60.95 21.79 60.91 21.79"/><polygon class="cls-34" points="60.87 21.79 65.65 17.01 65.65 17.05 60.91 21.79 60.87 21.79"/><polygon class="cls-35" points="60.83 21.79 65.65 16.97 65.65 17.01 60.87 21.79 60.83 21.79"/><polygon class="cls-36" points="60.79 21.79 65.65 16.93 65.65 16.97 60.83 21.79 60.79 21.79"/><polygon class="cls-37" points="60.75 21.79 65.65 16.89 65.65 16.93 60.79 21.79 60.75 21.79"/><polygon class="cls-38" points="60.71 21.79 65.65 16.85 65.65 16.89 60.75 21.79 60.71 21.79"/><polygon class="cls-39" points="60.67 21.79 65.65 16.81 65.65 16.85 60.71 21.79 60.67 21.79"/><polygon class="cls-40" points="60.63 21.79 65.65 16.77 65.65 16.81 60.67 21.79 60.63 21.79"/><polygon class="cls-41" points="60.59 21.79 65.65 16.73 65.65 16.77 60.63 21.79 60.59 21.79"/><polygon class="cls-42" points="60.54 21.79 65.65 16.69 65.65 16.73 60.59 21.79 60.54 21.79"/><polygon class="cls-43" points="60.5 21.79 65.65 16.64 65.65 16.69 60.54 21.79 60.5 21.79"/><polygon class="cls-44" points="60.46 21.79 65.65 16.61 65.65 16.64 60.5 21.79 60.46 21.79"/><polygon class="cls-45" points="60.42 21.79 65.65 16.56 65.65 16.61 60.46 21.79 60.42 21.79"/><polygon class="cls-46" points="60.38 21.79 65.65 16.52 65.65 16.56 60.42 21.79 60.38 21.79"/><polygon class="cls-47" points="60.34 21.79 65.65 16.48 65.65 16.52 60.38 21.79 60.34 21.79"/><polygon class="cls-48" points="60.3 21.79 65.65 16.44 65.65 16.48 60.34 21.79 60.3 21.79"/><polygon class="cls-49" points="60.26 21.79 65.65 16.4 65.65 16.44 60.3 21.79 60.26 21.79"/><polygon class="cls-50" points="60.22 21.79 65.65 16.36 65.65 16.4 60.26 21.79 60.22 21.79"/><polygon class="cls-51" points="60.18 21.79 65.65 16.32 65.65 16.36 60.22 21.79 60.18 21.79"/><polygon class="cls-52" points="60.14 21.79 65.65 16.28 65.65 16.32 60.18 21.79 60.14 21.79"/><polygon class="cls-53" points="60.12 21.77 65.63 16.26 65.65 16.26 65.65 16.28 60.14 21.79 60.12 21.79 60.12 21.77"/><polygon class="cls-54" points="60.12 21.73 65.59 16.26 65.63 16.26 60.12 21.77 60.12 21.73"/><polygon class="cls-55" points="60.12 21.69 65.55 16.26 65.59 16.26 60.12 21.73 60.12 21.69"/><polygon class="cls-56" points="60.12 21.65 65.51 16.26 65.55 16.26 60.12 21.69 60.12 21.65"/><polygon class="cls-57" points="60.12 21.61 65.47 16.26 65.51 16.26 60.12 21.65 60.12 21.61"/><polygon class="cls-58" points="60.12 21.57 65.43 16.26 65.47 16.26 60.12 21.61 60.12 21.57"/><polygon class="cls-59" points="60.12 21.53 65.39 16.26 65.43 16.26 60.12 21.57 60.12 21.53"/><polygon class="cls-60" points="60.12 21.49 65.35 16.26 65.39 16.26 60.12 21.53 60.12 21.49"/><polygon class="cls-61" points="60.12 21.45 65.31 16.26 65.35 16.26 60.12 21.49 60.12 21.45"/><polygon class="cls-62" points="60.12 21.41 65.27 16.26 65.31 16.26 60.12 21.45 60.12 21.41"/><polygon class="cls-63" points="60.12 21.37 65.23 16.26 65.27 16.26 60.12 21.41 60.12 21.37"/><polygon class="cls-64" points="60.12 21.33 65.19 16.26 65.23 16.26 60.12 21.37 60.12 21.33"/><polygon class="cls-65" points="60.12 21.29 65.14 16.26 65.19 16.26 60.12 21.33 60.12 21.29"/><polygon class="cls-66" points="60.12 21.25 65.1 16.26 65.14 16.26 60.12 21.29 60.12 21.25"/><polygon class="cls-67" points="60.12 21.2 65.06 16.26 65.1 16.26 60.12 21.25 60.12 21.2"/><polygon class="cls-68" points="60.12 21.16 65.02 16.26 65.06 16.26 60.12 21.2 60.12 21.16"/><polygon class="cls-69" points="60.12 21.12 64.98 16.26 65.02 16.26 60.12 21.16 60.12 21.12"/><polygon class="cls-70" points="60.12 21.08 64.94 16.26 64.98 16.26 60.12 21.12 60.12 21.08"/><polygon class="cls-71" points="60.12 21.04 64.9 16.26 64.94 16.26 60.12 21.08 60.12 21.04"/><polygon class="cls-72" points="60.12 21 64.86 16.26 64.9 16.26 60.12 21.04 60.12 21"/><polygon class="cls-73" points="60.12 20.96 64.82 16.26 64.86 16.26 60.12 21 60.12 20.96"/><polygon class="cls-74" points="60.12 20.92 64.78 16.26 64.82 16.26 60.12 20.96 60.12 20.92"/><polygon class="cls-75" points="60.12 20.88 64.74 16.26 64.78 16.26 60.12 20.92 60.12 20.88"/><polygon class="cls-76" points="60.12 20.84 64.7 16.26 64.74 16.26 60.12 20.88 60.12 20.84"/><polygon class="cls-77" points="60.12 20.8 64.66 16.26 64.7 16.26 60.12 20.84 60.12 20.8"/><polygon class="cls-78" points="60.12 20.76 64.62 16.26 64.66 16.26 60.12 20.8 60.12 20.76"/><polygon class="cls-79" points="60.12 20.72 64.58 16.26 64.62 16.26 60.12 20.76 60.12 20.72"/><polygon class="cls-80" points="60.12 20.68 64.54 16.26 64.58 16.26 60.12 20.72 60.12 20.68"/><polygon class="cls-81" points="60.12 20.64 64.5 16.26 64.54 16.26 60.12 20.68 60.12 20.64"/><polygon class="cls-82" points="60.12 20.6 64.45 16.26 64.5 16.26 60.12 20.64 60.12 20.6"/><polygon class="cls-83" points="60.12 20.56 64.41 16.26 64.45 16.26 60.12 20.6 60.12 20.56"/><polygon class="cls-84" points="60.12 20.52 64.37 16.26 64.41 16.26 60.12 20.56 60.12 20.52"/><polygon class="cls-85" points="60.12 20.47 64.33 16.26 64.37 16.26 60.12 20.52 60.12 20.47"/><polygon class="cls-86" points="60.12 20.43 64.29 16.26 64.33 16.26 60.12 20.47 60.12 20.43"/><polygon class="cls-87" points="60.12 20.39 64.25 16.26 64.29 16.26 60.12 20.43 60.12 20.39"/><polygon class="cls-88" points="60.12 20.35 64.21 16.26 64.25 16.26 60.12 20.39 60.12 20.35"/><polygon class="cls-89" points="60.12 20.31 64.17 16.26 64.21 16.26 60.12 20.35 60.12 20.31"/><polygon class="cls-90" points="60.12 20.27 64.13 16.26 64.17 16.26 60.12 20.31 60.12 20.27"/><polygon class="cls-91" points="60.12 20.23 64.09 16.26 64.13 16.26 60.12 20.27 60.12 20.23"/><polygon class="cls-92" points="60.12 20.19 64.05 16.26 64.09 16.26 60.12 20.23 60.12 20.19"/><polygon class="cls-93" points="60.12 20.15 64.01 16.26 64.05 16.26 60.12 20.19 60.12 20.15"/><polygon class="cls-94" points="60.12 20.11 63.97 16.26 64.01 16.26 60.12 20.15 60.12 20.11"/><polygon class="cls-95" points="60.12 20.07 63.93 16.26 63.97 16.26 60.12 20.11 60.12 20.07"/><polygon class="cls-96" points="60.12 20.03 63.89 16.26 63.93 16.26 60.12 20.07 60.12 20.03"/><polygon class="cls-97" points="60.12 19.99 63.85 16.26 63.89 16.26 60.12 20.03 60.12 19.99"/><polygon class="cls-98" points="60.12 19.95 63.8 16.26 63.85 16.26 60.12 19.99 60.12 19.95"/><polygon class="cls-99" points="60.12 19.91 63.77 16.26 63.8 16.26 60.12 19.95 60.12 19.91"/><polygon class="cls-100" points="60.12 19.87 63.72 16.26 63.77 16.26 60.12 19.91 60.12 19.87"/><polygon class="cls-101" points="60.12 19.82 63.68 16.26 63.72 16.26 60.12 19.87 60.12 19.82"/><polygon class="cls-101" points="63.68 16.26 60.12 19.82 60.12 16.26 63.68 16.26"/></g><g class="cls-107"><polygon class="cls-5" points="65.65 35.98 62.09 32.41 65.65 32.41 65.65 35.98"/><polygon class="cls-5" points="65.65 36.02 62.05 32.41 62.09 32.41 65.65 35.98 65.65 36.02"/><polygon class="cls-6" points="65.65 36.06 62.01 32.41 62.05 32.41 65.65 36.02 65.65 36.06"/><polygon class="cls-7" points="65.65 36.1 61.97 32.41 62.01 32.41 65.65 36.06 65.65 36.1"/><polygon class="cls-8" points="65.65 36.14 61.92 32.41 61.97 32.41 65.65 36.1 65.65 36.14"/><polygon class="cls-9" points="65.65 36.18 61.88 32.41 61.92 32.41 65.65 36.14 65.65 36.18"/><polygon class="cls-10" points="65.65 36.22 61.84 32.41 61.88 32.41 65.65 36.18 65.65 36.22"/><polygon class="cls-11" points="65.65 36.26 61.8 32.41 61.84 32.41 65.65 36.22 65.65 36.26"/><polygon class="cls-12" points="65.65 36.3 61.76 32.41 61.8 32.41 65.65 36.26 65.65 36.3"/><polygon class="cls-13" points="65.65 36.34 61.72 32.41 61.76 32.41 65.65 36.3 65.65 36.34"/><polygon class="cls-14" points="65.65 36.38 61.68 32.41 61.72 32.41 65.65 36.34 65.65 36.38"/><polygon class="cls-15" points="65.65 36.42 61.64 32.41 61.68 32.41 65.65 36.38 65.65 36.42"/><polygon class="cls-16" points="65.65 36.46 61.6 32.41 61.64 32.41 65.65 36.42 65.65 36.46"/><polygon class="cls-17" points="65.65 36.5 61.56 32.41 61.6 32.41 65.65 36.46 65.65 36.5"/><polygon class="cls-18" points="65.65 36.55 61.52 32.41 61.56 32.41 65.65 36.5 65.65 36.55"/><polygon class="cls-19" points="65.65 36.59 61.48 32.41 61.52 32.41 65.65 36.55 65.65 36.59"/><polygon class="cls-20" points="65.65 36.63 61.44 32.41 61.48 32.41 65.65 36.59 65.65 36.63"/><polygon class="cls-21" points="65.65 36.67 61.4 32.41 61.44 32.41 65.65 36.63 65.65 36.67"/><polygon class="cls-22" points="65.65 36.71 61.36 32.41 61.4 32.41 65.65 36.67 65.65 36.71"/><polygon class="cls-23" points="65.65 36.75 61.31 32.41 61.36 32.41 65.65 36.71 65.65 36.75"/><polygon class="cls-24" points="65.65 36.79 61.27 32.41 61.31 32.41 65.65 36.75 65.65 36.79"/><polygon class="cls-25" points="65.65 36.83 61.23 32.41 61.27 32.41 65.65 36.79 65.65 36.83"/><polygon class="cls-26" points="65.65 36.87 61.19 32.41 61.23 32.41 65.65 36.83 65.65 36.87"/><polygon class="cls-27" points="65.65 36.91 61.15 32.41 61.19 32.41 65.65 36.87 65.65 36.91"/><polygon class="cls-28" points="65.65 36.95 61.11 32.41 61.15 32.41 65.65 36.91 65.65 36.95"/><polygon class="cls-29" points="65.65 36.99 61.07 32.41 61.11 32.41 65.65 36.95 65.65 36.99"/><polygon class="cls-30" points="65.65 37.03 61.03 32.41 61.07 32.41 65.65 36.99 65.65 37.03"/><polygon class="cls-31" points="65.65 37.07 60.99 32.41 61.03 32.41 65.65 37.03 65.65 37.07"/><polygon class="cls-32" points="65.65 37.11 60.95 32.41 60.99 32.41 65.65 37.07 65.65 37.11"/><polygon class="cls-33" points="65.65 37.15 60.91 32.41 60.95 32.41 65.65 37.11 65.65 37.15"/><polygon class="cls-34" points="65.65 37.19 60.87 32.41 60.91 32.41 65.65 37.15 65.65 37.19"/><polygon class="cls-35" points="65.65 37.23 60.83 32.41 60.87 32.41 65.65 37.19 65.65 37.23"/><polygon class="cls-36" points="65.65 37.27 60.79 32.41 60.83 32.41 65.65 37.23 65.65 37.27"/><polygon class="cls-37" points="65.65 37.32 60.75 32.41 60.79 32.41 65.65 37.27 65.65 37.32"/><polygon class="cls-38" points="65.65 37.36 60.71 32.41 60.75 32.41 65.65 37.32 65.65 37.36"/><polygon class="cls-39" points="65.65 37.4 60.67 32.41 60.71 32.41 65.65 37.36 65.65 37.4"/><polygon class="cls-40" points="65.65 37.44 60.63 32.41 60.67 32.41 65.65 37.4 65.65 37.44"/><polygon class="cls-41" points="65.65 37.48 60.59 32.41 60.63 32.41 65.65 37.44 65.65 37.48"/><polygon class="cls-42" points="65.65 37.52 60.54 32.41 60.59 32.41 65.65 37.48 65.65 37.52"/><polygon class="cls-43" points="65.65 37.56 60.5 32.41 60.54 32.41 65.65 37.52 65.65 37.56"/><polygon class="cls-44" points="65.65 37.6 60.46 32.41 60.5 32.41 65.65 37.56 65.65 37.6"/><polygon class="cls-45" points="65.65 37.64 60.42 32.41 60.46 32.41 65.65 37.6 65.65 37.64"/><polygon class="cls-46" points="65.65 37.68 60.38 32.41 60.42 32.41 65.65 37.64 65.65 37.68"/><polygon class="cls-47" points="65.65 37.72 60.34 32.41 60.38 32.41 65.65 37.68 65.65 37.72"/><polygon class="cls-48" points="65.65 37.76 60.3 32.41 60.34 32.41 65.65 37.72 65.65 37.76"/><polygon class="cls-49" points="65.65 37.8 60.26 32.41 60.3 32.41 65.65 37.76 65.65 37.8"/><polygon class="cls-50" points="65.65 37.84 60.22 32.41 60.26 32.41 65.65 37.8 65.65 37.84"/><polygon class="cls-51" points="65.65 37.88 60.18 32.41 60.22 32.41 65.65 37.84 65.65 37.88"/><polygon class="cls-52" points="65.65 37.92 60.14 32.41 60.18 32.41 65.65 37.88 65.65 37.92"/><polygon class="cls-53" points="65.63 37.95 60.12 32.43 60.12 32.41 60.14 32.41 65.65 37.92 65.65 37.95 65.63 37.95"/><polygon class="cls-54" points="65.59 37.95 60.12 32.47 60.12 32.43 65.63 37.95 65.59 37.95"/><polygon class="cls-55" points="65.55 37.95 60.12 32.51 60.12 32.47 65.59 37.95 65.55 37.95"/><polygon class="cls-56" points="65.51 37.95 60.12 32.55 60.12 32.51 65.55 37.95 65.51 37.95"/><polygon class="cls-57" points="65.47 37.95 60.12 32.59 60.12 32.55 65.51 37.95 65.47 37.95"/><polygon class="cls-58" points="65.43 37.95 60.12 32.63 60.12 32.59 65.47 37.95 65.43 37.95"/><polygon class="cls-59" points="65.39 37.95 60.12 32.67 60.12 32.63 65.43 37.95 65.39 37.95"/><polygon class="cls-60" points="65.35 37.95 60.12 32.72 60.12 32.67 65.39 37.95 65.35 37.95"/><polygon class="cls-61" points="65.31 37.95 60.12 32.76 60.12 32.72 65.35 37.95 65.31 37.95"/><polygon class="cls-62" points="65.27 37.95 60.12 32.8 60.12 32.76 65.31 37.95 65.27 37.95"/><polygon class="cls-63" points="65.23 37.95 60.12 32.84 60.12 32.8 65.27 37.95 65.23 37.95"/><polygon class="cls-64" points="65.19 37.95 60.12 32.88 60.12 32.84 65.23 37.95 65.19 37.95"/><polygon class="cls-65" points="65.14 37.95 60.12 32.92 60.12 32.88 65.19 37.95 65.14 37.95"/><polygon class="cls-66" points="65.1 37.95 60.12 32.96 60.12 32.92 65.14 37.95 65.1 37.95"/><polygon class="cls-67" points="65.06 37.95 60.12 33 60.12 32.96 65.1 37.95 65.06 37.95"/><polygon class="cls-68" points="65.02 37.95 60.12 33.04 60.12 33 65.06 37.95 65.02 37.95"/><polygon class="cls-69" points="64.98 37.95 60.12 33.08 60.12 33.04 65.02 37.95 64.98 37.95"/><polygon class="cls-70" points="64.94 37.95 60.12 33.12 60.12 33.08 64.98 37.95 64.94 37.95"/><polygon class="cls-71" points="64.9 37.95 60.12 33.16 60.12 33.12 64.94 37.95 64.9 37.95"/><polygon class="cls-72" points="64.86 37.95 60.12 33.2 60.12 33.16 64.9 37.95 64.86 37.95"/><polygon class="cls-73" points="64.82 37.95 60.12 33.24 60.12 33.2 64.86 37.95 64.82 37.95"/><polygon class="cls-74" points="64.78 37.95 60.12 33.28 60.12 33.24 64.82 37.95 64.78 37.95"/><polygon class="cls-75" points="64.74 37.95 60.12 33.32 60.12 33.28 64.78 37.95 64.74 37.95"/><polygon class="cls-76" points="64.7 37.95 60.12 33.37 60.12 33.32 64.74 37.95 64.7 37.95"/><polygon class="cls-77" points="64.66 37.95 60.12 33.41 60.12 33.37 64.7 37.95 64.66 37.95"/><polygon class="cls-78" points="64.62 37.95 60.12 33.45 60.12 33.41 64.66 37.95 64.62 37.95"/><polygon class="cls-79" points="64.58 37.95 60.12 33.49 60.12 33.45 64.62 37.95 64.58 37.95"/><polygon class="cls-80" points="64.54 37.95 60.12 33.53 60.12 33.49 64.58 37.95 64.54 37.95"/><polygon class="cls-81" points="64.5 37.95 60.12 33.57 60.12 33.53 64.54 37.95 64.5 37.95"/><polygon class="cls-82" points="64.45 37.95 60.12 33.61 60.12 33.57 64.5 37.95 64.45 37.95"/><polygon class="cls-83" points="64.41 37.95 60.12 33.65 60.12 33.61 64.45 37.95 64.41 37.95"/><polygon class="cls-84" points="64.37 37.95 60.12 33.69 60.12 33.65 64.41 37.95 64.37 37.95"/><polygon class="cls-85" points="64.33 37.95 60.12 33.73 60.12 33.69 64.37 37.95 64.33 37.95"/><polygon class="cls-86" points="64.29 37.95 60.12 33.77 60.12 33.73 64.33 37.95 64.29 37.95"/><polygon class="cls-87" points="64.25 37.95 60.12 33.81 60.12 33.77 64.29 37.95 64.25 37.95"/><polygon class="cls-88" points="64.21 37.95 60.12 33.85 60.12 33.81 64.25 37.95 64.21 37.95"/><polygon class="cls-89" points="64.17 37.95 60.12 33.89 60.12 33.85 64.21 37.95 64.17 37.95"/><polygon class="cls-90" points="64.13 37.95 60.12 33.93 60.12 33.89 64.17 37.95 64.13 37.95"/><polygon class="cls-91" points="64.09 37.95 60.12 33.97 60.12 33.93 64.13 37.95 64.09 37.95"/><polygon class="cls-92" points="64.05 37.95 60.12 34.01 60.12 33.97 64.09 37.95 64.05 37.95"/><polygon class="cls-93" points="64.01 37.95 60.12 34.05 60.12 34.01 64.05 37.95 64.01 37.95"/><polygon class="cls-94" points="63.97 37.95 60.12 34.09 60.12 34.05 64.01 37.95 63.97 37.95"/><polygon class="cls-95" points="63.93 37.95 60.12 34.14 60.12 34.09 63.97 37.95 63.93 37.95"/><polygon class="cls-96" points="63.89 37.95 60.12 34.18 60.12 34.14 63.93 37.95 63.89 37.95"/><polygon class="cls-97" points="63.85 37.95 60.12 34.22 60.12 34.18 63.89 37.95 63.85 37.95"/><polygon class="cls-98" points="63.8 37.95 60.12 34.26 60.12 34.22 63.85 37.95 63.8 37.95"/><polygon class="cls-99" points="63.77 37.95 60.12 34.3 60.12 34.26 63.8 37.95 63.77 37.95"/><polygon class="cls-100" points="63.72 37.95 60.12 34.34 60.12 34.3 63.77 37.95 63.72 37.95"/><polygon class="cls-101" points="63.68 37.95 60.12 34.38 60.12 34.34 63.72 37.95 63.68 37.95"/><polygon class="cls-101" points="60.12 34.38 63.68 37.95 60.12 37.95 60.12 34.38"/></g><g class="cls-108"><polygon class="cls-5" points="49.5 19.82 45.94 16.26 49.5 16.26 49.5 19.82"/><polygon class="cls-5" points="49.5 19.87 45.9 16.26 45.94 16.26 49.5 19.82 49.5 19.87"/><polygon class="cls-6" points="49.5 19.91 45.85 16.26 45.9 16.26 49.5 19.87 49.5 19.91"/><polygon class="cls-7" points="49.5 19.95 45.81 16.26 45.85 16.26 49.5 19.91 49.5 19.95"/><polygon class="cls-8" points="49.5 19.99 45.77 16.26 45.81 16.26 49.5 19.95 49.5 19.99"/><polygon class="cls-9" points="49.5 20.03 45.73 16.26 45.77 16.26 49.5 19.99 49.5 20.03"/><polygon class="cls-10" points="49.5 20.07 45.69 16.26 45.73 16.26 49.5 20.03 49.5 20.07"/><polygon class="cls-11" points="49.5 20.11 45.65 16.26 45.69 16.26 49.5 20.07 49.5 20.11"/><polygon class="cls-12" points="49.5 20.15 45.61 16.26 45.65 16.26 49.5 20.11 49.5 20.15"/><polygon class="cls-13" points="49.5 20.19 45.57 16.26 45.61 16.26 49.5 20.15 49.5 20.19"/><polygon class="cls-14" points="49.5 20.23 45.53 16.26 45.57 16.26 49.5 20.19 49.5 20.23"/><polygon class="cls-15" points="49.5 20.27 45.49 16.26 45.53 16.26 49.5 20.23 49.5 20.27"/><polygon class="cls-16" points="49.5 20.31 45.45 16.26 45.49 16.26 49.5 20.27 49.5 20.31"/><polygon class="cls-17" points="49.5 20.35 45.41 16.26 45.45 16.26 49.5 20.31 49.5 20.35"/><polygon class="cls-18" points="49.5 20.39 45.37 16.26 45.41 16.26 49.5 20.35 49.5 20.39"/><polygon class="cls-19" points="49.5 20.43 45.33 16.26 45.37 16.26 49.5 20.39 49.5 20.43"/><polygon class="cls-20" points="49.5 20.47 45.29 16.26 45.33 16.26 49.5 20.43 49.5 20.47"/><polygon class="cls-21" points="49.5 20.52 45.24 16.26 45.29 16.26 49.5 20.47 49.5 20.52"/><polygon class="cls-22" points="49.5 20.56 45.2 16.26 45.24 16.26 49.5 20.52 49.5 20.56"/><polygon class="cls-23" points="49.5 20.6 45.16 16.26 45.2 16.26 49.5 20.56 49.5 20.6"/><polygon class="cls-24" points="49.5 20.64 45.12 16.26 45.16 16.26 49.5 20.6 49.5 20.64"/><polygon class="cls-25" points="49.5 20.68 45.08 16.26 45.12 16.26 49.5 20.64 49.5 20.68"/><polygon class="cls-26" points="49.5 20.72 45.04 16.26 45.08 16.26 49.5 20.68 49.5 20.72"/><polygon class="cls-27" points="49.5 20.76 45 16.26 45.04 16.26 49.5 20.72 49.5 20.76"/><polygon class="cls-28" points="49.5 20.8 44.96 16.26 45 16.26 49.5 20.76 49.5 20.8"/><polygon class="cls-29" points="49.5 20.84 44.92 16.26 44.96 16.26 49.5 20.8 49.5 20.84"/><polygon class="cls-30" points="49.5 20.88 44.88 16.26 44.92 16.26 49.5 20.84 49.5 20.88"/><polygon class="cls-31" points="49.5 20.92 44.84 16.26 44.88 16.26 49.5 20.88 49.5 20.92"/><polygon class="cls-32" points="49.5 20.96 44.8 16.26 44.84 16.26 49.5 20.92 49.5 20.96"/><polygon class="cls-33" points="49.5 21 44.76 16.26 44.8 16.26 49.5 20.96 49.5 21"/><polygon class="cls-34" points="49.5 21.04 44.72 16.26 44.76 16.26 49.5 21 49.5 21.04"/><polygon class="cls-35" points="49.5 21.08 44.68 16.26 44.72 16.26 49.5 21.04 49.5 21.08"/><polygon class="cls-36" points="49.5 21.12 44.64 16.26 44.68 16.26 49.5 21.08 49.5 21.12"/><polygon class="cls-37" points="49.5 21.16 44.6 16.26 44.64 16.26 49.5 21.12 49.5 21.16"/><polygon class="cls-38" points="49.5 21.2 44.55 16.26 44.6 16.26 49.5 21.16 49.5 21.2"/><polygon class="cls-39" points="49.5 21.25 44.52 16.26 44.55 16.26 49.5 21.2 49.5 21.25"/><polygon class="cls-40" points="49.5 21.29 44.47 16.26 44.52 16.26 49.5 21.25 49.5 21.29"/><polygon class="cls-41" points="49.5 21.33 44.43 16.26 44.47 16.26 49.5 21.29 49.5 21.33"/><polygon class="cls-42" points="49.5 21.37 44.39 16.26 44.43 16.26 49.5 21.33 49.5 21.37"/><polygon class="cls-43" points="49.5 21.41 44.35 16.26 44.39 16.26 49.5 21.37 49.5 21.41"/><polygon class="cls-44" points="49.5 21.45 44.31 16.26 44.35 16.26 49.5 21.41 49.5 21.45"/><polygon class="cls-45" points="49.5 21.49 44.27 16.26 44.31 16.26 49.5 21.45 49.5 21.49"/><polygon class="cls-46" points="49.5 21.53 44.23 16.26 44.27 16.26 49.5 21.49 49.5 21.53"/><polygon class="cls-47" points="49.5 21.57 44.19 16.26 44.23 16.26 49.5 21.53 49.5 21.57"/><polygon class="cls-48" points="49.5 21.61 44.15 16.26 44.19 16.26 49.5 21.57 49.5 21.61"/><polygon class="cls-49" points="49.5 21.65 44.11 16.26 44.15 16.26 49.5 21.61 49.5 21.65"/><polygon class="cls-50" points="49.5 21.69 44.07 16.26 44.11 16.26 49.5 21.65 49.5 21.69"/><polygon class="cls-51" points="49.5 21.73 44.03 16.26 44.07 16.26 49.5 21.69 49.5 21.73"/><polygon class="cls-52" points="49.5 21.77 43.99 16.26 44.03 16.26 49.5 21.73 49.5 21.77"/><polygon class="cls-53" points="49.48 21.79 43.97 16.28 43.97 16.26 43.99 16.26 49.5 21.77 49.5 21.79 49.48 21.79"/><polygon class="cls-54" points="49.44 21.79 43.97 16.32 43.97 16.28 49.48 21.79 49.44 21.79"/><polygon class="cls-55" points="49.4 21.79 43.97 16.36 43.97 16.32 49.44 21.79 49.4 21.79"/><polygon class="cls-56" points="49.36 21.79 43.97 16.4 43.97 16.36 49.4 21.79 49.36 21.79"/><polygon class="cls-57" points="49.32 21.79 43.97 16.44 43.97 16.4 49.36 21.79 49.32 21.79"/><polygon class="cls-58" points="49.28 21.79 43.97 16.48 43.97 16.44 49.32 21.79 49.28 21.79"/><polygon class="cls-59" points="49.24 21.79 43.97 16.52 43.97 16.48 49.28 21.79 49.24 21.79"/><polygon class="cls-60" points="49.2 21.79 43.97 16.56 43.97 16.52 49.24 21.79 49.2 21.79"/><polygon class="cls-61" points="49.16 21.79 43.97 16.61 43.97 16.56 49.2 21.79 49.16 21.79"/><polygon class="cls-62" points="49.12 21.79 43.97 16.64 43.97 16.61 49.16 21.79 49.12 21.79"/><polygon class="cls-63" points="49.08 21.79 43.97 16.69 43.97 16.64 49.12 21.79 49.08 21.79"/><polygon class="cls-64" points="49.03 21.79 43.97 16.73 43.97 16.69 49.08 21.79 49.03 21.79"/><polygon class="cls-65" points="48.99 21.79 43.97 16.77 43.97 16.73 49.03 21.79 48.99 21.79"/><polygon class="cls-66" points="48.95 21.79 43.97 16.81 43.97 16.77 48.99 21.79 48.95 21.79"/><polygon class="cls-67" points="48.91 21.79 43.97 16.85 43.97 16.81 48.95 21.79 48.91 21.79"/><polygon class="cls-68" points="48.87 21.79 43.97 16.89 43.97 16.85 48.91 21.79 48.87 21.79"/><polygon class="cls-69" points="48.83 21.79 43.97 16.93 43.97 16.89 48.87 21.79 48.83 21.79"/><polygon class="cls-70" points="48.79 21.79 43.97 16.97 43.97 16.93 48.83 21.79 48.79 21.79"/><polygon class="cls-71" points="48.75 21.79 43.97 17.01 43.97 16.97 48.79 21.79 48.75 21.79"/><polygon class="cls-72" points="48.71 21.79 43.97 17.05 43.97 17.01 48.75 21.79 48.71 21.79"/><polygon class="cls-73" points="48.67 21.79 43.97 17.09 43.97 17.05 48.71 21.79 48.67 21.79"/><polygon class="cls-74" points="48.63 21.79 43.97 17.13 43.97 17.09 48.67 21.79 48.63 21.79"/><polygon class="cls-75" points="48.59 21.79 43.97 17.17 43.97 17.13 48.63 21.79 48.59 21.79"/><polygon class="cls-76" points="48.55 21.79 43.97 17.21 43.97 17.17 48.59 21.79 48.55 21.79"/><polygon class="cls-77" points="48.51 21.79 43.97 17.25 43.97 17.21 48.55 21.79 48.51 21.79"/><polygon class="cls-78" points="48.47 21.79 43.97 17.3 43.97 17.25 48.51 21.79 48.47 21.79"/><polygon class="cls-79" points="48.42 21.79 43.97 17.34 43.97 17.3 48.47 21.79 48.42 21.79"/><polygon class="cls-80" points="48.38 21.79 43.97 17.38 43.97 17.34 48.42 21.79 48.38 21.79"/><polygon class="cls-81" points="48.34 21.79 43.97 17.42 43.97 17.38 48.38 21.79 48.34 21.79"/><polygon class="cls-82" points="48.3 21.79 43.97 17.46 43.97 17.42 48.34 21.79 48.3 21.79"/><polygon class="cls-83" points="48.26 21.79 43.97 17.5 43.97 17.46 48.3 21.79 48.26 21.79"/><polygon class="cls-84" points="48.22 21.79 43.97 17.54 43.97 17.5 48.26 21.79 48.22 21.79"/><polygon class="cls-85" points="48.18 21.79 43.97 17.58 43.97 17.54 48.22 21.79 48.18 21.79"/><polygon class="cls-86" points="48.14 21.79 43.97 17.62 43.97 17.58 48.18 21.79 48.14 21.79"/><polygon class="cls-87" points="48.1 21.79 43.97 17.66 43.97 17.62 48.14 21.79 48.1 21.79"/><polygon class="cls-88" points="48.06 21.79 43.97 17.7 43.97 17.66 48.1 21.79 48.06 21.79"/><polygon class="cls-89" points="48.02 21.79 43.97 17.74 43.97 17.7 48.06 21.79 48.02 21.79"/><polygon class="cls-90" points="47.98 21.79 43.97 17.78 43.97 17.74 48.02 21.79 47.98 21.79"/><polygon class="cls-91" points="47.94 21.79 43.97 17.82 43.97 17.78 47.98 21.79 47.94 21.79"/><polygon class="cls-92" points="47.9 21.79 43.97 17.86 43.97 17.82 47.94 21.79 47.9 21.79"/><polygon class="cls-93" points="47.86 21.79 43.97 17.9 43.97 17.86 47.9 21.79 47.86 21.79"/><polygon class="cls-94" points="47.82 21.79 43.97 17.94 43.97 17.9 47.86 21.79 47.82 21.79"/><polygon class="cls-95" points="47.78 21.79 43.97 17.98 43.97 17.94 47.82 21.79 47.78 21.79"/><polygon class="cls-96" points="47.73 21.79 43.97 18.02 43.97 17.98 47.78 21.79 47.73 21.79"/><polygon class="cls-97" points="47.69 21.79 43.97 18.07 43.97 18.02 47.73 21.79 47.69 21.79"/><polygon class="cls-98" points="47.65 21.79 43.97 18.11 43.97 18.07 47.69 21.79 47.65 21.79"/><polygon class="cls-99" points="47.61 21.79 43.97 18.15 43.97 18.11 47.65 21.79 47.61 21.79"/><polygon class="cls-100" points="47.57 21.79 43.97 18.19 43.97 18.15 47.61 21.79 47.57 21.79"/><polygon class="cls-101" points="47.53 21.79 43.97 18.23 43.97 18.19 47.57 21.79 47.53 21.79"/><polygon class="cls-101" points="43.97 18.23 47.53 21.79 43.97 21.79 43.97 18.23"/></g></g></g></svg>