<svg xmlns="http://www.w3.org/2000/svg" xmlns:xlink="http://www.w3.org/1999/xlink" viewBox="0 0 992.08 92.77"><defs><style>.cls-1,.cls-2,.cls-3,.cls-4,.cls-5{fill:none;stroke-miterlimit:10;}.cls-1,.cls-2,.cls-3{stroke-width:4px;}.cls-1{stroke:url(#Gradiente_sem_nome_149);}.cls-2{stroke:url(#Gradiente_sem_nome_149-2);}.cls-3{stroke:url(#Gradiente_sem_nome_149-3);}.cls-4,.cls-5{stroke:#b4b4b4;stroke-width:2px;}.cls-5{stroke-dasharray:8.67 14.44;}.cls-6{fill:#222221;}</style><linearGradient id="Gradiente_sem_nome_149" y1="45.66" x2="73.32" y2="45.66" gradientUnits="userSpaceOnUse"><stop offset="0" stop-color="#58b75b"/><stop offset="1" stop-color="#336fbc"/></linearGradient><linearGradient id="Gradiente_sem_nome_149-2" x1="346.44" y1="45.66" x2="419.76" y2="45.66" xlink:href="#Gradiente_sem_nome_149"/><linearGradient id="Gradiente_sem_nome_149-3" x1="753.13" y1="45.66" x2="826.44" y2="45.66" xlink:href="#Gradiente_sem_nome_149"/></defs><title>CHAT_3_STEPS</title><g id="Camada_2" data-name="Camada 2"><g id="Camada_2-2" data-name="Camada 2"><path d="M39.8,33.92V59.65H36.54V38L30,40.37V37.43l9.3-3.51Z"/><path d="M392.55,57v2.67H375.8V57.31L384.18,48a35.25,35.25,0,0,0,2.4-2.93,9.23,9.23,0,0,0,1.2-2.16,5.74,5.74,0,0,0,.34-2,5,5,0,0,0-.52-2.29A4,4,0,0,0,386.08,37a4.53,4.53,0,0,0-2.42-.61,5.55,5.55,0,0,0-2.84.66,4.17,4.17,0,0,0-1.7,1.83,6.31,6.31,0,0,0-.56,2.71h-3.25a8.21,8.21,0,0,1,.95-3.95,7,7,0,0,1,2.81-2.86,9.11,9.11,0,0,1,4.59-1.06,9.21,9.21,0,0,1,4.14.85A6.22,6.22,0,0,1,390.45,37a6.78,6.78,0,0,1,.92,3.59,7.08,7.08,0,0,1-.38,2.28,11.88,11.88,0,0,1-1,2.29,17.87,17.87,0,0,1-1.53,2.25c-.58.74-1.2,1.47-1.86,2.18L379.72,57Z"/><path d="M787.71,47.93V46h2.78a12.13,12.13,0,0,1,4,.58,6.49,6.49,0,0,1,2.52,1.55,5.67,5.67,0,0,1,1.31,2.12,7.36,7.36,0,0,1,.37,2.29,8,8,0,0,1-.6,3.19,6.73,6.73,0,0,1-1.71,2.35,7.32,7.32,0,0,1-2.57,1.46,10.11,10.11,0,0,1-3.22.49,10.37,10.37,0,0,1-3.14-.47,8.14,8.14,0,0,1-2.59-1.38,6.39,6.39,0,0,1-1.76-2.23,7,7,0,0,1-.63-3h3.25a4.57,4.57,0,0,0,.59,2.34A3.94,3.94,0,0,0,788,56.78a5.65,5.65,0,0,0,2.59.55,5.81,5.81,0,0,0,2.57-.52,3.63,3.63,0,0,0,1.67-1.57,5.32,5.32,0,0,0,.59-2.66A4.76,4.76,0,0,0,794.8,50a4,4,0,0,0-1.89-1.53,7.49,7.49,0,0,0-2.88-.5Zm0-2.68H790a6.15,6.15,0,0,0,2.82-.57,3.84,3.84,0,0,0,1.67-1.56,4.51,4.51,0,0,0,.56-2.24,5.56,5.56,0,0,0-.5-2.48,3.26,3.26,0,0,0-1.47-1.51,5.42,5.42,0,0,0-2.5-.51,5.35,5.35,0,0,0-2.42.53,4.05,4.05,0,0,0-1.63,1.52,4.47,4.47,0,0,0-.59,2.32h-3.25a6.7,6.7,0,0,1,1-3.55,7.2,7.2,0,0,1,2.77-2.55,8.72,8.72,0,0,1,4.14-.94,9.52,9.52,0,0,1,4.06.81A6.21,6.21,0,0,1,797.38,37a7.67,7.67,0,0,1,1,4A5.45,5.45,0,0,1,797.9,43a6.16,6.16,0,0,1-1.39,2.05,7.32,7.32,0,0,1-2.44,1.56,9.58,9.58,0,0,1-3.58.6h-2.78Z"/></g><g id="Layer_10" data-name="Layer 10"><circle class="cls-1" cx="36.66" cy="45.66" r="34.66"/><circle class="cls-2" cx="383.1" cy="45.66" r="34.66"/><circle class="cls-3" cx="789.79" cy="45.66" r="34.66"/><path d="M111.84,15v11.1a4.86,4.86,0,0,1-1.22,3.51,4.52,4.52,0,0,1-3.43,1.25,4.61,4.61,0,0,1-3.46-1.23A5,5,0,0,1,102.54,26V15h1.22V26q0,3.71,3.43,3.7t3.41-3.6V15Z"/><path d="M123,25.33a7.28,7.28,0,0,1-.94,4.08,3.13,3.13,0,0,1-2.79,1.4,3.32,3.32,0,0,1-3-1.61v5.86H115V19h1.1l0,1.59a3.29,3.29,0,0,1,3-1.8A3.2,3.2,0,0,1,122,20.09a7.14,7.14,0,0,1,1,4.07Zm-1.19-1.09a6,6,0,0,0-.7-3.28,2.4,2.4,0,0,0-2.16-1.05,2.78,2.78,0,0,0-2.7,1.92v6.11a2.79,2.79,0,0,0,2.72,1.75,2.37,2.37,0,0,0,2.13-1.05,6.08,6.08,0,0,0,.71-3.24Z"/><path d="M127.07,30.6h-1.2V14.1h1.2Z"/><path d="M129.92,24.19a6.29,6.29,0,0,1,1.14-4,4,4,0,0,1,6.21,0,6.28,6.28,0,0,1,1.15,4V25.4a6.22,6.22,0,0,1-1.15,4,4.07,4.07,0,0,1-6.17,0,6.08,6.08,0,0,1-1.18-3.84Zm1.2,1.2a5.36,5.36,0,0,0,.81,3.15,2.81,2.81,0,0,0,4.5.05,5.45,5.45,0,0,0,.79-3.17V24.19a5.41,5.41,0,0,0-.81-3.16,2.62,2.62,0,0,0-2.25-1.16A2.58,2.58,0,0,0,132,21a5.38,5.38,0,0,0-.84,3.1Z"/><path d="M147.31,30.6A7.17,7.17,0,0,1,147.1,29a3.87,3.87,0,0,1-1.38,1.35,3.69,3.69,0,0,1-1.84.48,3.13,3.13,0,0,1-2.34-.85,3.28,3.28,0,0,1-.84-2.42,3.36,3.36,0,0,1,1.17-2.7,4.83,4.83,0,0,1,3.22-1h2V22.21a2.28,2.28,0,0,0-.62-1.79,2.68,2.68,0,0,0-1.81-.55,2.6,2.6,0,0,0-1.82.65,2.15,2.15,0,0,0-.71,1.66h-1.19A3.19,3.19,0,0,1,142,19.75a3.84,3.84,0,0,1,2.7-1,3.62,3.62,0,0,1,2.65.88,3.4,3.4,0,0,1,.91,2.57v5.7a7.86,7.86,0,0,0,.31,2.56v.13ZM144,29.66a3.24,3.24,0,0,0,3.06-2V24.83h-1.9a3.8,3.8,0,0,0-2.46.72,2.36,2.36,0,0,0-.82,1.9C141.91,28.92,142.62,29.66,144,29.66Z"/><path d="M151.09,24.25a7.21,7.21,0,0,1,1-4.11,3.22,3.22,0,0,1,2.83-1.38,3.18,3.18,0,0,1,3,1.77V14.1H159V30.6h-1.12l0-1.5a3.48,3.48,0,0,1-5.79.31,7.09,7.09,0,0,1-1-4Zm1.22,1.08a6.25,6.25,0,0,0,.67,3.29,2.34,2.34,0,0,0,2.13,1.05,2.85,2.85,0,0,0,2.73-1.79v-6a2.8,2.8,0,0,0-2.72-1.94A2.34,2.34,0,0,0,153,21a6,6,0,0,0-.68,3.22Z"/><path d="M170.29,28.63,173.06,19h1.28l-4.09,13.48-.23.65c-.55,1.46-1.4,2.19-2.54,2.19a2.68,2.68,0,0,1-.85-.15l0-1.1a1.92,1.92,0,0,0,.55.08,1.82,1.82,0,0,0,1.27-.46,3.49,3.49,0,0,0,.82-1.5l.49-1.64L166.09,19h1.31Z"/><path d="M175.79,24.19a6.29,6.29,0,0,1,1.14-4,4,4,0,0,1,6.21,0,6.28,6.28,0,0,1,1.15,4V25.4a6.22,6.22,0,0,1-1.15,4,4.07,4.07,0,0,1-6.17,0,6.08,6.08,0,0,1-1.18-3.84Zm1.2,1.2a5.36,5.36,0,0,0,.81,3.15,2.81,2.81,0,0,0,4.5.05,5.45,5.45,0,0,0,.79-3.17V24.19a5.41,5.41,0,0,0-.81-3.16A2.62,2.62,0,0,0,180,19.87a2.58,2.58,0,0,0-2.2,1.13,5.31,5.31,0,0,0-.84,3.1Z"/><path d="M193.27,29.21a3.34,3.34,0,0,1-3.07,1.6,2.77,2.77,0,0,1-2.38-1.1,5.43,5.43,0,0,1-.82-3.22V19h1.18v7.49a4.3,4.3,0,0,0,.56,2.4,1.85,1.85,0,0,0,1.61.81,2.75,2.75,0,0,0,2.89-2.19V19h1.21V30.6h-1.16Z"/><path d="M202.18,20.09a4.47,4.47,0,0,0-.75-.08,2.26,2.26,0,0,0-1.66.68,3.85,3.85,0,0,0-1,1.88v8h-1.19V19h1.17l0,1.74a2.79,2.79,0,0,1,2.66-1.95,1.39,1.39,0,0,1,.72.14Z"/><path d="M110.42,52.56a7.39,7.39,0,0,1-.93,4.09,3.15,3.15,0,0,1-2.8,1.39,3.29,3.29,0,0,1-3-1.61V62.3h-1.19V46.21h1.1l0,1.58a3.3,3.3,0,0,1,3-1.8,3.21,3.21,0,0,1,2.82,1.33,7.26,7.26,0,0,1,.94,4.07Zm-1.19-1.09a6.11,6.11,0,0,0-.69-3.28,2.43,2.43,0,0,0-2.17-1,2.76,2.76,0,0,0-2.69,1.92v6.12a2.78,2.78,0,0,0,2.71,1.75,2.38,2.38,0,0,0,2.14-1.06,6.09,6.09,0,0,0,.7-3.24Z"/><path d="M117.75,47.32a4.44,4.44,0,0,0-.75-.07,2.23,2.23,0,0,0-1.66.67,3.81,3.81,0,0,0-1,1.88v8h-1.2V46.21h1.17l0,1.74a2.79,2.79,0,0,1,2.66-2,1.56,1.56,0,0,1,.72.14Z"/><path d="M119.18,51.43a6.32,6.32,0,0,1,1.14-4,4,4,0,0,1,6.21,0,6.22,6.22,0,0,1,1.14,4v1.24a6.22,6.22,0,0,1-1.14,4A3.72,3.72,0,0,1,123.44,58a3.77,3.77,0,0,1-3.08-1.39,6.11,6.11,0,0,1-1.18-3.85Zm1.2,1.19a5.41,5.41,0,0,0,.81,3.16,2.61,2.61,0,0,0,2.25,1.15,2.58,2.58,0,0,0,2.25-1.11,5.52,5.52,0,0,0,.79-3.16V51.42a5.41,5.41,0,0,0-.81-3.16,2.62,2.62,0,0,0-2.25-1.15,2.57,2.57,0,0,0-2.2,1.12,5.27,5.27,0,0,0-.84,3.11Z"/><path d="M130,51.48a7.21,7.21,0,0,1,1-4.11A3.23,3.23,0,0,1,133.79,46a3.17,3.17,0,0,1,3,1.77V41.33h1.19v16.5h-1.11l-.06-1.49a3.22,3.22,0,0,1-3,1.7,3.18,3.18,0,0,1-2.8-1.39,7.13,7.13,0,0,1-1-4Zm1.22,1.08a6.25,6.25,0,0,0,.67,3.29,2.35,2.35,0,0,0,2.13,1,2.84,2.84,0,0,0,2.73-1.79v-6A2.79,2.79,0,0,0,134,47.14a2.36,2.36,0,0,0-2.13,1,6.05,6.05,0,0,0-.68,3.22Z"/><path d="M147.39,56.44a3.34,3.34,0,0,1-3.07,1.6A2.77,2.77,0,0,1,141.94,57a5.47,5.47,0,0,1-.82-3.23V46.21h1.18v7.48a4.28,4.28,0,0,0,.56,2.4,1.85,1.85,0,0,0,1.61.81,2.75,2.75,0,0,0,2.89-2.19v-8.5h1.21V57.83h-1.16Z"/><path d="M155.42,56.93a2.53,2.53,0,0,0,1.91-.7,2.9,2.9,0,0,0,.72-2h1.15a4,4,0,0,1-1.14,2.8,3.67,3.67,0,0,1-2.64,1,3.77,3.77,0,0,1-3.13-1.32,6.27,6.27,0,0,1-1.08-3.94V51.36a6.45,6.45,0,0,1,1.06-4A3.74,3.74,0,0,1,155.41,46a3.52,3.52,0,0,1,2.73,1.09,4.6,4.6,0,0,1,1.06,3.05h-1.15a3.5,3.5,0,0,0-.73-2.23,2.37,2.37,0,0,0-1.91-.79,2.56,2.56,0,0,0-2.27,1,5.58,5.58,0,0,0-.73,3.2v1.32a5.68,5.68,0,0,0,.73,3.24A2.62,2.62,0,0,0,155.42,56.93Z"/><path d="M163.52,43.24v3h2v1.07h-2V55a2.83,2.83,0,0,0,.29,1.43,1,1,0,0,0,.95.46,5.11,5.11,0,0,0,.86-.1l0,1.07a3,3,0,0,1-1.17.18c-1.4,0-2.12-1-2.15-2.88V47.28h-1.8V46.21h1.8v-3Z"/><path d="M102.06,78.71a7.21,7.21,0,0,1,1-4.11,3.23,3.23,0,0,1,2.84-1.38,3.16,3.16,0,0,1,3,1.78V68.56H110v16.5h-1.11l-.06-1.49a3.47,3.47,0,0,1-5.78.31,7.09,7.09,0,0,1-1-4Zm1.22,1.09a6.27,6.27,0,0,0,.67,3.29,2.35,2.35,0,0,0,2.13,1,2.84,2.84,0,0,0,2.73-1.8v-6a2.79,2.79,0,0,0-2.72-1.95,2.35,2.35,0,0,0-2.13,1,6.1,6.1,0,0,0-.68,3.22Z"/><path d="M117.06,85.28a4,4,0,0,1-3.21-1.35,5.74,5.74,0,0,1-1.18-3.82V78.69a6.48,6.48,0,0,1,1.11-4,3.68,3.68,0,0,1,3.08-1.46,3.49,3.49,0,0,1,2.88,1.24,6.09,6.09,0,0,1,1,3.78v1.12h-6.91V80a4.92,4.92,0,0,0,.85,3.09,2.91,2.91,0,0,0,2.41,1.08,3.48,3.48,0,0,0,2.79-1.26l.62.8A4,4,0,0,1,117.06,85.28Zm-.2-10.94a2.58,2.58,0,0,0-2.17,1,5.16,5.16,0,0,0-.83,2.91h5.7v-.31C119.51,75.54,118.6,74.34,116.86,74.34Z"/><path d="M129.1,82.2a1.76,1.76,0,0,0-.62-1.32,8.92,8.92,0,0,0-2.11-1.23,11.92,11.92,0,0,1-2.08-1.11,3.16,3.16,0,0,1-.87-1,2.55,2.55,0,0,1-.28-1.24,2.84,2.84,0,0,1,1-2.22,3.6,3.6,0,0,1,2.5-.88,3.7,3.7,0,0,1,2.64.94,3.24,3.24,0,0,1,1,2.47h-1.19a2.18,2.18,0,0,0-.68-1.64,2.78,2.78,0,0,0-3.43-.11,1.76,1.76,0,0,0-.62,1.39,1.49,1.49,0,0,0,.47,1.14,9.53,9.53,0,0,0,2,1.2,12,12,0,0,1,2.23,1.17,3.13,3.13,0,0,1,.92,1,2.71,2.71,0,0,1,.32,1.34,2.88,2.88,0,0,1-1,2.29,4,4,0,0,1-2.64.85,4.05,4.05,0,0,1-2.79-1,3.08,3.08,0,0,1-1.07-2.44H124a2.31,2.31,0,0,0,.73,1.68,2.84,2.84,0,0,0,1.93.59,2.73,2.73,0,0,0,1.77-.54A1.73,1.73,0,0,0,129.1,82.2Z"/><path d="M136.78,84.16a2.53,2.53,0,0,0,1.92-.7,3,3,0,0,0,.72-2h1.14a4,4,0,0,1-1.13,2.8,3.68,3.68,0,0,1-2.65,1A3.79,3.79,0,0,1,133.65,84,6.38,6.38,0,0,1,132.57,80V78.59a6.4,6.4,0,0,1,1.06-4,3.73,3.73,0,0,1,3.14-1.36,3.52,3.52,0,0,1,2.73,1.09,4.57,4.57,0,0,1,1.06,3h-1.14a3.52,3.52,0,0,0-.74-2.23,2.36,2.36,0,0,0-1.91-.79,2.58,2.58,0,0,0-2.27,1,5.7,5.7,0,0,0-.72,3.2V79.9a5.64,5.64,0,0,0,.73,3.25A2.61,2.61,0,0,0,136.78,84.16Z"/><path d="M147.64,74.56a4.36,4.36,0,0,0-.75-.08,2.26,2.26,0,0,0-1.66.68,3.85,3.85,0,0,0-.95,1.88v8h-1.19V73.44h1.17l0,1.74a2.81,2.81,0,0,1,2.67-2,1.56,1.56,0,0,1,.72.14Z"/><path d="M149.7,70.09a1,1,0,0,1,.2-.63.7.7,0,0,1,.58-.25.72.72,0,0,1,.59.25,1,1,0,0,1,.2.63,1,1,0,0,1-.2.61.73.73,0,0,1-.59.26.71.71,0,0,1-.58-.26A.9.9,0,0,1,149.7,70.09Zm1.37,15h-1.2V73.44h1.2Z"/><path d="M162.3,79.8a7.37,7.37,0,0,1-.94,4.08,3.13,3.13,0,0,1-2.79,1.4,3.32,3.32,0,0,1-3-1.61v5.86h-1.18V73.44h1.09l.06,1.59a3.3,3.3,0,0,1,3-1.81,3.2,3.2,0,0,1,2.81,1.34,7.2,7.2,0,0,1,1,4.07Zm-1.2-1.09a6.15,6.15,0,0,0-.69-3.29,2.4,2.4,0,0,0-2.16-1,2.78,2.78,0,0,0-2.7,1.92v6.12a2.78,2.78,0,0,0,2.72,1.75,2.37,2.37,0,0,0,2.13-1,6,6,0,0,0,.7-3.24Z"/><path d="M166.86,70.47v3h2v1.07h-2v7.73a2.79,2.79,0,0,0,.29,1.42,1,1,0,0,0,.95.47A5.38,5.38,0,0,0,169,84l0,1.07a2.79,2.79,0,0,1-1.17.19c-1.4,0-2.12-1-2.15-2.88V74.51h-1.79V73.44h1.79v-3Z"/><path d="M171.41,70.09a1,1,0,0,1,.2-.63.7.7,0,0,1,.58-.25.69.69,0,0,1,.58.25,1,1,0,0,1,.21.63.9.9,0,0,1-.21.61.7.7,0,0,1-.58.26.71.71,0,0,1-.58-.26A.9.9,0,0,1,171.41,70.09Zm1.37,15h-1.2V73.44h1.2Z"/><path d="M175.63,78.66a6.32,6.32,0,0,1,1.14-4,4,4,0,0,1,6.21,0,6.23,6.23,0,0,1,1.14,4v1.23a6.23,6.23,0,0,1-1.14,4,4.07,4.07,0,0,1-6.17,0A6.09,6.09,0,0,1,175.63,80Zm1.2,1.2a5.38,5.38,0,0,0,.81,3.15,2.81,2.81,0,0,0,4.5,0,5.49,5.49,0,0,0,.79-3.16V78.65a5.44,5.44,0,0,0-.81-3.16,2.64,2.64,0,0,0-2.25-1.15,2.58,2.58,0,0,0-2.2,1.13,5.21,5.21,0,0,0-.84,3.1Z"/><path d="M188,73.44l0,1.85a4.43,4.43,0,0,1,1.32-1.51,3.11,3.11,0,0,1,1.82-.56q3,0,3.12,4v7.79h-1.18V77.4a4,4,0,0,0-.55-2.3,2,2,0,0,0-1.69-.74,2.4,2.4,0,0,0-1.68.71A4.32,4.32,0,0,0,188.07,77v8.07h-1.2V73.44Z"/><path d="M448,15h1.24v11a5.36,5.36,0,0,1-1.1,3.56,3.58,3.58,0,0,1-2.91,1.31,3.72,3.72,0,0,1-3-1.19,4.85,4.85,0,0,1-1-3.33h1.22a3.78,3.78,0,0,0,.74,2.54,2.56,2.56,0,0,0,2,.84,2.4,2.4,0,0,0,2-1A4.34,4.34,0,0,0,448,26Z"/><path d="M458.82,29.21a3.34,3.34,0,0,1-3.06,1.6,2.76,2.76,0,0,1-2.38-1.1,5.43,5.43,0,0,1-.82-3.22V19h1.18v7.49a4.3,4.3,0,0,0,.56,2.4,1.83,1.83,0,0,0,1.61.81,2.75,2.75,0,0,0,2.89-2.19V19H460V30.6h-1.16Z"/><path d="M469,27.73a1.69,1.69,0,0,0-.62-1.31,8.1,8.1,0,0,0-2.11-1.23,12.19,12.19,0,0,1-2.08-1.12,3.13,3.13,0,0,1-.87-1,2.71,2.71,0,0,1-.28-1.25,2.9,2.9,0,0,1,1-2.22,3.59,3.59,0,0,1,2.5-.87,3.71,3.71,0,0,1,2.65.93,3.28,3.28,0,0,1,1,2.47h-1.19a2.16,2.16,0,0,0-.68-1.64,2.78,2.78,0,0,0-3.43-.11,1.79,1.79,0,0,0-.62,1.4,1.5,1.5,0,0,0,.48,1.14,9.21,9.21,0,0,0,2,1.19A12,12,0,0,1,469,25.31a3.32,3.32,0,0,1,.93,1,2.78,2.78,0,0,1,.31,1.33,2.86,2.86,0,0,1-1,2.29,3.9,3.9,0,0,1-2.63.85,4,4,0,0,1-2.8-.95,3.11,3.11,0,0,1-1.07-2.43h1.2a2.29,2.29,0,0,0,.73,1.67,2.81,2.81,0,0,0,1.94.59,2.77,2.77,0,0,0,1.76-.53A1.76,1.76,0,0,0,469,27.73Z"/><path d="M474.8,16v3h2v1.08h-2v7.72a2.78,2.78,0,0,0,.28,1.42,1,1,0,0,0,.95.47,4.41,4.41,0,0,0,.86-.11l0,1.08a3,3,0,0,1-1.17.18c-1.39,0-2.11-1-2.15-2.88V20.05h-1.79V19h1.79V16Z"/><path d="M490.14,27.73a1.7,1.7,0,0,0-.63-1.31,8.1,8.1,0,0,0-2.11-1.23,12.19,12.19,0,0,1-2.08-1.12,3.13,3.13,0,0,1-.87-1,2.71,2.71,0,0,1-.28-1.25,2.9,2.9,0,0,1,1-2.22,3.59,3.59,0,0,1,2.5-.87,3.71,3.71,0,0,1,2.65.93,3.28,3.28,0,0,1,1,2.47h-1.19a2.16,2.16,0,0,0-.68-1.64,2.78,2.78,0,0,0-3.43-.11,1.78,1.78,0,0,0-.61,1.4,1.49,1.49,0,0,0,.47,1.14,9.21,9.21,0,0,0,2,1.19,12,12,0,0,1,2.23,1.17,3.32,3.32,0,0,1,.93,1,2.78,2.78,0,0,1,.31,1.33,2.83,2.83,0,0,1-1,2.29,3.9,3.9,0,0,1-2.63.85,4,4,0,0,1-2.8-.95,3.11,3.11,0,0,1-1.07-2.43H485a2.29,2.29,0,0,0,.73,1.67,2.81,2.81,0,0,0,1.94.59,2.77,2.77,0,0,0,1.76-.53A1.77,1.77,0,0,0,490.14,27.73Z"/><path d="M500.29,30.6a7.69,7.69,0,0,1-.22-1.62,3.87,3.87,0,0,1-1.38,1.35,3.63,3.63,0,0,1-1.83.48,3.13,3.13,0,0,1-2.34-.85,3.28,3.28,0,0,1-.84-2.42,3.36,3.36,0,0,1,1.17-2.7,4.78,4.78,0,0,1,3.21-1h2V22.21a2.25,2.25,0,0,0-.62-1.79,2.66,2.66,0,0,0-1.81-.55,2.59,2.59,0,0,0-1.81.65,2.15,2.15,0,0,0-.71,1.66h-1.19A3.15,3.15,0,0,1,495,19.75a3.84,3.84,0,0,1,2.7-1,3.64,3.64,0,0,1,2.65.88,3.44,3.44,0,0,1,.9,2.57v5.7a8.15,8.15,0,0,0,.31,2.56v.13ZM497,29.66a3.21,3.21,0,0,0,1.86-.55,3.16,3.16,0,0,0,1.19-1.46V24.83h-1.89a3.76,3.76,0,0,0-2.46.72,2.37,2.37,0,0,0-.83,1.9C494.88,28.92,495.59,29.66,497,29.66Z"/><path d="M507.43,28.63,510.2,19h1.28l-4.09,13.48-.23.65c-.55,1.46-1.39,2.19-2.53,2.19a2.69,2.69,0,0,1-.86-.15V34a1.95,1.95,0,0,0,1.81-.38,3.49,3.49,0,0,0,.82-1.5l.49-1.64L503.23,19h1.31Z"/><path d="M520.93,28l.1.65.13-.7L523.53,19h1l2.35,8.85.18.92.14-.82,2-9h1.23L527.58,30.6h-1l-2.52-9.24,0-.28,0,.29-2.48,9.23h-1L517.65,19h1.21Z"/><path d="M534,20.8a4.4,4.4,0,0,1,1.3-1.49,3.07,3.07,0,0,1,1.81-.55q3,0,3.12,4V30.6h-1.18V22.94a4,4,0,0,0-.55-2.3,1.93,1.93,0,0,0-1.69-.74,2.39,2.39,0,0,0-1.68.7A4.4,4.4,0,0,0,534,22.53V30.6h-1.19V14.1H534Z"/><path d="M549.56,30.6a7.17,7.17,0,0,1-.21-1.62A3.87,3.87,0,0,1,548,30.33a3.69,3.69,0,0,1-1.84.48,3.13,3.13,0,0,1-2.34-.85,3.28,3.28,0,0,1-.84-2.42,3.36,3.36,0,0,1,1.17-2.7,4.83,4.83,0,0,1,3.22-1h2V22.21a2.28,2.28,0,0,0-.62-1.79,2.68,2.68,0,0,0-1.81-.55,2.62,2.62,0,0,0-1.82.65,2.15,2.15,0,0,0-.71,1.66h-1.19a3.16,3.16,0,0,1,1.08-2.42,3.8,3.8,0,0,1,2.69-1,3.62,3.62,0,0,1,2.65.88,3.4,3.4,0,0,1,.91,2.57v5.7a7.86,7.86,0,0,0,.31,2.56v.13Zm-3.28-.94a3.24,3.24,0,0,0,3.06-2V24.83h-1.9a3.8,3.8,0,0,0-2.46.72,2.36,2.36,0,0,0-.82,1.9C544.16,28.92,544.87,29.66,546.28,29.66Z"/><path d="M555.57,16v3h2v1.08h-2v7.72a2.78,2.78,0,0,0,.28,1.42,1,1,0,0,0,.95.47,4.41,4.41,0,0,0,.86-.11l0,1.08a3,3,0,0,1-1.17.18c-1.39,0-2.11-1-2.15-2.88V20.05h-1.79V19h1.79V16Z"/><path d="M566.89,16v3h2v1.08h-2v7.72a2.78,2.78,0,0,0,.28,1.42,1,1,0,0,0,1,.47,4.33,4.33,0,0,0,.86-.11l0,1.08a3.07,3.07,0,0,1-1.18.18c-1.39,0-2.11-1-2.14-2.88V20.05h-1.8V19h1.8V16Z"/><path d="M574.57,28.63,577.34,19h1.28l-4.09,13.48-.23.65c-.55,1.46-1.4,2.19-2.53,2.19a2.69,2.69,0,0,1-.86-.15V34a1.95,1.95,0,0,0,1.81-.38,3.49,3.49,0,0,0,.82-1.5l.49-1.64L570.37,19h1.31Z"/><path d="M588.61,25.33a7.28,7.28,0,0,1-.94,4.08,3.13,3.13,0,0,1-2.79,1.4,3.32,3.32,0,0,1-3-1.61v5.86h-1.18V19h1.1l.05,1.59a3.29,3.29,0,0,1,3-1.8,3.2,3.2,0,0,1,2.81,1.33,7.14,7.14,0,0,1,1,4.07Zm-1.19-1.09a6,6,0,0,0-.7-3.28,2.4,2.4,0,0,0-2.16-1.05,2.78,2.78,0,0,0-2.7,1.92v6.11a2.79,2.79,0,0,0,2.72,1.75,2.37,2.37,0,0,0,2.13-1.05,6.08,6.08,0,0,0,.71-3.24Z"/><path d="M595.22,30.81A4.06,4.06,0,0,1,592,29.47a5.82,5.82,0,0,1-1.18-3.83V24.23a6.42,6.42,0,0,1,1.12-4A3.65,3.65,0,0,1,595,18.76,3.51,3.51,0,0,1,597.9,20a6.07,6.07,0,0,1,1,3.78v1.12H592v.66a4.87,4.87,0,0,0,.86,3.08,2.89,2.89,0,0,0,2.41,1.08,3.46,3.46,0,0,0,2.78-1.25l.62.79A4,4,0,0,1,595.22,30.81ZM595,19.87a2.55,2.55,0,0,0-2.16,1,5,5,0,0,0-.84,2.9h5.71v-.31Q597.63,19.88,595,19.87Z"/><path d="M605.94,24.19a6.35,6.35,0,0,1,1.13-4,4.06,4.06,0,0,1,6.22,0,6.28,6.28,0,0,1,1.14,4V25.4a6.22,6.22,0,0,1-1.14,4,4.07,4.07,0,0,1-6.17,0,6,6,0,0,1-1.18-3.84Zm1.2,1.2a5.36,5.36,0,0,0,.81,3.15,2.81,2.81,0,0,0,4.5.05,5.53,5.53,0,0,0,.79-3.17V24.19a5.34,5.34,0,0,0-.82-3.16A2.72,2.72,0,0,0,608,21a5.23,5.23,0,0,0-.84,3.1Z"/><path d="M618,30.6V20.05h-1.6V19H618V17.45a4.08,4.08,0,0,1,.8-2.66,2.67,2.67,0,0,1,2.15-.92,3.51,3.51,0,0,1,1.15.18l-.09,1.1a3.83,3.83,0,0,0-1-.12,1.61,1.61,0,0,0-1.36.65,3,3,0,0,0-.49,1.86V19h2.28v1.08h-2.28V30.6Z"/><path d="M441.54,51.43a6.32,6.32,0,0,1,1.14-4,4,4,0,0,1,6.21,0,6.22,6.22,0,0,1,1.14,4v1.24a6.22,6.22,0,0,1-1.14,4A3.72,3.72,0,0,1,445.8,58a3.77,3.77,0,0,1-3.08-1.39,6.11,6.11,0,0,1-1.18-3.85Zm1.2,1.19a5.41,5.41,0,0,0,.81,3.16,2.61,2.61,0,0,0,2.25,1.15,2.58,2.58,0,0,0,2.25-1.11,5.44,5.44,0,0,0,.79-3.16V51.42a5.41,5.41,0,0,0-.81-3.16,2.62,2.62,0,0,0-2.25-1.15,2.57,2.57,0,0,0-2.2,1.12,5.27,5.27,0,0,0-.84,3.11Z"/><path d="M460.71,52.56a7.39,7.39,0,0,1-.93,4.09A3.15,3.15,0,0,1,457,58a3.29,3.29,0,0,1-3-1.61V62.3h-1.19V46.21h1.1l.05,1.58a3.3,3.3,0,0,1,3-1.8,3.21,3.21,0,0,1,2.82,1.33,7.17,7.17,0,0,1,.94,4.07Zm-1.19-1.09a6.11,6.11,0,0,0-.69-3.28,2.42,2.42,0,0,0-2.17-1A2.76,2.76,0,0,0,454,49.06v6.12a2.78,2.78,0,0,0,2.71,1.75,2.38,2.38,0,0,0,2.14-1.06,6.09,6.09,0,0,0,.7-3.24Z"/><path d="M465.28,43.24v3h2v1.07h-2V55a2.84,2.84,0,0,0,.28,1.43,1,1,0,0,0,.95.46,5,5,0,0,0,.86-.1l0,1.07a3,3,0,0,1-1.17.18c-1.39,0-2.11-1-2.14-2.88V47.28h-1.8V46.21h1.8v-3Z"/><path d="M469.82,42.85a1,1,0,0,1,.21-.62.7.7,0,0,1,.58-.26.71.71,0,0,1,.58.26,1,1,0,0,1,.21.62.93.93,0,0,1-.21.62.7.7,0,0,1-.58.25.69.69,0,0,1-.58-.25A.93.93,0,0,1,469.82,42.85Zm1.38,15H470V46.21h1.21Z"/><path d="M475.59,46.21l0,1.74a3.4,3.4,0,0,1,3.12-2,2.77,2.77,0,0,1,2.9,2.14,3.89,3.89,0,0,1,1.41-1.6,3.52,3.52,0,0,1,1.89-.54q3.13,0,3.21,4v7.8H487V50.1a4,4,0,0,0-.56-2.24,2,2,0,0,0-1.76-.73,2.47,2.47,0,0,0-1.87.86,3.45,3.45,0,0,0-.87,2.1v7.74h-1.21V50.14a3.77,3.77,0,0,0-.56-2.27,2.08,2.08,0,0,0-1.76-.74,2.35,2.35,0,0,0-1.69.68,3.93,3.93,0,0,0-1,1.93v8.09h-1.19V46.21Z"/><path d="M491.22,42.85a1,1,0,0,1,.2-.62A.71.71,0,0,1,492,42a.73.73,0,0,1,.59.26,1,1,0,0,1,.21.62.93.93,0,0,1-.21.62.72.72,0,0,1-.59.25.7.7,0,0,1-.58-.25A1,1,0,0,1,491.22,42.85Zm1.38,15h-1.21V46.21h1.21Z"/><path d="M496.72,56.71H503v1.12H495.3v-1l5.88-9.53h-5.72V46.21h7.17v1Z"/><path d="M511.49,57.83a7.07,7.07,0,0,1-.21-1.61,3.87,3.87,0,0,1-1.38,1.35,3.79,3.79,0,0,1-1.84.47,3.13,3.13,0,0,1-2.34-.85,3.27,3.27,0,0,1-.84-2.41,3.38,3.38,0,0,1,1.17-2.71,4.83,4.83,0,0,1,3.22-1h2V49.44a2.28,2.28,0,0,0-.62-1.79,2.68,2.68,0,0,0-1.81-.54,2.59,2.59,0,0,0-1.82.64,2.17,2.17,0,0,0-.71,1.67h-1.19A3.21,3.21,0,0,1,506.19,47a3.84,3.84,0,0,1,2.7-1,3.62,3.62,0,0,1,2.65.88,3.4,3.4,0,0,1,.91,2.57v5.7a7.86,7.86,0,0,0,.31,2.56v.13Zm-3.28-.94a3.2,3.2,0,0,0,3.06-2V52.06h-1.9a3.86,3.86,0,0,0-2.46.72,2.38,2.38,0,0,0-.82,1.9C506.09,56.16,506.8,56.89,508.21,56.89Z"/><path d="M517.5,43.24v3h2v1.07h-2V55a2.84,2.84,0,0,0,.28,1.43,1,1,0,0,0,1,.46,5.11,5.11,0,0,0,.86-.1l0,1.07a3,3,0,0,1-1.17.18c-1.39,0-2.11-1-2.15-2.88V47.28h-1.79V46.21h1.79v-3Z"/><path d="M522,42.85a1,1,0,0,1,.2-.62.71.71,0,0,1,.58-.26.73.73,0,0,1,.59.26,1,1,0,0,1,.21.62.93.93,0,0,1-.21.62.72.72,0,0,1-.59.25.7.7,0,0,1-.58-.25A1,1,0,0,1,522,42.85Zm1.37,15h-1.2V46.21h1.2Z"/><path d="M526.26,51.43a6.32,6.32,0,0,1,1.14-4,4,4,0,0,1,6.21,0,6.28,6.28,0,0,1,1.15,4v1.24a6.17,6.17,0,0,1-1.15,4A3.72,3.72,0,0,1,530.53,58a3.78,3.78,0,0,1-3.09-1.39,6.11,6.11,0,0,1-1.18-3.85Zm1.2,1.19a5.34,5.34,0,0,0,.82,3.16,2.61,2.61,0,0,0,2.25,1.15,2.58,2.58,0,0,0,2.25-1.11,5.52,5.52,0,0,0,.79-3.16V51.42a5.41,5.41,0,0,0-.82-3.16,2.75,2.75,0,0,0-4.45,0,5.41,5.41,0,0,0-.84,3.11Z"/><path d="M538.65,46.21l0,1.84a4.19,4.19,0,0,1,1.32-1.5,3.11,3.11,0,0,1,1.82-.56q3,0,3.11,4v7.79h-1.18V50.17a4,4,0,0,0-.55-2.3,2,2,0,0,0-1.68-.74,2.39,2.39,0,0,0-1.69.7,4.5,4.5,0,0,0-1.13,1.93v8.07h-1.19V46.21Z"/><path d="M556.14,55.86l2.77-9.65h1.28l-4.1,13.48-.22.64c-.55,1.46-1.4,2.19-2.54,2.19a2.73,2.73,0,0,1-.86-.15V61.28a1.93,1.93,0,0,0,.55.07,1.79,1.79,0,0,0,1.27-.46,3.4,3.4,0,0,0,.81-1.49l.5-1.65-3.65-11.54h1.31Z"/><path d="M561.64,51.43a6.32,6.32,0,0,1,1.13-4,4.06,4.06,0,0,1,6.22,0,6.28,6.28,0,0,1,1.14,4v1.24a6.22,6.22,0,0,1-1.14,4,4.08,4.08,0,0,1-6.17,0,6.05,6.05,0,0,1-1.18-3.85Zm1.2,1.19a5.41,5.41,0,0,0,.81,3.16,2.61,2.61,0,0,0,2.25,1.15,2.58,2.58,0,0,0,2.25-1.11,5.52,5.52,0,0,0,.79-3.16V51.42a5.34,5.34,0,0,0-.82-3.16,2.74,2.74,0,0,0-4.44,0,5.27,5.27,0,0,0-.84,3.11Z"/><path d="M579.11,56.44a3.34,3.34,0,0,1-3.06,1.6A2.75,2.75,0,0,1,573.67,57a5.47,5.47,0,0,1-.82-3.23V46.21H574v7.48a4.28,4.28,0,0,0,.56,2.4,1.83,1.83,0,0,0,1.61.81,2.75,2.75,0,0,0,2.89-2.19v-8.5h1.2V57.83h-1.16Z"/><path d="M590.86,55.19l.1.64.13-.7,2.37-8.92h1l2.36,8.85L597,56l.14-.82,2-8.94h1.22l-2.85,11.62h-1L594,48.59l0-.28-.05.29-2.48,9.23h-1l-2.82-11.62h1.21Z"/><path d="M608.91,57.83a7.07,7.07,0,0,1-.21-1.61,3.87,3.87,0,0,1-1.38,1.35,3.79,3.79,0,0,1-1.84.47,3.13,3.13,0,0,1-2.34-.85,3.27,3.27,0,0,1-.83-2.41,3.38,3.38,0,0,1,1.16-2.71,4.83,4.83,0,0,1,3.22-1h2V49.44a2.28,2.28,0,0,0-.62-1.79,2.68,2.68,0,0,0-1.81-.54,2.61,2.61,0,0,0-1.82.64,2.17,2.17,0,0,0-.71,1.67h-1.19A3.18,3.18,0,0,1,603.62,47a3.8,3.8,0,0,1,2.69-1,3.66,3.66,0,0,1,2.66.88,3.44,3.44,0,0,1,.9,2.57v5.7a7.86,7.86,0,0,0,.31,2.56v.13Zm-3.27-.94a3.28,3.28,0,0,0,1.86-.54,3.24,3.24,0,0,0,1.19-1.47V52.06H606.8a3.82,3.82,0,0,0-2.46.72,2.35,2.35,0,0,0-.83,1.9C603.51,56.16,604.22,56.89,605.64,56.89Z"/><path d="M614.26,46.21l0,1.84a4.39,4.39,0,0,1,1.32-1.5,3.11,3.11,0,0,1,1.82-.56q3,0,3.12,4v7.79h-1.19V50.17a4,4,0,0,0-.54-2.3,2,2,0,0,0-1.69-.74,2.39,2.39,0,0,0-1.68.7,4.31,4.31,0,0,0-1.13,1.93v8.07h-1.2V46.21Z"/><path d="M625.51,43.24v3h2v1.07h-2V55a2.84,2.84,0,0,0,.28,1.43,1,1,0,0,0,1,.46,5,5,0,0,0,.86-.1l0,1.07a3.07,3.07,0,0,1-1.18.18c-1.39,0-2.11-1-2.14-2.88V47.28h-1.8V46.21h1.8v-3Z"/><path d="M443.78,70.47v3h2v1.07h-2v7.73a2.79,2.79,0,0,0,.29,1.42,1,1,0,0,0,.95.47,5.38,5.38,0,0,0,.86-.11l0,1.07a2.79,2.79,0,0,1-1.17.19c-1.4,0-2.11-1-2.15-2.88V74.51H440.8V73.44h1.79v-3Z"/><path d="M447.7,78.66a6.32,6.32,0,0,1,1.14-4,4.06,4.06,0,0,1,6.22,0,6.35,6.35,0,0,1,1.14,4v1.23a6.23,6.23,0,0,1-1.14,4,4.07,4.07,0,0,1-6.17,0A6.1,6.1,0,0,1,447.7,80Zm1.21,1.2a5.38,5.38,0,0,0,.81,3.15,2.81,2.81,0,0,0,4.5,0,5.49,5.49,0,0,0,.79-3.16V78.65a5.36,5.36,0,0,0-.82-3.16,2.74,2.74,0,0,0-4.45,0,5.28,5.28,0,0,0-.83,3.1Z"/><path d="M463.46,78.71a7.21,7.21,0,0,1,1-4.11,3.22,3.22,0,0,1,2.83-1.38,3.17,3.17,0,0,1,3,1.78V68.56h1.19v16.5h-1.12l0-1.49a3.22,3.22,0,0,1-3,1.71,3.18,3.18,0,0,1-2.79-1.4,7,7,0,0,1-1-4Zm1.22,1.09a6.27,6.27,0,0,0,.67,3.29,2.34,2.34,0,0,0,2.13,1,2.85,2.85,0,0,0,2.73-1.8v-6a2.79,2.79,0,0,0-2.72-1.95,2.35,2.35,0,0,0-2.13,1,6,6,0,0,0-.68,3.22Z"/><path d="M474.17,78.66a6.32,6.32,0,0,1,1.14-4,4.06,4.06,0,0,1,6.22,0,6.35,6.35,0,0,1,1.14,4v1.23a6.23,6.23,0,0,1-1.14,4,4.08,4.08,0,0,1-6.18,0A6.09,6.09,0,0,1,474.17,80Zm1.21,1.2a5.38,5.38,0,0,0,.81,3.15,2.81,2.81,0,0,0,4.5,0,5.49,5.49,0,0,0,.79-3.16V78.65a5.44,5.44,0,0,0-.82-3.16,2.74,2.74,0,0,0-4.45,0,5.28,5.28,0,0,0-.83,3.1Z"/><path d="M489.91,78.66a6.32,6.32,0,0,1,1.14-4,4,4,0,0,1,6.21,0,6.29,6.29,0,0,1,1.15,4v1.23a6.18,6.18,0,0,1-1.15,4,4.07,4.07,0,0,1-6.17,0A6.09,6.09,0,0,1,489.91,80Zm1.2,1.2a5.38,5.38,0,0,0,.81,3.15,2.59,2.59,0,0,0,2.25,1.15,2.56,2.56,0,0,0,2.25-1.11,5.42,5.42,0,0,0,.79-3.16V78.65a5.44,5.44,0,0,0-.81-3.16,2.63,2.63,0,0,0-2.25-1.15,2.58,2.58,0,0,0-2.2,1.13,5.36,5.36,0,0,0-.84,3.1Z"/><path d="M502.3,73.44l0,1.85a4.3,4.3,0,0,1,1.31-1.51,3.14,3.14,0,0,1,1.82-.56q3,0,3.12,4v7.79H507.4V77.4a4,4,0,0,0-.55-2.3,2,2,0,0,0-1.69-.74,2.4,2.4,0,0,0-1.68.71A4.42,4.42,0,0,0,502.35,77v8.07h-1.19V73.44Z"/><path d="M518.48,70.47v3h2v1.07h-2v7.73a2.79,2.79,0,0,0,.29,1.42,1,1,0,0,0,1,.47,5.38,5.38,0,0,0,.86-.11l0,1.07a2.79,2.79,0,0,1-1.17.19c-1.4,0-2.11-1-2.15-2.88V74.51H515.5V73.44h1.79v-3Z"/><path d="M524.26,75.26a4.39,4.39,0,0,1,1.31-1.48,3.06,3.06,0,0,1,1.81-.56q3,0,3.11,4v7.79h-1.18V77.4a4,4,0,0,0-.55-2.3,1.94,1.94,0,0,0-1.68-.74,2.37,2.37,0,0,0-1.68.71A4.43,4.43,0,0,0,524.26,77v8.07h-1.19V68.56h1.19Z"/><path d="M537.49,85.28a4,4,0,0,1-3.22-1.35,5.79,5.79,0,0,1-1.18-3.82V78.69a6.48,6.48,0,0,1,1.12-4,3.67,3.67,0,0,1,3.07-1.46,3.52,3.52,0,0,1,2.89,1.24,6,6,0,0,1,1,3.78v1.12h-6.91V80a4.92,4.92,0,0,0,.86,3.09,2.89,2.89,0,0,0,2.41,1.08,3.46,3.46,0,0,0,2.78-1.26l.63.8A4,4,0,0,1,537.49,85.28Zm-.21-10.94a2.55,2.55,0,0,0-2.16,1,5.08,5.08,0,0,0-.83,2.91H540v-.31Q539.9,74.35,537.28,74.34Z"/><path d="M556.59,79.8a7.37,7.37,0,0,1-.94,4.08,3.13,3.13,0,0,1-2.79,1.4,3.32,3.32,0,0,1-3-1.61v5.86h-1.18V73.44h1.09l.06,1.59a3.3,3.3,0,0,1,3-1.81,3.2,3.2,0,0,1,2.81,1.34,7.2,7.2,0,0,1,1,4.07Zm-1.2-1.09a6.15,6.15,0,0,0-.69-3.29,2.4,2.4,0,0,0-2.16-1,2.78,2.78,0,0,0-2.7,1.92v6.12a2.78,2.78,0,0,0,2.72,1.75,2.37,2.37,0,0,0,2.13-1,6,6,0,0,0,.7-3.24Z"/><path d="M563.91,74.56a4.36,4.36,0,0,0-.75-.08,2.26,2.26,0,0,0-1.66.68,3.85,3.85,0,0,0-1,1.88v8h-1.19V73.44h1.17l0,1.74a2.81,2.81,0,0,1,2.66-2,1.5,1.5,0,0,1,.72.14Z"/><path d="M565.34,78.66a6.32,6.32,0,0,1,1.14-4,4,4,0,0,1,6.21,0,6.29,6.29,0,0,1,1.15,4v1.23a6.18,6.18,0,0,1-1.15,4,3.75,3.75,0,0,1-3.08,1.43,3.78,3.78,0,0,1-3.09-1.4A6.09,6.09,0,0,1,565.34,80Zm1.2,1.2a5.31,5.31,0,0,0,.82,3.15,2.81,2.81,0,0,0,4.5,0,5.49,5.49,0,0,0,.79-3.16V78.65a5.44,5.44,0,0,0-.82-3.16,2.74,2.74,0,0,0-4.45,0,5.36,5.36,0,0,0-.84,3.1Z"/><path d="M576.16,78.71a7.3,7.3,0,0,1,1-4.11A3.24,3.24,0,0,1,580,73.22,3.15,3.15,0,0,1,582.9,75V68.56h1.2v16.5H583l-.05-1.49a3.48,3.48,0,0,1-5.79.31,7,7,0,0,1-1-4Zm1.21,1.09a6.37,6.37,0,0,0,.67,3.29,2.35,2.35,0,0,0,2.14,1,2.83,2.83,0,0,0,2.72-1.8v-6a2.77,2.77,0,0,0-2.71-1.95,2.35,2.35,0,0,0-2.14,1,6.2,6.2,0,0,0-.68,3.22Z"/><path d="M593.55,83.68a3.36,3.36,0,0,1-3.06,1.6,2.79,2.79,0,0,1-2.39-1.1,5.44,5.44,0,0,1-.81-3.22V73.44h1.18v7.49a4.24,4.24,0,0,0,.56,2.39,1.82,1.82,0,0,0,1.61.82A2.75,2.75,0,0,0,593.53,82V73.44h1.2V85.06h-1.16Z"/><path d="M601.59,84.16a2.51,2.51,0,0,0,1.91-.7,3,3,0,0,0,.72-2h1.15a4,4,0,0,1-1.14,2.8,3.64,3.64,0,0,1-2.64,1A3.79,3.79,0,0,1,598.45,84,6.38,6.38,0,0,1,597.37,80V78.59a6.46,6.46,0,0,1,1.06-4,3.74,3.74,0,0,1,3.14-1.36,3.52,3.52,0,0,1,2.73,1.09,4.62,4.62,0,0,1,1.07,3h-1.15a3.58,3.58,0,0,0-.73-2.23,2.38,2.38,0,0,0-1.92-.79,2.59,2.59,0,0,0-2.27,1,5.7,5.7,0,0,0-.72,3.2V79.9a5.64,5.64,0,0,0,.73,3.25A2.62,2.62,0,0,0,601.59,84.16Z"/><path d="M609.69,70.47v3h2v1.07h-2v7.73a2.8,2.8,0,0,0,.28,1.42,1,1,0,0,0,.95.47,5.38,5.38,0,0,0,.86-.11l0,1.07a2.79,2.79,0,0,1-1.17.19c-1.4,0-2.11-1-2.15-2.88V74.51H606.7V73.44h1.79v-3Z"/><path d="M614.24,84.28a.92.92,0,0,1,.24-.65.86.86,0,0,1,.67-.27.88.88,0,0,1,.68.27.92.92,0,0,1,.25.65.85.85,0,0,1-.25.62.91.91,0,0,1-.68.25.88.88,0,0,1-.67-.25A.84.84,0,0,1,614.24,84.28Z"/><path d="M861.93,25.72a5.78,5.78,0,0,1-1.42,3.86,4.7,4.7,0,0,1-3.45,1.23,4.25,4.25,0,0,1-3.57-1.71,7.48,7.48,0,0,1-1.32-4.66V21.05a7.23,7.23,0,0,1,1.33-4.63,4.43,4.43,0,0,1,3.66-1.68,4.5,4.5,0,0,1,3.4,1.26,6,6,0,0,1,1.37,3.85h-1.25a5.13,5.13,0,0,0-1-3,3.72,3.72,0,0,0-5.28.41,6.33,6.33,0,0,0-1,3.84v3.35a6.77,6.77,0,0,0,1,3.88,3.08,3.08,0,0,0,2.69,1.38,3.4,3.4,0,0,0,2.65-.91,5.12,5.12,0,0,0,1-3Z"/><path d="M866.07,30.6h-1.21V14.1h1.21Z"/><path d="M869.32,15.62a1,1,0,0,1,.21-.62.68.68,0,0,1,.58-.26.71.71,0,0,1,.58.26,1,1,0,0,1,0,1.24.7.7,0,0,1-.58.25.68.68,0,0,1-.58-.25A1,1,0,0,1,869.32,15.62Zm1.38,15h-1.21V19h1.21Z"/><path d="M877.67,29.69a2.53,2.53,0,0,0,1.91-.69,3,3,0,0,0,.72-2h1.15a4,4,0,0,1-1.14,2.79,3.64,3.64,0,0,1-2.64,1,3.74,3.74,0,0,1-3.13-1.33,6.22,6.22,0,0,1-1.08-3.93V24.13a6.41,6.41,0,0,1,1.06-4,3.74,3.74,0,0,1,3.14-1.35,3.52,3.52,0,0,1,2.73,1.09,4.57,4.57,0,0,1,1.06,3H880.3a3.58,3.58,0,0,0-.73-2.23,2.4,2.4,0,0,0-1.91-.79,2.56,2.56,0,0,0-2.27,1.05,5.57,5.57,0,0,0-.73,3.19v1.32a5.64,5.64,0,0,0,.73,3.25A2.61,2.61,0,0,0,877.67,29.69Z"/><path d="M886.39,24.78l-1.21,1.36V30.6H884V14.1h1.21V24.59l1-1.27L889.77,19h1.49l-4.09,4.91,4.47,6.72h-1.41Z"/><path d="M906.06,26.75a2.79,2.79,0,0,0-.75-2.06,7.34,7.34,0,0,0-2.78-1.44,8.72,8.72,0,0,1-3-1.54,3.7,3.7,0,0,1-1.26-2.92,3.74,3.74,0,0,1,1.24-2.92,4.54,4.54,0,0,1,3.19-1.13A4.34,4.34,0,0,1,906,16.05a4.63,4.63,0,0,1,1.27,3.37H906a3.65,3.65,0,0,0-.89-2.55,3.1,3.1,0,0,0-2.41-1,3.3,3.3,0,0,0-2.34.8,2.69,2.69,0,0,0-.85,2.07,2.53,2.53,0,0,0,.8,1.93A7.15,7.15,0,0,0,902.88,22a10.68,10.68,0,0,1,2.66,1.21,4,4,0,0,1,1.34,1.48,4.47,4.47,0,0,1,.43,2,3.83,3.83,0,0,1-1.24,3,4.72,4.72,0,0,1-3.29,1.12,5.67,5.67,0,0,1-2.51-.56,4.29,4.29,0,0,1-1.77-1.63,4.75,4.75,0,0,1-.64-2.49h1.23a3.4,3.4,0,0,0,1,2.6,3.74,3.74,0,0,0,2.69.94,3.46,3.46,0,0,0,2.38-.79A2.7,2.7,0,0,0,906.06,26.75Z"/><path d="M916.06,29.21a3.34,3.34,0,0,1-3.06,1.6,2.79,2.79,0,0,1-2.39-1.1,5.44,5.44,0,0,1-.81-3.22V19H911v7.49a4.3,4.3,0,0,0,.56,2.4,1.83,1.83,0,0,0,1.61.81A2.75,2.75,0,0,0,916,27.48V19h1.2V30.6h-1.16Z"/><path d="M928.36,25.33a7.28,7.28,0,0,1-.94,4.08,3.16,3.16,0,0,1-2.8,1.4,3.25,3.25,0,0,1-3-1.77l-.05,1.56h-1.11V14.1h1.18v6.49a3.49,3.49,0,0,1,5.8-.51,7.08,7.08,0,0,1,1,4Zm-1.19-1.08a6.37,6.37,0,0,0-.66-3.28,2.31,2.31,0,0,0-2.15-1.06A2.81,2.81,0,0,0,921.6,22v5.76a3.11,3.11,0,0,0,1.08,1.41,2.9,2.9,0,0,0,1.71.5,2.31,2.31,0,0,0,2.1-1,6.2,6.2,0,0,0,.68-3.22Z"/><path d="M932.22,19l0,1.74a3.39,3.39,0,0,1,3.11-1.95,2.76,2.76,0,0,1,2.9,2.14,4,4,0,0,1,1.42-1.61,3.54,3.54,0,0,1,1.88-.53c2.09,0,3.16,1.34,3.21,4v7.8h-1.19V22.87a3.86,3.86,0,0,0-.56-2.24,2,2,0,0,0-1.76-.73,2.48,2.48,0,0,0-1.87.86,3.42,3.42,0,0,0-.87,2.1V30.6h-1.2V22.9a3.76,3.76,0,0,0-.56-2.26A2.07,2.07,0,0,0,935,19.9a2.36,2.36,0,0,0-1.69.67,4,4,0,0,0-1,1.94V30.6h-1.19V19Z"/><path d="M947.85,15.62a.94.94,0,0,1,.2-.62.71.71,0,0,1,.58-.26.73.73,0,0,1,.59.26,1,1,0,0,1,0,1.24.72.72,0,0,1-.59.25.7.7,0,0,1-.58-.25A.94.94,0,0,1,947.85,15.62Zm1.37,15H948V19h1.2Z"/><path d="M954.31,16v3h2v1.08h-2v7.72a2.77,2.77,0,0,0,.29,1.42,1,1,0,0,0,.95.47,4.41,4.41,0,0,0,.86-.11l0,1.08a3,3,0,0,1-1.17.18c-1.4,0-2.11-1-2.15-2.88V20.05h-1.79V19h1.79V16Z"/><path d="M965.64,16v3h2v1.08h-2v7.72a2.78,2.78,0,0,0,.28,1.42,1,1,0,0,0,1,.47,4.41,4.41,0,0,0,.86-.11l0,1.08a3,3,0,0,1-1.17.18c-1.39,0-2.11-1-2.15-2.88V20.05h-1.79V19h1.79V16Z"/><path d="M969.56,24.19a6.29,6.29,0,0,1,1.14-4,3.69,3.69,0,0,1,3.1-1.46,3.74,3.74,0,0,1,3.11,1.44,6.22,6.22,0,0,1,1.14,4V25.4a6.22,6.22,0,0,1-1.14,4,4.07,4.07,0,0,1-6.17,0,6.08,6.08,0,0,1-1.18-3.84Zm1.2,1.2a5.36,5.36,0,0,0,.81,3.15,2.81,2.81,0,0,0,4.5.05,5.53,5.53,0,0,0,.79-3.17V24.19A5.34,5.34,0,0,0,976,21a2.72,2.72,0,0,0-4.44,0,5.23,5.23,0,0,0-.84,3.1Z"/><path d="M858.11,55a1.71,1.71,0,0,0-.63-1.31,8.4,8.4,0,0,0-2.11-1.23,12.19,12.19,0,0,1-2.08-1.12,3,3,0,0,1-.87-1,2.71,2.71,0,0,1-.28-1.25,2.87,2.87,0,0,1,1-2.21,3.57,3.57,0,0,1,2.5-.88,3.71,3.71,0,0,1,2.65.93,3.26,3.26,0,0,1,1,2.48h-1.2a2.17,2.17,0,0,0-.67-1.64,2.43,2.43,0,0,0-1.77-.65,2.51,2.51,0,0,0-1.67.53,1.78,1.78,0,0,0-.61,1.4,1.46,1.46,0,0,0,.47,1.14,9.21,9.21,0,0,0,2,1.19,12.29,12.29,0,0,1,2.23,1.17,3.32,3.32,0,0,1,.93,1,2.68,2.68,0,0,1,.31,1.34,2.81,2.81,0,0,1-1,2.28,3.9,3.9,0,0,1-2.63.85,4.07,4.07,0,0,1-2.8-.94,3.13,3.13,0,0,1-1.07-2.44H853a2.27,2.27,0,0,0,.73,1.67,2.82,2.82,0,0,0,1.94.6,2.7,2.7,0,0,0,1.76-.54A1.76,1.76,0,0,0,858.11,55Z"/><path d="M863.91,43.24v3h2v1.07h-2V55a2.84,2.84,0,0,0,.28,1.43,1,1,0,0,0,.95.46,5,5,0,0,0,.86-.1l0,1.07a3,3,0,0,1-1.17.18c-1.39,0-2.11-1-2.15-2.88V47.28h-1.79V46.21h1.79v-3Z"/><path d="M874.64,57.83a7.58,7.58,0,0,1-.22-1.61A3.69,3.69,0,0,1,871.21,58a3.13,3.13,0,0,1-2.34-.85,3.27,3.27,0,0,1-.84-2.41,3.38,3.38,0,0,1,1.17-2.71,4.81,4.81,0,0,1,3.22-1h2V49.44a2.28,2.28,0,0,0-.61-1.79,2.7,2.7,0,0,0-1.81-.54,2.59,2.59,0,0,0-1.82.64,2.17,2.17,0,0,0-.71,1.67h-1.19A3.21,3.21,0,0,1,869.34,47a3.84,3.84,0,0,1,2.7-1,3.62,3.62,0,0,1,2.65.88,3.44,3.44,0,0,1,.9,2.57v5.7a7.81,7.81,0,0,0,.32,2.56v.13Zm-3.28-.94a3.31,3.31,0,0,0,1.87-.54,3.22,3.22,0,0,0,1.18-1.47V52.06h-1.89a3.82,3.82,0,0,0-2.46.72,2.38,2.38,0,0,0-.82,1.9C869.24,56.16,869.94,56.89,871.36,56.89Z"/><path d="M883.4,47.32a4.27,4.27,0,0,0-.75-.07,2.25,2.25,0,0,0-1.66.67,3.89,3.89,0,0,0-1,1.88v8h-1.19V46.21H880L880,48a2.81,2.81,0,0,1,2.67-2,1.56,1.56,0,0,1,.72.14Z"/><path d="M887.83,43.24v3h2v1.07h-2V55a2.84,2.84,0,0,0,.28,1.43,1,1,0,0,0,1,.46,5,5,0,0,0,.85-.1l0,1.07a3.05,3.05,0,0,1-1.17.18c-1.4,0-2.12-1-2.15-2.88V47.28h-1.8V46.21h1.8v-3Z"/><path d="M896.94,51.48a7.3,7.3,0,0,1,.94-4.12A3.23,3.23,0,0,1,900.72,46a3.18,3.18,0,0,1,3,1.84l.06-1.62h1.11V58.16a4.63,4.63,0,0,1-1,3.2,3.69,3.69,0,0,1-2.89,1.1,4.45,4.45,0,0,1-1.93-.47,4,4,0,0,1-1.48-1.15l.56-.86a3.59,3.59,0,0,0,2.76,1.36,2.64,2.64,0,0,0,2.11-.77,3.53,3.53,0,0,0,.67-2.34V56.38a3.49,3.49,0,0,1-5.74.3,7,7,0,0,1-1-3.94Zm1.2,1.08a6.24,6.24,0,0,0,.68,3.29,2.35,2.35,0,0,0,2.13,1,2.76,2.76,0,0,0,2.72-1.83V49.13a2.76,2.76,0,0,0-2.7-2,2.37,2.37,0,0,0-2.14,1,6.14,6.14,0,0,0-.69,3.22Z"/><path d="M911.89,58a4,4,0,0,1-3.21-1.34,5.74,5.74,0,0,1-1.18-3.82V51.46a6.39,6.39,0,0,1,1.12-4A3.65,3.65,0,0,1,911.69,46a3.46,3.46,0,0,1,2.88,1.24,6.09,6.09,0,0,1,1,3.78v1.11h-6.91v.66a4.93,4.93,0,0,0,.85,3.08A2.89,2.89,0,0,0,912,57a3.47,3.47,0,0,0,2.78-1.26l.62.8A4,4,0,0,1,911.89,58Zm-.2-10.93a2.58,2.58,0,0,0-2.17,1,5.11,5.11,0,0,0-.83,2.91h5.71V50.7C914.34,48.3,913.44,47.11,911.69,47.11Z"/><path d="M919.92,43.24v3h2v1.07h-2V55a2.84,2.84,0,0,0,.28,1.43,1,1,0,0,0,.95.46,5,5,0,0,0,.86-.1l0,1.07a3,3,0,0,1-1.17.18c-1.39,0-2.11-1-2.15-2.88V47.28h-1.79V46.21h1.79v-3Z"/><path d="M926.3,43.24v3h2v1.07h-2V55a2.84,2.84,0,0,0,.28,1.43,1,1,0,0,0,.95.46,5,5,0,0,0,.86-.1l0,1.07a3,3,0,0,1-1.17.18c-1.39,0-2.11-1-2.14-2.88V47.28h-1.8V46.21h1.8v-3Z"/><path d="M930.84,42.85a1,1,0,0,1,.21-.62.7.7,0,0,1,.58-.26.71.71,0,0,1,.58.26,1,1,0,0,1,.21.62.93.93,0,0,1-.21.62.7.7,0,0,1-.58.25.69.69,0,0,1-.58-.25A.93.93,0,0,1,930.84,42.85Zm1.38,15H931V46.21h1.21Z"/><path d="M936.65,46.21l0,1.84a4.26,4.26,0,0,1,1.31-1.5,3.11,3.11,0,0,1,1.82-.56q3,0,3.12,4v7.79h-1.18V50.17a4,4,0,0,0-.55-2.3,2,2,0,0,0-1.69-.74,2.39,2.39,0,0,0-1.68.7,4.31,4.31,0,0,0-1.13,1.93v8.07h-1.2V46.21Z"/><path d="M945.69,51.48a7.3,7.3,0,0,1,.94-4.12A3.23,3.23,0,0,1,949.47,46a3.19,3.19,0,0,1,3,1.84l.06-1.62h1.11V58.16a4.68,4.68,0,0,1-1,3.2,3.71,3.71,0,0,1-2.89,1.1A4.45,4.45,0,0,1,947.8,62a4,4,0,0,1-1.48-1.15l.56-.86a3.56,3.56,0,0,0,2.76,1.36,2.64,2.64,0,0,0,2.11-.77,3.53,3.53,0,0,0,.67-2.34V56.38a3.49,3.49,0,0,1-5.74.3,7,7,0,0,1-1-3.94Zm1.2,1.08a6.24,6.24,0,0,0,.68,3.29,2.34,2.34,0,0,0,2.12,1,2.78,2.78,0,0,0,2.73-1.83V49.13a2.77,2.77,0,0,0-2.7-2,2.37,2.37,0,0,0-2.14,1,6.14,6.14,0,0,0-.69,3.22Z"/><path d="M855.38,83.19l2.86-9.75h1.22l-3.62,11.62h-1l-3.64-11.62h1.23Z"/><path d="M867.61,85.06a7.69,7.69,0,0,1-.21-1.61A3.87,3.87,0,0,1,866,84.8a3.63,3.63,0,0,1-1.83.48,3.18,3.18,0,0,1-2.35-.85A3.33,3.33,0,0,1,861,82a3.41,3.41,0,0,1,1.16-2.71,4.88,4.88,0,0,1,3.22-1h2V76.67a2.3,2.3,0,0,0-.62-1.79,2.68,2.68,0,0,0-1.81-.54,2.62,2.62,0,0,0-1.82.65,2.14,2.14,0,0,0-.7,1.66h-1.2a3.16,3.16,0,0,1,1.08-2.42,3.81,3.81,0,0,1,2.69-1,3.69,3.69,0,0,1,2.66.88,3.45,3.45,0,0,1,.9,2.57v5.71a7.79,7.79,0,0,0,.31,2.55v.13Zm-3.27-.93a3.28,3.28,0,0,0,1.86-.55,3.21,3.21,0,0,0,1.19-1.46V79.29H865.5A3.82,3.82,0,0,0,863,80a2.36,2.36,0,0,0-.83,1.89Q862.21,84.13,864.34,84.13Z"/><path d="M873.16,85.06H872V68.56h1.21Z"/><path d="M882.68,83.68a3.35,3.35,0,0,1-3.06,1.6,2.77,2.77,0,0,1-2.38-1.1,5.43,5.43,0,0,1-.82-3.22V73.44h1.18v7.49a4.24,4.24,0,0,0,.56,2.39,1.82,1.82,0,0,0,1.61.82A2.75,2.75,0,0,0,882.66,82V73.44h1.21V85.06h-1.16Z"/><path d="M893.19,85.06a7.07,7.07,0,0,1-.21-1.61,3.87,3.87,0,0,1-1.38,1.35,3.69,3.69,0,0,1-1.84.48,3.17,3.17,0,0,1-2.34-.85,3.3,3.3,0,0,1-.84-2.42,3.38,3.38,0,0,1,1.17-2.71,4.88,4.88,0,0,1,3.22-1h2V76.67a2.29,2.29,0,0,0-.61-1.79,2.68,2.68,0,0,0-1.81-.54,2.6,2.6,0,0,0-1.82.65,2.15,2.15,0,0,0-.71,1.66h-1.19a3.19,3.19,0,0,1,1.07-2.42,3.85,3.85,0,0,1,2.7-1,3.67,3.67,0,0,1,2.65.88,3.42,3.42,0,0,1,.91,2.57v5.71a7.79,7.79,0,0,0,.31,2.55v.13Zm-3.28-.93a3.29,3.29,0,0,0,1.87-.55A3.19,3.19,0,0,0,893,82.12V79.29h-1.89a3.86,3.86,0,0,0-2.46.73,2.36,2.36,0,0,0-.82,1.89C887.79,83.39,888.5,84.13,889.91,84.13Z"/><path d="M905.34,79.8a7.28,7.28,0,0,1-.94,4.08,3.16,3.16,0,0,1-2.8,1.4,3.25,3.25,0,0,1-3-1.78l0,1.56H897.4V68.56h1.18v6.5a3.47,3.47,0,0,1,5.8-.51,7.06,7.06,0,0,1,1,4Zm-1.19-1.09a6.35,6.35,0,0,0-.66-3.27,2.32,2.32,0,0,0-2.15-1.07,2.8,2.8,0,0,0-2.76,2.1v5.76a3.09,3.09,0,0,0,1.08,1.41,2.9,2.9,0,0,0,1.71.5,2.33,2.33,0,0,0,2.1-1,6.24,6.24,0,0,0,.68-3.23Z"/><path d="M909.43,85.06h-1.2V68.56h1.2Z"/><path d="M916.57,85.28a4,4,0,0,1-3.22-1.35,5.79,5.79,0,0,1-1.18-3.82V78.69a6.41,6.41,0,0,1,1.12-4,3.66,3.66,0,0,1,3.07-1.46,3.52,3.52,0,0,1,2.89,1.24,6,6,0,0,1,1,3.78v1.12h-6.91V80a4.92,4.92,0,0,0,.86,3.09,2.89,2.89,0,0,0,2.41,1.08,3.47,3.47,0,0,0,2.78-1.26l.62.8A4,4,0,0,1,916.57,85.28Zm-.21-10.94a2.55,2.55,0,0,0-2.16,1,5.08,5.08,0,0,0-.84,2.91h5.71v-.31Q919,74.35,916.36,74.34Z"/><path d="M927.69,70.09a1,1,0,0,1,.21-.63.69.69,0,0,1,.58-.25.7.7,0,0,1,.58.25,1,1,0,0,1,.21.63.9.9,0,0,1-.21.61.71.71,0,0,1-.58.26.7.7,0,0,1-.58-.26A.9.9,0,0,1,927.69,70.09Zm1.38,15h-1.2V73.44h1.2Z"/><path d="M933.51,73.44l0,1.85a4.3,4.3,0,0,1,1.31-1.51,3.14,3.14,0,0,1,1.82-.56q3,0,3.12,4v7.79h-1.18V77.4a4,4,0,0,0-.55-2.3,2,2,0,0,0-1.69-.74,2.4,2.4,0,0,0-1.68.71A4.42,4.42,0,0,0,933.56,77v8.07h-1.19V73.44Z"/><path d="M948.77,82.2a1.76,1.76,0,0,0-.62-1.32A8.92,8.92,0,0,0,946,79.65,11.55,11.55,0,0,1,944,78.54a2.92,2.92,0,0,1-.87-1,2.55,2.55,0,0,1-.28-1.24,2.84,2.84,0,0,1,1-2.22,3.58,3.58,0,0,1,2.5-.88,3.7,3.7,0,0,1,2.64.94,3.24,3.24,0,0,1,1,2.47h-1.19A2.18,2.18,0,0,0,948,75a2.78,2.78,0,0,0-3.43-.11,1.76,1.76,0,0,0-.62,1.39,1.49,1.49,0,0,0,.47,1.14,9.64,9.64,0,0,0,2,1.2,11.84,11.84,0,0,1,2.24,1.17,3.25,3.25,0,0,1,.92,1,2.71,2.71,0,0,1,.31,1.34,2.85,2.85,0,0,1-1,2.29,3.94,3.94,0,0,1-2.63.85,4.09,4.09,0,0,1-2.8-1,3.1,3.1,0,0,1-1.06-2.44h1.2a2.3,2.3,0,0,0,.72,1.68,2.88,2.88,0,0,0,1.94.59,2.7,2.7,0,0,0,1.76-.54A1.71,1.71,0,0,0,948.77,82.2Z"/><path d="M952.73,70.09a1,1,0,0,1,.21-.63.69.69,0,0,1,.58-.25.7.7,0,0,1,.58.25,1,1,0,0,1,.21.63.9.9,0,0,1-.21.61.71.71,0,0,1-.58.26.7.7,0,0,1-.58-.26A.9.9,0,0,1,952.73,70.09Zm1.38,15h-1.2V73.44h1.2Z"/><path d="M957,78.71a7.32,7.32,0,0,1,.94-4.12,3.47,3.47,0,0,1,5.83.47l.06-1.62h1.11v12a4.69,4.69,0,0,1-1,3.21A3.7,3.7,0,0,1,961,89.69a4.45,4.45,0,0,1-1.93-.47,3.93,3.93,0,0,1-1.48-1.15l.56-.86a3.59,3.59,0,0,0,2.76,1.36,2.61,2.61,0,0,0,2.11-.77,3.51,3.51,0,0,0,.67-2.34V83.61a3.48,3.48,0,0,1-5.74.3A7,7,0,0,1,957,80Zm1.2,1.09a6.26,6.26,0,0,0,.68,3.29,2.35,2.35,0,0,0,2.13,1,2.77,2.77,0,0,0,2.72-1.84V76.36a2.78,2.78,0,0,0-2.7-2,2.35,2.35,0,0,0-2.14,1,6.09,6.09,0,0,0-.69,3.22Z"/><path d="M969.3,75.26a4.36,4.36,0,0,1,1.3-1.48,3.08,3.08,0,0,1,1.81-.56q3,0,3.12,4v7.79h-1.18V77.4a4,4,0,0,0-.55-2.3,2,2,0,0,0-1.69-.74,2.4,2.4,0,0,0-1.68.71A4.42,4.42,0,0,0,969.3,77v8.07h-1.19V68.56h1.19Z"/><path d="M980.48,70.47v3h2v1.07h-2v7.73a2.79,2.79,0,0,0,.29,1.42,1,1,0,0,0,1,.47,5.38,5.38,0,0,0,.86-.11l0,1.07a2.79,2.79,0,0,1-1.17.19c-1.4,0-2.12-1-2.15-2.88V74.51H977.5V73.44h1.79v-3Z"/><path d="M990.88,82.2a1.76,1.76,0,0,0-.62-1.32,8.92,8.92,0,0,0-2.11-1.23,11.55,11.55,0,0,1-2.08-1.11,2.92,2.92,0,0,1-.87-1,2.55,2.55,0,0,1-.28-1.24,2.86,2.86,0,0,1,1-2.22,3.62,3.62,0,0,1,2.51-.88,3.7,3.7,0,0,1,2.64.94,3.24,3.24,0,0,1,1,2.47h-1.19a2.18,2.18,0,0,0-.68-1.64,2.78,2.78,0,0,0-3.43-.11,1.76,1.76,0,0,0-.62,1.39,1.49,1.49,0,0,0,.47,1.14,9.64,9.64,0,0,0,2,1.2,12.18,12.18,0,0,1,2.24,1.17,3.25,3.25,0,0,1,.92,1,2.71,2.71,0,0,1,.31,1.34,2.85,2.85,0,0,1-1,2.29,3.94,3.94,0,0,1-2.63.85,4.09,4.09,0,0,1-2.8-1,3.1,3.1,0,0,1-1.06-2.44h1.2a2.3,2.3,0,0,0,.72,1.68,2.88,2.88,0,0,0,1.94.59,2.7,2.7,0,0,0,1.76-.54A1.71,1.71,0,0,0,990.88,82.2Z"/><line class="cls-4" x1="279.1" x2="279.1" y2="4.5"/><line class="cls-5" x1="279.1" y1="18.94" x2="279.1" y2="81.05"/><line class="cls-4" x1="279.1" y1="88.27" x2="279.1" y2="92.77"/><line class="cls-6" x1="279.1" x2="279.1" y2="92.77"/><line class="cls-4" x1="696.27" x2="696.27" y2="4.5"/><line class="cls-5" x1="696.27" y1="18.94" x2="696.27" y2="81.05"/><line class="cls-4" x1="696.27" y1="88.27" x2="696.27" y2="92.77"/><line class="cls-6" x1="696.27" x2="696.27" y2="92.77"/></g></g></svg>