<svg xmlns="http://www.w3.org/2000/svg" xmlns:xlink="http://www.w3.org/1999/xlink" viewBox="0 0 414.68 101.7"><defs><style>.cls-1{fill:none;}.cls-2{fill:#f2f2f2;}.cls-3{clip-path:url(#clip-path);}.cls-4{fill:url(#Gradiente_sem_nome_140);}.cls-5{stroke:#000;fill:url(#Gradiente_sem_nome_121);}.cls-5,.cls-6{stroke-miterlimit:10;stroke-width:0.97px;}.cls-6{fill:url(#Gradiente_sem_nome_121-2);stroke:url(#Gradiente_sem_nome_121-3);}.cls-7{fill:#fff;}.cls-8{opacity:0.3;}</style><clipPath id="clip-path"><path class="cls-1" d="M213.44,40.28h-15L195.7,56.11h-9.33l6.87-39.74h25.85l-1.28,7.39H201.32l-1.58,9.15h15Zm22,8.38H222.79l-3.52,7.45H209l21-39.74h8.79l7.34,39.74h-9.72Zm-9.2-7.37h8.24l-1.74-13.7Zm51.33,1.28A14.36,14.36,0,0,1,274.87,50a15.61,15.61,0,0,1-6.28,5,19.41,19.41,0,0,1-8.42,1.66q-6.23-.13-9.8-4t-3.9-10.51a34,34,0,0,1,1-9.63,25.65,25.65,0,0,1,3.95-9.08,18.23,18.23,0,0,1,6.47-5.78A16.67,16.67,0,0,1,266,15.8q6.5.1,10.28,3.9t4.1,10.45l-9.3,0c0-2.42-.4-4.14-1.31-5.18a5.78,5.78,0,0,0-4.32-1.67q-7.36-.24-9,11.47a62.85,62.85,0,0,0-.73,7.56q-.13,6.71,5,6.9A7.32,7.32,0,0,0,266,47.58a8.12,8.12,0,0,0,2.51-4.9Zm36.58-18.81H302.62L297,56.11h-9.36l5.62-32.35H281.9l1.31-7.39h32.26ZM325,56.65a13.43,13.43,0,0,1-9.93-4.09A16.71,16.71,0,0,1,310.82,42a30.28,30.28,0,0,1,.52-7.71,27.13,27.13,0,0,1,2.81-8.18,20.7,20.7,0,0,1,5.05-6.22,17.29,17.29,0,0,1,11.68-4A14.45,14.45,0,0,1,338,17.69a13,13,0,0,1,4.87,5.15A18.4,18.4,0,0,1,345,30.48a31.11,31.11,0,0,1-.37,6.89,28.67,28.67,0,0,1-2.15,7.37,22.45,22.45,0,0,1-4.06,6.18,18.65,18.65,0,0,1-5.85,4.25A17,17,0,0,1,325,56.65ZM335.63,30.4q-.27-6.82-5.3-7.1a7.31,7.31,0,0,0-6.41,3.07q-2.54,3.27-3.36,9.62a34.2,34.2,0,0,0-.38,6.09q.27,6.93,5.35,7.12a7.06,7.06,0,0,0,5.73-2.39,15.43,15.43,0,0,0,3.47-7.42A35.62,35.62,0,0,0,335.63,30.4Zm25.53,11.65H356l-2.45,14.06h-9.34l6.88-39.74,14,0q6.74,0,10.38,3.14a9.82,9.82,0,0,1,3.27,8.61,12.9,12.9,0,0,1-2.49,7.13,14.63,14.63,0,0,1-6.11,4.45l5.35,15.91v.47h-10Zm-3.93-7.37,5.46.06a6.9,6.9,0,0,0,3.89-1.1,6.09,6.09,0,0,0,2.36-3,7.08,7.08,0,0,0,.41-3.68q-.56-3-3.88-3.21l-6.33,0Z"/></clipPath><linearGradient id="Gradiente_sem_nome_140" x1="147.91" y1="55.45" x2="395.48" y2="55.45" gradientUnits="userSpaceOnUse"><stop offset="0.04" stop-color="#476d38"/><stop offset="0.28" stop-color="#87eb8f"/><stop offset="0.89" stop-color="#5d9ef0"/><stop offset="1" stop-color="#477ec6"/></linearGradient><linearGradient id="Gradiente_sem_nome_121" x1="1" y1="36.69" x2="70.69" y2="36.69" gradientUnits="userSpaceOnUse"><stop offset="0" stop-color="#6da822"/><stop offset="0.32" stop-color="#87eb8f"/><stop offset="0.71" stop-color="#5d9ef0"/><stop offset="1" stop-color="#1d56be"/></linearGradient><linearGradient id="Gradiente_sem_nome_121-2" x1="0.48" y1="35.61" x2="70.18" y2="35.61" xlink:href="#Gradiente_sem_nome_121"/><linearGradient id="Gradiente_sem_nome_121-3" x1="70.66" y1="35.61" x2="0" y2="35.61" xlink:href="#Gradiente_sem_nome_121"/></defs><title>LOGO_ECOFACTOR_v02</title><g id="Camada_2" data-name="Camada 2"><g id="Layer_10" data-name="Layer 10"><path class="cls-2" d="M109.23,39.24H94.63L93,48.74h17.28L109,56.11H82.35l6.88-39.74h26.66l-1.28,7.39H97.3l-1.47,8.38h14.63Z"/><path class="cls-2" d="M146.27,42.57A14.28,14.28,0,0,1,143.52,50a15.51,15.51,0,0,1-6.27,5,19.44,19.44,0,0,1-8.42,1.66q-6.23-.13-9.8-4t-3.9-10.51a33.93,33.93,0,0,1,1-9.63,25.29,25.29,0,0,1,4-9.08,18.23,18.23,0,0,1,6.47-5.78,16.76,16.76,0,0,1,8.15-1.85q6.5.12,10.27,3.91t4.11,10.45l-9.31,0q.06-3.63-1.31-5.18a5.76,5.76,0,0,0-4.31-1.67q-7.36-.24-9,11.47a62.85,62.85,0,0,0-.73,7.56q-.15,6.71,5,6.9a7.34,7.34,0,0,0,5.27-1.62,8.12,8.12,0,0,0,2.51-4.9Z"/><path class="cls-2" d="M164.12,56.65a13.47,13.47,0,0,1-9.94-4.09A16.71,16.71,0,0,1,150,42a30.28,30.28,0,0,1,.52-7.71,27.4,27.4,0,0,1,2.81-8.18,20.7,20.7,0,0,1,5.05-6.22,17.31,17.31,0,0,1,11.68-4,14.45,14.45,0,0,1,7.11,1.87A13,13,0,0,1,182,22.84a18.55,18.55,0,0,1,2.12,7.64,31.05,31.05,0,0,1-.36,6.89,28.69,28.69,0,0,1-2.16,7.37,22.65,22.65,0,0,1-4,6.18,18.62,18.62,0,0,1-5.86,4.24A16.81,16.81,0,0,1,164.12,56.65ZM174.76,30.4q-.27-6.82-5.29-7.1a7.32,7.32,0,0,0-6.42,3.07q-2.53,3.27-3.35,9.62a33.45,33.45,0,0,0-.39,6.09q.28,6.93,5.35,7.12a7.12,7.12,0,0,0,5.74-2.39,15.43,15.43,0,0,0,3.46-7.42A35.62,35.62,0,0,0,174.76,30.4Z"/><g class="cls-3"><polygon class="cls-4" points="395.48 101.7 147.91 97.7 159.6 9.2 395.48 9.2 395.48 101.7"/></g><path class="cls-5" d="M70.67,34.61c0-.79-.27-1.13-1-1.26-1.17-.2-2.36-.39-3.54-.55a.61.61,0,0,1-.6-.51c-.27-.88-1-2.88-1.68-4.7h0c-.49-1.33-.95-2.56-1.17-3.18a0,0,0,0,0-.06,0c-.19-.47-.31-.79-.31-.79S59.2,26.49,59,28.47s-.17,10-1.52,14.64c-2.18,7.44-11.08,17.65-22.14,17.78C27.1,61,19.77,58.61,14.88,53.6a26.84,26.84,0,0,1-3.79-7.86,24.2,24.2,0,0,1,.44-10.3A25.52,25.52,0,0,1,23,19.17a24.3,24.3,0,0,1,21.43-2.59c1.22.4,2.4,1,3.59,1.45a1.45,1.45,0,0,1-.51.33c-1.37.55-2.76,1.05-4.09,1.67a3.18,3.18,0,0,0-1.78,2.2c-.44-.18-.79,0-1.14.46-.48.67-1,1.34-1.4,2a.59.59,0,0,1-.78.28c-1-.31-2.05-.57-3-.81-.2-.81-.42-1.61-.57-2.41-.21-1.1-.55-1.37-1.66-1.16l-3.92.74c-1,.19-1.31.62-1.09,1.66.15.7.3,1.4.42,2.11a.54.54,0,0,1-.18.45c-.81.61-1.66,1.16-2.46,1.78a.48.48,0,0,1-.72,0c-.6-.51-1.2-1-1.82-1.51s-1.2-.5-1.74.27c-.82,1.18-1.64,2.35-2.46,3.54-.52.76-.42,1.27.38,1.72s1.38.76,2.08,1.11c.3.15.34.3.26.62-.26,1-.45,1.94-.71,2.9a.63.63,0,0,1-.41.4c-.75.14-1.52.23-2.28.33-1,.14-1.3.5-1.13,1.52.23,1.34.46,2.69.65,4,.15,1,.57,1.36,1.56,1.17.78-.15,1.55-.3,2.31-.48a.45.45,0,0,1,.59.24c.51.84,1,1.66,1.6,2.47a.42.42,0,0,1,0,.59l-1.47,2.12a1,1,0,0,0,.23,1.47c1.25.89,2.52,1.76,3.79,2.63A.89.89,0,0,0,28,52.23c.48-.69,1-1.38,1.43-2.08a.54.54,0,0,1,.7-.25c.95.24,1.91.42,2.85.67a.66.66,0,0,1,.4.43c.16.82.26,1.66.4,2.49s.53,1.15,1.39,1l4.28-.79c.92-.17,1.18-.56,1-1.48s-.33-1.58-.53-2.36c-.09-.34,0-.48.31-.65a25.52,25.52,0,0,0,2.41-1.57c.33-.25.51-.24.79,0,.62.57,1.24,1.13,1.89,1.67a.9.9,0,0,0,1.5-.22q1.32-1.89,2.63-3.8a.92.92,0,0,0-.35-1.52c-.75-.44-1.51-.88-2.25-1.34a.52.52,0,0,1-.21-.43c.26-1,.57-2,.84-3.08a.5.5,0,0,1,.48-.45c.71-.07,1.42-.19,2.13-.28,1-.14,1.35-.55,1.16-1.6-.23-1.31-.47-2.62-.71-3.93-.18-1-.61-1.32-1.65-1.13-.72.14-1.44.29-2.17.4a.62.62,0,0,1-.5-.21c-.58-.84-1.12-1.72-1.71-2.57a.5.5,0,0,1,0-.69c.48-.64.93-1.31,1.4-2a1.22,1.22,0,0,0,.28-.77c1-.35,2-.74,2.92-1.1,4.3-1.56,8.6-3.11,12.89-4.69a3.08,3.08,0,0,0,1.27-5q-3.36-4.05-6.68-8.14c-1.09-1.33-2.13-2.71-3.24-4A3.18,3.18,0,0,0,48,3.25a3.06,3.06,0,0,0,.28,3.32c.57.84,1.2,1.66,1.8,2.49l.24.37a1.82,1.82,0,0,1-.57-.18A34.5,34.5,0,0,0,37.2,6.34,32.28,32.28,0,0,0,26.63,7.65,31.46,31.46,0,0,0,9.32,20a26.77,26.77,0,0,0-2.89,5.26c-.62,1-1.21,2-1.79,3.05-.15.26-.2.51-1.19.41-.66-.06-.88.1-1.07.73-.31,1-1,2.73-1.28,3.76a.9.9,0,0,0,.46,1.2c.82.52,1.1.88,1.94,1.36a2.81,2.81,0,0,1,.76.84c0,.66,0,1.32.07,2-1,.36-1.51.65-2.46,1.07a1.19,1.19,0,0,0-.81,1.61c.17.89.2,2.1.38,3s.39,1.18,1.42,1.25.71,0,1.71.08c.28,1.11.8,2.49,1,3.82a1,1,0,0,1-.17.44c-.69.68-1.41,1.32-2.1,2a.91.91,0,0,0-.19,1.31c.46.87.7,1.37,1.19,2.22.39.69.73.86,1.48.66,1-.27,2-.61,3-.93a.51.51,0,0,1,.6.12c.91.85,1.57,1.68,2.51,2.5a.38.38,0,0,1,.14.5c-.24.71-.46,1.41-.68,2.13-.12.21-.23.43-.35.65a1.38,1.38,0,0,0,.34,2c.85.85,1.7,1.68,2.57,2.51a1.39,1.39,0,0,0,2,.21c1.17-.78,2.29-1.62,3.41-2.47a.58.58,0,0,1,.74,0c1.24.65,2.49,1.31,3.77,1.87a.81.81,0,0,1,.57.89c0,1.16.05,2.32.1,3.48.05.84.26,1.08,1,1.3,1.17.32,2.34.65,3.51,1,.88.24,1.18.15,1.6-.66a27.17,27.17,0,0,0,1.49-3.19c.22-.57.49-.61,1-.6,1.65,0,3.3,0,5,0,.37,0,.52.07.65.4.46,1.14.94,2.28,1.46,3.39.34.75.65.87,1.44.68,1.28-.32,2.56-.65,3.83-1a1.11,1.11,0,0,0,1-1.24c0-1.2.09-2.39.08-3.59a.77.77,0,0,1,.55-.85c1.35-.6,2.68-1.25,4-1.91a.54.54,0,0,1,.69.08c1,.8,2,1.61,3,2.35A1.49,1.49,0,0,0,57,65.42c.83-.73,1.63-1.49,2.45-2.24s1-1.15.43-2.28-1.17-2.2-1.75-3.29l2.68-3.55s0,0,0,0a1.47,1.47,0,0,1,.54-.06c1.15.31,2.29.67,3.45,1a1.12,1.12,0,0,0,1.51-.62c.63-1,1.25-2.08,1.85-3.13a1.35,1.35,0,0,0-.24-2c-.92-.89-1.89-1.73-2.86-2.58a.63.63,0,0,1-.24-.71c.33-1.49.61-3,.89-4.5,0-.3.15-.39.45-.46,1.18-.25,2.36-.53,3.53-.84.74-.19.93-.49.93-1.26C70.69,37.42,70.68,36,70.67,34.61ZM40.79,41.92A7.87,7.87,0,1,1,39,31,7.81,7.81,0,0,1,40.79,41.92Z"/><path class="cls-6" d="M70.16,33.52c0-.79-.28-1.13-1-1.26-1.18-.2-2.36-.38-3.55-.54a.63.63,0,0,1-.6-.52c-.27-.87-1-2.88-1.68-4.7h0c-.49-1.32-1-2.55-1.17-3.18,0,0,0,0-.06,0-.18-.47-.31-.79-.31-.79s-3.06,2.9-3.3,4.88-.17,10-1.53,14.64C54.74,49.46,45.83,59.67,34.77,59.8c-8.19.1-15.52-2.27-20.41-7.28a27.43,27.43,0,0,1-3.79-7.86A24.19,24.19,0,0,1,11,34.36,25.54,25.54,0,0,1,22.47,18.09a24.36,24.36,0,0,1,21.44-2.6c1.22.41,2.39,1,3.59,1.45a1.3,1.3,0,0,1-.52.33c-1.36.56-2.76,1.05-4.09,1.67a3.22,3.22,0,0,0-1.78,2.21c-.44-.18-.78,0-1.14.46-.47.67-.95,1.34-1.4,2a.58.58,0,0,1-.78.27c-1-.3-2-.56-3-.81-.19-.81-.42-1.6-.57-2.41-.21-1.1-.54-1.36-1.65-1.15l-3.92.73c-1,.19-1.32.62-1.09,1.67.15.7.3,1.4.41,2.11a.54.54,0,0,1-.17.45c-.81.6-1.66,1.16-2.46,1.78a.49.49,0,0,1-.72,0c-.6-.52-1.21-1-1.82-1.51s-1.21-.5-1.74.27c-.83,1.17-1.65,2.35-2.46,3.53-.53.76-.42,1.28.37,1.73s1.38.76,2.09,1.11c.3.14.34.3.25.61-.25,1-.45,1.94-.7,2.9a.64.64,0,0,1-.41.41c-.76.14-1.52.23-2.29.33-1,.13-1.29.5-1.12,1.51.22,1.35.46,2.69.65,4,.14,1,.57,1.35,1.56,1.17.77-.15,1.54-.31,2.31-.49a.46.46,0,0,1,.59.25c.51.83,1,1.66,1.59,2.46a.45.45,0,0,1,0,.6c-.5.7-1,1.4-1.47,2.11a1,1,0,0,0,.22,1.47c1.26.89,2.52,1.77,3.8,2.63a.88.88,0,0,0,1.39-.29c.48-.69,1-1.37,1.43-2.07a.53.53,0,0,1,.69-.25c.95.23,1.91.42,2.86.66a.68.68,0,0,1,.39.44c.16.82.27,1.66.41,2.48s.53,1.15,1.38,1q2.15-.37,4.29-.78c.92-.18,1.18-.56,1-1.49s-.34-1.57-.54-2.35c-.08-.34,0-.48.31-.66a26.13,26.13,0,0,0,2.41-1.56c.34-.25.52-.24.79,0,.62.56,1.25,1.12,1.89,1.66a.9.9,0,0,0,1.5-.22l2.64-3.79a.93.93,0,0,0-.35-1.52c-.76-.45-1.52-.88-2.26-1.34a.53.53,0,0,1-.21-.43c.26-1,.57-2.06.84-3.09a.49.49,0,0,1,.48-.44c.71-.08,1.42-.19,2.13-.28,1.06-.14,1.36-.55,1.17-1.61-.24-1.3-.48-2.61-.71-3.92-.19-1-.61-1.33-1.66-1.13-.72.14-1.44.29-2.16.4a.61.61,0,0,1-.5-.21c-.59-.85-1.13-1.73-1.71-2.57a.5.5,0,0,1,0-.69c.49-.65.94-1.31,1.4-2a1.26,1.26,0,0,0,.29-.78c1-.34,1.94-.74,2.92-1.09,4.29-1.57,8.6-3.11,12.89-4.69a3.09,3.09,0,0,0,1.26-5c-2.24-2.69-4.46-5.41-6.68-8.13-1.09-1.34-2.13-2.71-3.24-4a3.17,3.17,0,0,0-5.33.44,3,3,0,0,0,.29,3.31C48.35,6.33,49,7.14,49.57,8c.09.12.17.25.25.37a1.8,1.8,0,0,1-.58-.17A34.09,34.09,0,0,0,36.68,5.26,32,32,0,0,0,26.11,6.57,31.49,31.49,0,0,0,8.8,18.93a25.94,25.94,0,0,0-2.88,5.26c-.62,1-1.22,2-1.8,3-.15.27-.19.52-1.18.42-.67-.07-.88.1-1.07.73-.31,1-1,2.72-1.29,3.75A.91.91,0,0,0,1,33.33c.82.53,1.1.88,1.94,1.37a3,3,0,0,1,.77.83q0,1,.06,2c-1,.37-1.51.65-2.45,1.07A1.21,1.21,0,0,0,.54,40.2c.17.88.2,2.1.38,3s.4,1.18,1.43,1.25.7,0,1.71.08c.27,1.1.8,2.49,1.05,3.82a1.19,1.19,0,0,1-.17.44c-.7.67-1.42,1.32-2.1,2a.92.92,0,0,0-.2,1.31c.47.87.7,1.36,1.19,2.22A1.09,1.09,0,0,0,5.32,55c1-.27,2-.6,3-.92a.51.51,0,0,1,.6.12c.91.84,1.58,1.68,2.52,2.49a.39.39,0,0,1,.13.51c-.23.7-.46,1.41-.67,2.12-.12.22-.24.43-.35.65-.46.88-.37,1.27.34,2s1.7,1.68,2.57,2.5a1.37,1.37,0,0,0,2,.22c1.17-.78,2.3-1.63,3.42-2.47a.57.57,0,0,1,.73-.06c1.24.66,2.49,1.31,3.77,1.88a.8.8,0,0,1,.58.88c0,1.16,0,2.33.1,3.49,0,.83.25,1.08,1,1.29,1.17.33,2.34.66,3.51,1,.87.23,1.17.15,1.6-.66a27.31,27.31,0,0,0,1.49-3.2c.21-.57.48-.6,1-.59,1.65,0,3.31,0,5,0a.57.57,0,0,1,.65.41c.46,1.14.93,2.28,1.45,3.39.35.74.66.87,1.45.67,1.28-.31,2.55-.65,3.82-1a1.13,1.13,0,0,0,1-1.25c0-1.19.08-2.39.07-3.58a.79.79,0,0,1,.55-.86c1.35-.59,2.68-1.24,4-1.9a.54.54,0,0,1,.69.08c1,.8,2,1.6,3,2.35a1.48,1.48,0,0,0,2.22-.15c.83-.74,1.64-1.49,2.46-2.24s1-1.15.43-2.29-1.17-2.2-1.76-3.28c.89-1.17,1.78-2.37,2.68-3.56,0,0,0,0,0,0a1.46,1.46,0,0,1,.54,0c1.16.31,2.29.67,3.45,1a1.12,1.12,0,0,0,1.51-.62c.63-1,1.25-2.08,1.85-3.13a1.35,1.35,0,0,0-.24-2c-.91-.9-1.89-1.74-2.85-2.58a.63.63,0,0,1-.25-.71c.33-1.5.62-3,.89-4.5a.47.47,0,0,1,.45-.46c1.18-.26,2.37-.53,3.54-.84.74-.2.93-.5.93-1.26C70.17,36.34,70.17,34.93,70.16,33.52ZM40.27,40.84a7.87,7.87,0,1,1-12.75-9.22,7.87,7.87,0,0,1,12.75,9.22Z"/><path class="cls-7" d="M34.72,25.26c.76.2,1.61.41,2.46.67a.48.48,0,0,0,.64-.23c.37-.57.77-1.12,1.16-1.68a.76.76,0,0,1,1.25-.21l3,2.11a.77.77,0,0,1,.2,1.25c-.39.55-.76,1.1-1.16,1.63a.41.41,0,0,0,0,.57c.48.7.93,1.43,1.41,2.13a.49.49,0,0,0,.41.17c.61-.08,1.2-.21,1.8-.32.86-.17,1.21.07,1.37.93.19,1.09.39,2.17.59,3.25.15.87-.09,1.21-1,1.33-.59.08-1.17.17-1.76.23a.41.41,0,0,0-.4.37c-.22.85-.48,1.7-.69,2.55a.42.42,0,0,0,.17.36c.61.38,1.24.74,1.87,1.11a.77.77,0,0,1,.29,1.26c-.73,1-1.45,2.1-2.19,3.14a.74.74,0,0,1-1.24.18c-.53-.44-1.05-.91-1.56-1.38-.23-.2-.38-.21-.66,0a21.83,21.83,0,0,1-2,1.29c-.24.14-.33.26-.26.54.17.65.31,1.3.44,2s-.06,1.09-.82,1.23l-3.55.65c-.71.13-1-.1-1.15-.83s-.2-1.37-.33-2a.56.56,0,0,0-.33-.36c-.78-.21-1.58-.36-2.36-.55a.44.44,0,0,0-.58.2c-.38.58-.79,1.15-1.18,1.72a.74.74,0,0,1-1.15.24c-1.06-.71-2.11-1.44-3.15-2.18a.8.8,0,0,1-.18-1.21c.4-.59.8-1.17,1.22-1.75a.38.38,0,0,0,0-.5c-.46-.66-.9-1.35-1.32-2a.37.37,0,0,0-.49-.2c-.63.15-1.27.28-1.91.4-.82.15-1.17-.14-1.29-1-.16-1.12-.35-2.23-.54-3.35-.14-.84.08-1.14.93-1.25.63-.09,1.27-.16,1.89-.27a.52.52,0,0,0,.34-.34c.22-.79.38-1.6.59-2.4.07-.26,0-.39-.21-.51-.59-.29-1.16-.6-1.73-.92s-.75-.8-.31-1.43c.67-1,1.35-1.95,2-2.92.45-.64.85-.71,1.45-.23s1,.83,1.5,1.25a.4.4,0,0,0,.6,0c.66-.51,1.36-1,2-1.47a.47.47,0,0,0,.14-.37c-.1-.59-.22-1.17-.34-1.75-.19-.86.05-1.22.9-1.38l3.24-.61c.92-.17,1.2.05,1.37,1C34.37,23.93,34.56,24.59,34.72,25.26ZM30.06,41.53a6.59,6.59,0,0,0,9.17-1.59,6.51,6.51,0,0,0-10.56-7.63A6.55,6.55,0,0,0,30.06,41.53Z"/><g class="cls-8"><path class="cls-7" d="M381.58,45.36l2.05,5.85c.34.95.62,1.81.84,2.67h.06c.24-.86.54-1.72.88-2.67l2-5.85h2l-4.09,10.42h-1.81l-4-10.42Z"/><path class="cls-7" d="M400.84,48.63c0,4.76-1.77,7.39-4.87,7.39-2.73,0-4.58-2.57-4.63-7.2s2-7.27,4.87-7.27S400.84,44.17,400.84,48.63Zm-7.6.22c0,3.63,1.12,5.7,2.84,5.7,1.94,0,2.86-2.26,2.86-5.83S398.06,43,396.1,43C394.44,43,393.24,45,393.24,48.85Z"/><path class="cls-7" d="M401.44,54.66a1.27,1.27,0,0,1,1.29-1.36,1.36,1.36,0,0,1,0,2.72A1.28,1.28,0,0,1,401.44,54.66Z"/><path class="cls-7" d="M405.75,55.78V54.62l1.48-1.45c3.58-3.4,5.19-5.21,5.21-7.32a2.49,2.49,0,0,0-2.77-2.73,4.79,4.79,0,0,0-3,1.18L406.09,43a6.15,6.15,0,0,1,4-1.42,3.93,3.93,0,0,1,4.28,4.07c0,2.58-1.87,4.67-4.82,7.51l-1.12,1v.05h6.28v1.57Z"/></g></g></g></svg>